STARTFONT 2.1
COMMENT
COMMENT Converted from OpenType font "Patriot-Normal.otf" by "otf2bdf 3.0".
COMMENT
FONT -FreeType-Patriot Normal-Medium-R-Normal--44-320-100-100-P-209-ISO10646-1
SIZE 32 100 100
FONTBOUNDINGBOX 68 58 -15 -12
STARTPROPERTIES 19
FOUNDRY "FreeType"
FAMILY_NAME "Patriot Normal"
WEIGHT_NAME "Medium"
SLANT "R"
SETWIDTH_NAME "Normal"
ADD_STYLE_NAME ""
PIXEL_SIZE 44
POINT_SIZE 320
RESOLUTION_X 100
RESOLUTION_Y 100
SPACING "P"
AVERAGE_WIDTH 209
CHARSET_REGISTRY "ISO10646"
CHARSET_ENCODING "1"
FONT_ASCENT 44
FONT_DESCENT 8
COPYRIGHT "Copyright © 2020 by Behalf Studio. All rights reserved."
_OTF_FONTFILE "Patriot-Normal.otf"
_OTF_PSNAME "Patriot-Normal"
ENDPROPERTIES
CHARS 426
STARTCHAR 0020
ENCODING 32
SWIDTH 337 0
DWIDTH 15 0
BBX 0 0 0 0
BITMAP
ENDCHAR
STARTCHAR 0021
ENCODING 33
SWIDTH 225 0
DWIDTH 10 0
BBX 6 31 2 0
BITMAP
38
38
38
38
38
38
38
38
38
38
38
38
38
38
38
38
38
38
38
38
00
00
00
00
00
10
7C
FC
FC
FC
7C
ENDCHAR
STARTCHAR 0022
ENCODING 34
SWIDTH 270 0
DWIDTH 12 0
BBX 9 10 2 21
BITMAP
E380
E380
E380
E380
E380
E380
E380
E380
E380
E380
ENDCHAR
STARTCHAR 0023
ENCODING 35
SWIDTH 607 0
DWIDTH 27 0
BBX 23 31 2 0
BITMAP
00C038
00C030
01C030
01C070
01C070
01C070
01C070
018070
018060
038060
3FFFFE
3FFFFE
0380E0
0380E0
0300E0
0300C0
0700C0
0701C0
0701C0
FFFFFC
FFFFFC
FFFFFC
060180
0E0180
0E0380
0E0380
0E0380
0E0380
0C0380
0C0300
1C0300
ENDCHAR
STARTCHAR 0024
ENCODING 36
SWIDTH 517 0
DWIDTH 23 0
BBX 19 39 2 -4
BITMAP
007000
007000
007000
01F000
07FE00
0FFF00
1FFF80
3E7780
3C73C0
3871C0
3871E0
387180
3C7000
3C7000
1E7000
0FF000
07F000
03F000
01FC00
007E00
007F00
007F80
0073C0
0071E0
0071E0
0070E0
1070E0
F070E0
7070E0
7871E0
7871E0
3E73C0
1FFFC0
0FFF80
07FE00
007000
007000
007000
007000
ENDCHAR
STARTCHAR 0025
ENCODING 37
SWIDTH 832 0
DWIDTH 37 0
BBX 33 33 2 -1
BITMAP
03C0000000
0FF0003800
3FF8007000
383C00E000
701E00E000
700E01C000
E00E038000
E00E038000
E00E070000
700E0E0000
700E1C0000
781C1C0000
3FFC380000
1FF8700000
07E0700000
0000E00000
0001C00000
0001C00000
000381F800
000707FE00
000E0FBF00
000E1E0700
001C1C0780
0038380380
0038380380
0070380380
00E0380380
00E01C0380
01C01C0780
03801F0F00
07000FFE00
070003FC00
000000E000
ENDCHAR
STARTCHAR 0026
ENCODING 38
SWIDTH 630 0
DWIDTH 28 0
BBX 25 32 2 0
BITMAP
00400000
03FE0000
0FFF0000
1FFF8000
1E07C000
3C01E000
3801C000
38008000
38000000
38000000
38000000
3C000000
1E000000
1F000000
0FFFFF80
0FFFFF80
1FFFFF80
3E001C00
7C001C00
78001C00
70003C00
F0003C00
F0003C00
F0003800
F0007800
70007800
7800F000
7C01F000
3E03E000
1FFFC000
0FFF8000
03FE0000
ENDCHAR
STARTCHAR 0027
ENCODING 39
SWIDTH 157 0
DWIDTH 7 0
BBX 3 10 2 21
BITMAP
E0
E0
E0
E0
E0
E0
E0
E0
E0
E0
ENDCHAR
STARTCHAR 0028
ENCODING 40
SWIDTH 292 0
DWIDTH 13 0
BBX 9 41 2 -6
BITMAP
0180
0380
0380
0700
0F00
0E00
1C00
1C00
1800
3800
3800
3000
7000
7000
7000
6000
E000
E000
E000
E000
E000
E000
E000
E000
6000
7000
7000
7000
7000
3000
3800
3800
1C00
1C00
0E00
0E00
0700
0700
0380
0380
0100
ENDCHAR
STARTCHAR 0029
ENCODING 41
SWIDTH 292 0
DWIDTH 13 0
BBX 10 41 2 -6
BITMAP
6000
F000
7000
3800
3800
1C00
1C00
0E00
0E00
0700
0700
0300
0380
0380
0380
0180
0180
01C0
01C0
01C0
01C0
01C0
01C0
0180
0180
0380
0380
0380
0380
0700
0700
0700
0E00
0E00
1C00
1C00
3800
3800
7000
F000
2000
ENDCHAR
STARTCHAR 002A
ENCODING 42
SWIDTH 450 0
DWIDTH 20 0
BBX 16 15 2 16
BITMAP
0180
03C0
03C0
03C0
03C0
799F
FDBF
7FFE
1FF8
03C0
0FF0
1E78
1E78
1C38
1C38
ENDCHAR
STARTCHAR 002B
ENCODING 43
SWIDTH 540 0
DWIDTH 24 0
BBX 20 20 2 5
BITMAP
007000
007000
007000
007000
007000
007000
007000
007000
007000
FFFFF0
FFFFF0
FFFFF0
007000
007000
007000
007000
007000
007000
007000
007000
ENDCHAR
STARTCHAR 002C
ENCODING 44
SWIDTH 247 0
DWIDTH 11 0
BBX 6 8 3 -5
BITMAP
3C
38
38
70
70
E0
C0
C0
ENDCHAR
STARTCHAR 002D
ENCODING 45
SWIDTH 427 0
DWIDTH 19 0
BBX 15 3 2 9
BITMAP
FFFE
FFFE
FFFE
ENDCHAR
STARTCHAR 002E
ENCODING 46
SWIDTH 225 0
DWIDTH 10 0
BBX 6 6 2 0
BITMAP
10
7C
FC
FC
FC
7C
ENDCHAR
STARTCHAR 002F
ENCODING 47
SWIDTH 360 0
DWIDTH 16 0
BBX 12 33 2 -1
BITMAP
0030
0070
0070
0060
00E0
00E0
00E0
00C0
01C0
01C0
0180
0380
0380
0380
0300
0700
0700
0600
0E00
0E00
0E00
0C00
1C00
1C00
1800
3800
3800
3800
3000
7000
7000
6000
E000
ENDCHAR
STARTCHAR 0030
ENCODING 48
SWIDTH 675 0
DWIDTH 30 0
BBX 29 33 1 -1
BITMAP
000F8000
007FF000
01FFFC00
07F07F00
0FC01F80
0F000780
1E0003C0
3C0001E0
380001E0
780000F0
780000F0
70000070
70000070
70000070
F0000078
F0000078
F0000078
F0000078
F0000070
70000070
70000070
70000070
780000F0
780000E0
380001E0
3C0001E0
1E0003C0
0F000780
07C01F00
03F8FE00
01FFFC00
007FF000
00078000
ENDCHAR
STARTCHAR 0031
ENCODING 49
SWIDTH 270 0
DWIDTH 12 0
BBX 8 31 2 0
BITMAP
07
07
07
FF
FF
FF
07
07
07
07
07
07
07
07
07
07
07
07
07
07
07
07
07
07
07
07
07
07
07
07
07
ENDCHAR
STARTCHAR 0032
ENCODING 50
SWIDTH 517 0
DWIDTH 23 0
BBX 21 32 1 0
BITMAP
00F800
03FF00
0FFF80
1F8FC0
3E01E0
3C00F0
780070
780070
700070
700070
300070
000070
000070
0000F0
0000E0
0001E0
0003C0
0003C0
000780
000F00
001E00
003C00
007800
00F000
01E000
03C000
078000
0F0000
1E0000
3FFFF8
7FFFF8
FFFFF8
ENDCHAR
STARTCHAR 0033
ENCODING 51
SWIDTH 517 0
DWIDTH 23 0
BBX 20 32 2 -1
BITMAP
FFFFC0
FFFFC0
FFFF80
000F00
001E00
003C00
007800
01E000
03C000
07C000
0FFC00
1FFE00
3FFF80
7807C0
3003C0
0001E0
0000E0
0000F0
0000F0
000070
000070
000070
0000F0
0000E0
0000E0
4001E0
E003C0
F80780
7E3F80
3FFE00
0FFC00
00E000
ENDCHAR
STARTCHAR 0034
ENCODING 52
SWIDTH 517 0
DWIDTH 23 0
BBX 21 31 1 0
BITMAP
000FC0
007FC0
01FFC0
03F1C0
07C1C0
0F81C0
1E01C0
1C01C0
3C01C0
7801C0
7801C0
7001C0
F001C0
E001C0
E001C0
E001C0
E001C0
E001C0
FFFFF8
FFFFF8
FFFFF8
0001C0
0001C0
0001C0
0001C0
0001C0
0001C0
0001C0
0001C0
0001C0
0001C0
ENDCHAR
STARTCHAR 0035
ENCODING 53
SWIDTH 517 0
DWIDTH 23 0
BBX 20 32 2 -1
BITMAP
7FFFE0
7FFFE0
7FFFE0
700000
700000
700000
700000
700000
700000
700000
77FE00
EFFF00
FFFF80
FC03C0
F001E0
2000F0
0000F0
000070
000070
000070
000070
000070
000070
000070
0000F0
2000E0
F001E0
F807C0
7F1F80
1FFF00
0FFC00
00F000
ENDCHAR
STARTCHAR 0036
ENCODING 54
SWIDTH 585 0
DWIDTH 26 0
BBX 23 32 2 -1
BITMAP
001C00
003C00
007800
007000
00F000
01E000
01C000
03C000
078000
0FFF80
0FFFC0
1FE7F0
3E00F8
3C0078
78003C
70001C
F0001E
E0000E
E0000E
E0000E
E0000E
E0000E
E0000E
F0001E
70001C
78003C
3C0078
3E00F8
1FC7F0
07FFE0
03FF80
003800
ENDCHAR
STARTCHAR 0037
ENCODING 55
SWIDTH 427 0
DWIDTH 19 0
BBX 18 31 1 0
BITMAP
FFFFC0
FFFFC0
FFFFC0
000380
000380
000780
000700
000F00
000E00
000E00
001E00
001C00
3FFF00
3FFF00
3FFF00
007800
007000
00F000
00E000
00E000
01E000
01C000
03C000
038000
038000
078000
070000
0F0000
0E0000
0E0000
1C0000
ENDCHAR
STARTCHAR 0038
ENCODING 56
SWIDTH 562 0
DWIDTH 25 0
BBX 23 33 1 -1
BITMAP
003800
01FF00
03FF80
0783C0
0701C0
0701C0
0F00E0
0E00E0
0701C0
0701C0
07C7C0
03FF80
07FFC0
0FFFE0
1F01F0
3C0078
78003C
70001C
70001C
F0001E
E0000E
E0000E
E0000E
F0001E
70001C
70001C
78003C
3C0078
1E00F0
1FC7F0
07FFC0
03FF80
003C00
ENDCHAR
STARTCHAR 0039
ENCODING 57
SWIDTH 562 0
DWIDTH 25 0
BBX 24 32 1 0
BITMAP
003E00
01FFC0
07FFE0
0FC3F0
1F0078
3C003C
38001E
78001E
70000E
70000F
F00007
F00007
F00007
F0000F
70000F
70000E
78001E
3C001C
3E003C
1F00F8
0FFFF8
07FFF0
01FFE0
0001C0
0003C0
000780
000700
000F00
001E00
001C00
003C00
007800
ENDCHAR
STARTCHAR 003A
ENCODING 58
SWIDTH 225 0
DWIDTH 10 0
BBX 6 21 2 0
BITMAP
38
7C
FC
FC
7C
38
00
00
00
00
00
00
00
00
00
10
7C
FC
FC
FC
7C
ENDCHAR
STARTCHAR 003B
ENCODING 59
SWIDTH 270 0
DWIDTH 12 0
BBX 7 26 3 -5
BITMAP
3C
7E
7E
7E
7E
3C
00
00
00
00
00
00
00
00
00
00
00
00
3C
38
38
70
70
E0
C0
C0
ENDCHAR
STARTCHAR 003C
ENCODING 60
SWIDTH 540 0
DWIDTH 24 0
BBX 20 18 2 5
BITMAP
000010
000070
0003F0
001FE0
007F00
03F800
1FC000
7F0000
F80000
F00000
FE0000
1FC000
07F000
00FE00
001FC0
0007F0
0000F0
000010
ENDCHAR
STARTCHAR 003D
ENCODING 61
SWIDTH 540 0
DWIDTH 24 0
BBX 20 11 2 9
BITMAP
FFFFF0
FFFFF0
FFFFF0
000000
000000
000000
000000
000000
FFFFF0
FFFFF0
FFFFF0
ENDCHAR
STARTCHAR 003E
ENCODING 62
SWIDTH 540 0
DWIDTH 24 0
BBX 20 18 2 5
BITMAP
800000
F00000
FC0000
3F8000
07F000
01FC00
003F80
0007F0
0001F0
0000F0
0003F0
001FC0
00FE00
07F000
1FC000
FE0000
F00000
C00000
ENDCHAR
STARTCHAR 003F
ENCODING 63
SWIDTH 405 0
DWIDTH 18 0
BBX 14 32 2 0
BITMAP
0300
0FE0
3FF8
7EF8
703C
701C
E01C
001C
001C
003C
0038
0070
00F0
01E0
01C0
03C0
0380
0780
0700
0700
0700
0700
0000
0000
0000
0000
0200
0F80
0F80
1FC0
0F80
0F80
ENDCHAR
STARTCHAR 0040
ENCODING 64
SWIDTH 787 0
DWIDTH 35 0
BBX 31 32 2 0
BITMAP
0001C000
003FFE00
00FFFF80
01F003C0
038000E0
07000070
0E000038
1C000018
3803C01C
380FEE0C
701FFC0E
703C1C0E
60381C0E
60701C0E
E0701C0E
E0701C0C
E0701C0C
E0701C1C
E0701C1C
60703C38
60387C30
703FEFF0
701FCFE0
38030380
38000000
1C000000
0E000020
07000078
03C001F0
01F007C0
007FFF80
001FFE00
ENDCHAR
STARTCHAR 0041
ENCODING 65
SWIDTH 540 0
DWIDTH 24 0
BBX 22 32 2 0
BITMAP
01F000
07FC00
1FFE00
3F1F00
3C0780
7803C0
7003C0
7001C0
F001C0
F001E0
F001E0
F001E0
F001E0
F001E0
F001E0
F001E0
F001E0
F001E0
F001E0
F001E0
F001E0
F001E0
F001E0
F001E0
F001E0
F001E0
F001E0
F001E0
F001E0
FFFFFC
FFFFFC
FFFFFC
ENDCHAR
STARTCHAR 0042
ENCODING 66
SWIDTH 585 0
DWIDTH 26 0
BBX 24 31 1 0
BITMAP
0FFF80
0FFFF0
0FFFF8
0E00FC
0E003C
0E001E
0E000E
0E000E
0E000E
0E000E
0E001E
0E001E
0E003C
0E03F8
FFFFF0
FFFFF8
FFFFFC
0E003E
0E001E
0E000F
0E000F
0E000F
0E0007
0E0007
0E000F
0E000F
0E001E
0E007C
0FFFFC
0FFFF0
0FFFC0
ENDCHAR
STARTCHAR 0043
ENCODING 67
SWIDTH 675 0
DWIDTH 30 0
BBX 28 33 1 -1
BITMAP
0003E000
003FFE00
00FFFF80
01FE1FC0
07E003F0
078000F0
0F000070
1E000020
3C000000
3C000000
78000000
78000000
70000000
70000000
70000000
F0000000
F0000000
F0000000
70000000
70000000
70000000
78000000
78000000
3C000000
3C000000
1E000020
0F000070
07C001F0
03E003E0
01FF7FC0
00FFFF80
003FFE00
0001C000
ENDCHAR
STARTCHAR 0044
ENCODING 68
SWIDTH 630 0
DWIDTH 28 0
BBX 25 31 2 0
BITMAP
FFF80000
FFFF0000
FFFFC000
F00FE000
F001F800
F0007C00
F0003C00
F0001E00
F0000E00
F0000F00
F0000700
F0000700
F0000780
F0000780
F0000780
F0000780
F0000780
F0000780
F0000780
F0000700
F0000700
F0000F00
F0000E00
F0001E00
F0003C00
F0007C00
F001F800
F00FE000
FFFFC000
FFFF0000
FFF80000
ENDCHAR
STARTCHAR 0045
ENCODING 69
SWIDTH 472 0
DWIDTH 21 0
BBX 21 31 1 0
BITMAP
1FFE00
1FFE00
1FFE00
1C0000
1C0000
1C0000
1C0000
1C0000
1C0000
1C0000
1C0000
1C0000
1C0000
1C0000
FFFF80
FFFF80
FFFF80
1C0000
1C0000
1C0000
1C0000
1C0000
1C0000
1C0000
1C0000
1C0000
1C0000
1C0000
1FFFF8
1FFFF8
1FFFF8
ENDCHAR
STARTCHAR 0046
ENCODING 70
SWIDTH 427 0
DWIDTH 19 0
BBX 19 31 1 0
BITMAP
0FFFE0
0FFFE0
0FFFE0
0E0000
0E0000
0E0000
0E0000
0E0000
0E0000
0E0000
0E0000
0E0000
0E0000
0E0000
0E0000
FFFFC0
FFFFC0
FFFFC0
0E0000
0E0000
0E0000
0E0000
0E0000
0E0000
0E0000
0E0000
0E0000
0E0000
0E0000
0E0000
0E0000
ENDCHAR
STARTCHAR 0047
ENCODING 71
SWIDTH 832 0
DWIDTH 37 0
BBX 36 33 1 -1
BITMAP
0003E00000
003FFE0000
00FFFF8000
01FE1FE000
03E003F000
07C000F800
0F00007000
1E00002000
3C00000000
3C00000000
7800000000
7800000000
7000000000
7000000000
7000000000
F000FFFFF0
F000FFFFF0
F000FFFFF0
7000000780
7000000780
7000000780
7800000700
3800000F00
3C00000E00
3C00001E00
1E00003C00
0F00007C00
07C000F800
03F003F000
01FF3FE000
00FFFF8000
001FFE0000
0003E00000
ENDCHAR
STARTCHAR 0048
ENCODING 72
SWIDTH 540 0
DWIDTH 24 0
BBX 21 31 1 0
BITMAP
1C0038
1C0038
1C0038
1C0038
1C0038
1C0038
1C0038
1C0038
1C0038
1C0038
1C0038
1C0038
FFFFF8
FFFFF8
FFFFF8
1C0038
1C0038
1C0038
1C0038
1C0038
1C0038
1C0038
1C0038
1C0038
1C0038
1C0038
1C0038
1C0038
1C0038
1C0038
1C0038
ENDCHAR
STARTCHAR 0049
ENCODING 73
SWIDTH 157 0
DWIDTH 7 0
BBX 10 34 -1 1
BITMAP
0800
0C00
0C00
FFC0
3F00
1E00
3E00
3300
4100
0000
0000
0000
0000
0000
0000
1C00
1C00
1C00
1C00
1C00
1C00
1C00
1C00
1C00
1C00
1C00
1C00
1C00
1C00
1C00
1C00
1C00
1C00
1C00
ENDCHAR
STARTCHAR 004A
ENCODING 74
SWIDTH 450 0
DWIDTH 20 0
BBX 17 32 1 -1
BITMAP
003F80
003F80
003F80
000380
000380
000380
000380
000380
000380
000380
000380
000380
000380
000380
000380
000380
000380
000380
000380
000380
000380
000380
000380
000780
200780
E00700
F00F00
F81F00
7FFE00
3FFC00
1FF800
01C000
ENDCHAR
STARTCHAR 004B
ENCODING 75
SWIDTH 517 0
DWIDTH 23 0
BBX 20 31 1 0
BITMAP
1E01C0
1E01C0
1E01C0
1E01C0
1E01C0
1E01C0
1E01C0
1E01C0
1E01C0
1E03C0
1E03C0
1E0780
1E0F80
1E3F00
FFFE00
FFFF80
FFFFC0
1E03C0
1E01E0
1E00E0
1E00F0
1E00F0
1E0070
1E0070
1E0070
1E0070
1E0070
1E0070
1E0070
1E0070
1E0070
ENDCHAR
STARTCHAR 004C
ENCODING 76
SWIDTH 405 0
DWIDTH 18 0
BBX 16 31 2 0
BITMAP
F000
F000
F000
F000
F000
F000
F000
F000
F000
F000
F000
F000
F000
F000
F000
F000
F000
F000
F000
F000
F000
F000
F000
F000
F000
F000
F000
F000
FFFF
FFFF
FFFF
ENDCHAR
STARTCHAR 004D
ENCODING 77
SWIDTH 855 0
DWIDTH 38 0
BBX 35 32 1 0
BITMAP
4000000000
E0006001E0
F8007001E0
7C007801E0
3E007E01E0
3F807F01E0
3FC07F81E0
3BE077C1E0
39F071F1E0
387C70F9E0
383E707DE0
381F703FE0
380FF00FE0
3803F007E0
3801F003E0
3800F001E0
38007001E0
38007001E0
38007001E0
38007001E0
38007001E0
38007001E0
38007001E0
38007001E0
38007001E0
38007001E0
38007001E0
38007001E0
38007001E0
38007001E0
38007001E0
38007001E0
ENDCHAR
STARTCHAR 004E
ENCODING 78
SWIDTH 495 0
DWIDTH 22 0
BBX 19 32 1 0
BITMAP
400000
E000E0
F800E0
7C00E0
7E00E0
7F80E0
77C0E0
73E0E0
71F0E0
707CE0
703EE0
701FE0
700FE0
7003E0
7001E0
7000E0
7000E0
7000E0
7000E0
7000E0
7000E0
7000E0
7000E0
7000E0
7000E0
7000E0
7000E0
7000E0
7000E0
7000E0
7000E0
7000E0
ENDCHAR
STARTCHAR 004F
ENCODING 79
SWIDTH 810 0
DWIDTH 36 0
BBX 34 33 1 -1
BITMAP
0003F00000
003FFF0000
00FFFFC000
01FE1FE000
03E001F000
07C0007800
0F00003C00
1E00001E00
3C00000F00
3C00000F00
7800000780
7800000780
7000000380
7000000380
70000003C0
F0000003C0
F0000003C0
F0000003C0
70000003C0
7000000380
7000000380
7800000780
3800000780
3C00000F00
3C00000F00
1E00001E00
0F00003C00
07C000F800
03F003F000
01FF3FE000
00FFFFC000
001FFE0000
0003E00000
ENDCHAR
STARTCHAR 0050
ENCODING 80
SWIDTH 540 0
DWIDTH 24 0
BBX 23 31 1 0
BITMAP
3FFF00
3FFFC0
3FFFF0
3C01F8
3C0078
3C003C
3C001C
3C001E
3C001E
3C001E
3C001E
3C001C
3C003C
3C003C
3C00F8
3C07F0
FFFFE0
FFFFC0
FFFE00
3C0000
3C0000
3C0000
3C0000
3C0000
3C0000
3C0000
3C0000
3C0000
3C0000
3C0000
3C0000
ENDCHAR
STARTCHAR 0051
ENCODING 81
SWIDTH 810 0
DWIDTH 36 0
BBX 34 33 1 -1
BITMAP
0003F00000
003FFF0000
00FFFFC000
01FE1FE000
03E001F000
07C0007800
0F00003C00
1E00001E00
3C00000F00
3C00000F00
7800000780
7800000780
7000000380
7000000380
70000003C0
F0000003C0
F0000003C0
F0000003C0
70000003C0
7000000380
7000000380
7800000780
3800030780
3C00078F00
3C0007CF00
1E0003FE00
0F0001FC00
07C000F800
03F003FC00
01FF3FFE00
00FFFFDF00
001FFE0E00
0003F00400
ENDCHAR
STARTCHAR 0052
ENCODING 82
SWIDTH 562 0
DWIDTH 25 0
BBX 23 31 1 0
BITMAP
1FFF00
1FFFE0
1FFFF0
1C01F8
1C007C
1C003C
1C001E
1C001E
1C000E
1C000E
1C001E
1C001E
1C001C
1C003C
1C00F8
FFFFF0
FFFFE0
FFFF80
1C0FE0
1C01E0
1C00F0
1C0078
1C0078
1C0038
1C0038
1C003C
1C003C
1C003C
1C003C
1C003C
1C003C
ENDCHAR
STARTCHAR 0053
ENCODING 83
SWIDTH 472 0
DWIDTH 21 0
BBX 19 33 1 -1
BITMAP
01F000
07FE00
0FFF00
1F9F80
3C0780
3C03C0
3801C0
3801C0
380180
3C0000
3C0000
1E0000
0F8000
07C000
03F000
01FC00
007E00
001F00
000F80
0003C0
0001E0
0001E0
0000E0
0000E0
F000E0
F000E0
7801E0
7801E0
3C03C0
1FDF80
0FFF80
07FE00
00F000
ENDCHAR
STARTCHAR 0054
ENCODING 84
SWIDTH 472 0
DWIDTH 21 0
BBX 20 31 1 0
BITMAP
FFFFF0
FFFFF0
FFFFF0
00F000
00F000
00F000
00F000
00F000
00F000
00F000
00F000
00F000
00F000
00F000
00F000
00F000
00F000
00F000
00F000
00F000
00F000
00F000
00F000
00F000
00F000
00F000
00F000
00F000
00F000
00F000
00F000
ENDCHAR
STARTCHAR 0055
ENCODING 85
SWIDTH 495 0
DWIDTH 22 0
BBX 18 32 2 -1
BITMAP
E001C0
E001C0
E001C0
E001C0
E001C0
E001C0
E001C0
E001C0
E001C0
E001C0
E001C0
E001C0
E001C0
E001C0
E001C0
E001C0
E001C0
E001C0
E001C0
E001C0
E001C0
E001C0
E001C0
E001C0
F003C0
7003C0
780780
7C0F80
3FFF00
1FFE00
0FFC00
01E000
ENDCHAR
STARTCHAR 0056
ENCODING 86
SWIDTH 450 0
DWIDTH 20 0
BBX 18 31 0 0
BITMAP
F001C0
F001C0
F001C0
F001C0
F001C0
F001C0
F001C0
F001C0
F001C0
F001C0
F001C0
F001C0
F001C0
F001C0
F001C0
F001C0
7001C0
7003C0
7003C0
7003C0
700380
780380
380780
380780
3C0700
1C0F00
1E1E00
0F1E00
07BC00
03F800
01F000
ENDCHAR
STARTCHAR 0057
ENCODING 87
SWIDTH 765 0
DWIDTH 34 0
BBX 32 31 0 0
BITMAP
F001C007
F001C007
F001C007
F001C007
F001C007
F001C007
F001C007
F001C007
F001C007
F001C007
F001C007
F001C007
F001C007
F001C007
F001C007
F001C007
7001C007
7003C007
7003C007
7003E00F
7003E00F
7803E00E
3807E00E
3807F01E
3C07701C
1C0F783C
1E1E3838
0F1E3C78
07BC1EF0
03F80FE0
01F007C0
ENDCHAR
STARTCHAR 0058
ENCODING 88
SWIDTH 495 0
DWIDTH 22 0
BBX 18 31 2 0
BITMAP
E001C0
E001C0
E001C0
E001C0
E001C0
E001C0
F001C0
F001C0
7003C0
7803C0
780780
3E0F00
1FFF00
0FFC00
1FFF00
3E0F00
780780
7803C0
7003C0
F001C0
F001C0
E001C0
E001C0
E001C0
E001C0
E001C0
E001C0
E001C0
E001C0
E001C0
E001C0
ENDCHAR
STARTCHAR 0059
ENCODING 89
SWIDTH 472 0
DWIDTH 21 0
BBX 18 31 2 0
BITMAP
E001C0
E001C0
E001C0
E001C0
E001C0
E001C0
E001C0
E001C0
E001C0
E001C0
E001C0
E001C0
E001C0
E001C0
E001C0
E003C0
E003C0
F00380
700780
780F00
3FFF00
1FFE00
0FF800
01C000
01C000
01C000
01C000
01C000
01C000
01C000
01C000
ENDCHAR
STARTCHAR 005A
ENCODING 90
SWIDTH 472 0
DWIDTH 21 0
BBX 20 31 1 0
BITMAP
FFFFF0
FFFFF0
FFFFE0
0001E0
0001C0
0003C0
000780
000700
000F00
000E00
001E00
003C00
003800
007800
007000
00F000
01E000
01C000
03C000
038000
078000
0F0000
0E0000
1E0000
1C0000
3C0000
780000
700000
FFFFE0
FFFFE0
FFFFE0
ENDCHAR
STARTCHAR 005B
ENCODING 91
SWIDTH 202 0
DWIDTH 9 0
BBX 5 42 2 -6
BITMAP
F8
F8
E0
E0
E0
E0
E0
E0
E0
E0
E0
E0
E0
E0
E0
E0
E0
E0
E0
E0
E0
E0
E0
E0
E0
E0
E0
E0
E0
E0
E0
E0
E0
E0
E0
E0
E0
E0
E0
E0
F8
F8
ENDCHAR
STARTCHAR 005C
ENCODING 92
SWIDTH 360 0
DWIDTH 16 0
BBX 12 33 2 -1
BITMAP
E000
7000
7000
7000
3000
3800
3800
3800
1C00
1C00
1C00
0C00
0E00
0E00
0E00
0700
0700
0700
0300
0380
0380
0380
01C0
01C0
01C0
00C0
00E0
00E0
00E0
0070
0070
0070
0030
ENDCHAR
STARTCHAR 005D
ENCODING 93
SWIDTH 202 0
DWIDTH 9 0
BBX 5 42 2 -6
BITMAP
F8
F8
18
18
18
18
18
18
18
18
18
18
18
18
18
18
18
18
18
18
18
18
18
18
18
18
18
18
18
18
18
18
18
18
18
18
18
18
18
18
F8
F8
ENDCHAR
STARTCHAR 005E
ENCODING 94
SWIDTH 450 0
DWIDTH 20 0
BBX 15 11 3 16
BITMAP
0780
07C0
0FC0
0EE0
1CE0
1870
3838
7038
701C
E01C
E00E
ENDCHAR
STARTCHAR 005F
ENCODING 95
SWIDTH 517 0
DWIDTH 23 0
BBX 19 2 2 -4
BITMAP
FFFFE0
FFFFE0
ENDCHAR
STARTCHAR 0060
ENCODING 96
SWIDTH 135 0
DWIDTH 6 0
BBX 6 6 0 34
BITMAP
E0
70
30
38
1C
0C
ENDCHAR
STARTCHAR 0061
ENCODING 97
SWIDTH 540 0
DWIDTH 24 0
BBX 22 32 2 0
BITMAP
01F000
07FC00
1FFE00
3F1F00
3C0780
7803C0
7003C0
7001C0
F001C0
F001E0
F001E0
F001E0
F001E0
F001E0
F001E0
F001E0
F001E0
F001E0
F001E0
F001E0
F001E0
F001E0
F001E0
F001E0
F001E0
F001E0
F001E0
F001E0
F001E0
FFFFFC
FFFFFC
FFFFFC
ENDCHAR
STARTCHAR 0062
ENCODING 98
SWIDTH 585 0
DWIDTH 26 0
BBX 24 31 1 0
BITMAP
0FFF80
0FFFF0
0FFFF8
0E00FC
0E003C
0E001E
0E000E
0E000E
0E000E
0E000E
0E001E
0E001E
0E003C
0E03F8
FFFFF0
FFFFF8
FFFFFC
0E003E
0E001E
0E000F
0E000F
0E000F
0E0007
0E0007
0E000F
0E000F
0E001E
0E007C
0FFFFC
0FFFF0
0FFFC0
ENDCHAR
STARTCHAR 0063
ENCODING 99
SWIDTH 675 0
DWIDTH 30 0
BBX 28 33 1 -1
BITMAP
0003E000
003FFE00
00FFFF80
01FE1FC0
07E003F0
078000F0
0F000070
1E000020
3C000000
3C000000
78000000
78000000
70000000
70000000
70000000
F0000000
F0000000
F0000000
70000000
70000000
70000000
78000000
78000000
3C000000
3C000000
1E000020
0F000070
07C001F0
03E003E0
01FF7FC0
00FFFF80
003FFE00
0001C000
ENDCHAR
STARTCHAR 0064
ENCODING 100
SWIDTH 630 0
DWIDTH 28 0
BBX 25 31 2 0
BITMAP
FFF80000
FFFF0000
FFFFC000
F00FE000
F001F800
F0007C00
F0003C00
F0001E00
F0000E00
F0000F00
F0000700
F0000700
F0000780
F0000780
F0000780
F0000780
F0000780
F0000780
F0000780
F0000700
F0000700
F0000F00
F0000E00
F0001E00
F0003C00
F0007C00
F001F800
F00FE000
FFFFC000
FFFF0000
FFF80000
ENDCHAR
STARTCHAR 0065
ENCODING 101
SWIDTH 472 0
DWIDTH 21 0
BBX 21 31 1 0
BITMAP
1FFE00
1FFE00
1FFE00
1C0000
1C0000
1C0000
1C0000
1C0000
1C0000
1C0000
1C0000
1C0000
1C0000
1C0000
FFFF80
FFFF80
FFFF80
1C0000
1C0000
1C0000
1C0000
1C0000
1C0000
1C0000
1C0000
1C0000
1C0000
1C0000
1FFFF8
1FFFF8
1FFFF8
ENDCHAR
STARTCHAR 0066
ENCODING 102
SWIDTH 427 0
DWIDTH 19 0
BBX 19 31 1 0
BITMAP
0FFFE0
0FFFE0
0FFFE0
0E0000
0E0000
0E0000
0E0000
0E0000
0E0000
0E0000
0E0000
0E0000
0E0000
0E0000
0E0000
FFFFC0
FFFFC0
FFFFC0
0E0000
0E0000
0E0000
0E0000
0E0000
0E0000
0E0000
0E0000
0E0000
0E0000
0E0000
0E0000
0E0000
ENDCHAR
STARTCHAR 0067
ENCODING 103
SWIDTH 832 0
DWIDTH 37 0
BBX 36 33 1 -1
BITMAP
0003E00000
003FFE0000
00FFFF8000
01FE1FE000
03E003F000
07C000F800
0F00007000
1E00002000
3C00000000
3C00000000
7800000000
7800000000
7000000000
7000000000
7000000000
F000FFFFF0
F000FFFFF0
F000FFFFF0
7000000780
7000000780
7000000780
7800000700
3800000F00
3C00000E00
3C00001E00
1E00003C00
0F00007C00
07C000F800
03F003F000
01FF3FE000
00FFFF8000
001FFE0000
0003E00000
ENDCHAR
STARTCHAR 0068
ENCODING 104
SWIDTH 540 0
DWIDTH 24 0
BBX 21 31 1 0
BITMAP
1C0038
1C0038
1C0038
1C0038
1C0038
1C0038
1C0038
1C0038
1C0038
1C0038
1C0038
1C0038
FFFFF8
FFFFF8
FFFFF8
1C0038
1C0038
1C0038
1C0038
1C0038
1C0038
1C0038
1C0038
1C0038
1C0038
1C0038
1C0038
1C0038
1C0038
1C0038
1C0038
ENDCHAR
STARTCHAR 0069
ENCODING 105
SWIDTH 157 0
DWIDTH 7 0
BBX 10 34 -1 1
BITMAP
0800
0C00
0C00
FFC0
3F00
1E00
3E00
3300
4100
0000
0000
0000
0000
0000
0000
1C00
1C00
1C00
1C00
1C00
1C00
1C00
1C00
1C00
1C00
1C00
1C00
1C00
1C00
1C00
1C00
1C00
1C00
1C00
ENDCHAR
STARTCHAR 006A
ENCODING 106
SWIDTH 450 0
DWIDTH 20 0
BBX 17 32 1 -1
BITMAP
003F80
003F80
003F80
000380
000380
000380
000380
000380
000380
000380
000380
000380
000380
000380
000380
000380
000380
000380
000380
000380
000380
000380
000380
000780
200780
E00700
F00F00
F81F00
7FFE00
3FFC00
1FF800
01C000
ENDCHAR
STARTCHAR 006B
ENCODING 107
SWIDTH 517 0
DWIDTH 23 0
BBX 20 31 1 0
BITMAP
1E01C0
1E01C0
1E01C0
1E01C0
1E01C0
1E01C0
1E01C0
1E01C0
1E01C0
1E03C0
1E03C0
1E0780
1E0F80
1E3F00
FFFE00
FFFF80
FFFFC0
1E03C0
1E01E0
1E00E0
1E00F0
1E00F0
1E0070
1E0070
1E0070
1E0070
1E0070
1E0070
1E0070
1E0070
1E0070
ENDCHAR
STARTCHAR 006C
ENCODING 108
SWIDTH 405 0
DWIDTH 18 0
BBX 16 31 2 0
BITMAP
F000
F000
F000
F000
F000
F000
F000
F000
F000
F000
F000
F000
F000
F000
F000
F000
F000
F000
F000
F000
F000
F000
F000
F000
F000
F000
F000
F000
FFFF
FFFF
FFFF
ENDCHAR
STARTCHAR 006D
ENCODING 109
SWIDTH 855 0
DWIDTH 38 0
BBX 35 32 1 0
BITMAP
4000000000
E0006001E0
F8007001E0
7C007801E0
3E007E01E0
3F807F01E0
3FC07F81E0
3BE077C1E0
39F071F1E0
387C70F9E0
383E707DE0
381F703FE0
380FF00FE0
3803F007E0
3801F003E0
3800F001E0
38007001E0
38007001E0
38007001E0
38007001E0
38007001E0
38007001E0
38007001E0
38007001E0
38007001E0
38007001E0
38007001E0
38007001E0
38007001E0
38007001E0
38007001E0
38007001E0
ENDCHAR
STARTCHAR 006E
ENCODING 110
SWIDTH 495 0
DWIDTH 22 0
BBX 19 32 1 0
BITMAP
400000
E000E0
F800E0
7C00E0
7E00E0
7F80E0
77C0E0
73E0E0
71F0E0
707CE0
703EE0
701FE0
700FE0
7003E0
7001E0
7000E0
7000E0
7000E0
7000E0
7000E0
7000E0
7000E0
7000E0
7000E0
7000E0
7000E0
7000E0
7000E0
7000E0
7000E0
7000E0
7000E0
ENDCHAR
STARTCHAR 006F
ENCODING 111
SWIDTH 810 0
DWIDTH 36 0
BBX 34 33 1 -1
BITMAP
0003F00000
003FFF0000
00FFFFC000
01FE1FE000
03E001F000
07C0007800
0F00003C00
1E00001E00
3C00000F00
3C00000F00
7800000780
7800000780
7000000380
7000000380
70000003C0
F0000003C0
F0000003C0
F0000003C0
70000003C0
7000000380
7000000380
7800000780
3800000780
3C00000F00
3C00000F00
1E00001E00
0F00003C00
07C000F800
03F003F000
01FF3FE000
00FFFFC000
001FFE0000
0003E00000
ENDCHAR
STARTCHAR 0070
ENCODING 112
SWIDTH 540 0
DWIDTH 24 0
BBX 23 31 1 0
BITMAP
3FFF00
3FFFC0
3FFFF0
3C01F8
3C0078
3C003C
3C001C
3C001E
3C001E
3C001E
3C001E
3C001C
3C003C
3C003C
3C00F8
3C07F0
FFFFE0
FFFFC0
FFFE00
3C0000
3C0000
3C0000
3C0000
3C0000
3C0000
3C0000
3C0000
3C0000
3C0000
3C0000
3C0000
ENDCHAR
STARTCHAR 0071
ENCODING 113
SWIDTH 810 0
DWIDTH 36 0
BBX 34 33 1 -1
BITMAP
0003F00000
003FFF0000
00FFFFC000
01FE1FE000
03E001F000
07C0007800
0F00003C00
1E00001E00
3C00000F00
3C00000F00
7800000780
7800000780
7000000380
7000000380
70000003C0
F0000003C0
F0000003C0
F0000003C0
70000003C0
7000000380
7000000380
7800000780
3800030780
3C00078F00
3C0007CF00
1E0003FE00
0F0001FC00
07C000F800
03F003FC00
01FF3FFE00
00FFFFDF00
001FFE0E00
0003F00400
ENDCHAR
STARTCHAR 0072
ENCODING 114
SWIDTH 562 0
DWIDTH 25 0
BBX 23 31 1 0
BITMAP
1FFF00
1FFFE0
1FFFF0
1C01F8
1C007C
1C003C
1C001E
1C001E
1C000E
1C000E
1C001E
1C001E
1C001C
1C003C
1C00F8
FFFFF0
FFFFE0
FFFF80
1C0FE0
1C01E0
1C00F0
1C0078
1C0078
1C0038
1C0038
1C003C
1C003C
1C003C
1C003C
1C003C
1C003C
ENDCHAR
STARTCHAR 0073
ENCODING 115
SWIDTH 472 0
DWIDTH 21 0
BBX 19 33 1 -1
BITMAP
01F000
07FE00
0FFF00
1F9F80
3C0780
3C03C0
3801C0
3801C0
380180
3C0000
3C0000
1E0000
0F8000
07C000
03F000
01FC00
007E00
001F00
000F80
0003C0
0001E0
0001E0
0000E0
0000E0
F000E0
F000E0
7801E0
7801E0
3C03C0
1FDF80
0FFF80
07FE00
00F000
ENDCHAR
STARTCHAR 0074
ENCODING 116
SWIDTH 472 0
DWIDTH 21 0
BBX 20 31 1 0
BITMAP
FFFFF0
FFFFF0
FFFFF0
00F000
00F000
00F000
00F000
00F000
00F000
00F000
00F000
00F000
00F000
00F000
00F000
00F000
00F000
00F000
00F000
00F000
00F000
00F000
00F000
00F000
00F000
00F000
00F000
00F000
00F000
00F000
00F000
ENDCHAR
STARTCHAR 0075
ENCODING 117
SWIDTH 495 0
DWIDTH 22 0
BBX 18 32 2 -1
BITMAP
E001C0
E001C0
E001C0
E001C0
E001C0
E001C0
E001C0
E001C0
E001C0
E001C0
E001C0
E001C0
E001C0
E001C0
E001C0
E001C0
E001C0
E001C0
E001C0
E001C0
E001C0
E001C0
E001C0
E001C0
F003C0
7003C0
780780
7C0F80
3FFF00
1FFE00
0FFC00
01E000
ENDCHAR
STARTCHAR 0076
ENCODING 118
SWIDTH 450 0
DWIDTH 20 0
BBX 18 31 0 0
BITMAP
F001C0
F001C0
F001C0
F001C0
F001C0
F001C0
F001C0
F001C0
F001C0
F001C0
F001C0
F001C0
F001C0
F001C0
F001C0
F001C0
7001C0
7003C0
7003C0
7003C0
700380
780380
380780
380780
3C0700
1C0F00
1E1E00
0F1E00
07BC00
03F800
01F000
ENDCHAR
STARTCHAR 0077
ENCODING 119
SWIDTH 765 0
DWIDTH 34 0
BBX 32 31 0 0
BITMAP
F001C007
F001C007
F001C007
F001C007
F001C007
F001C007
F001C007
F001C007
F001C007
F001C007
F001C007
F001C007
F001C007
F001C007
F001C007
F001C007
7001C007
7003C007
7003C007
7003E00F
7003E00F
7803E00E
3807E00E
3807F01E
3C07701C
1C0F783C
1E1E3838
0F1E3C78
07BC1EF0
03F80FE0
01F007C0
ENDCHAR
STARTCHAR 0078
ENCODING 120
SWIDTH 495 0
DWIDTH 22 0
BBX 18 31 2 0
BITMAP
E001C0
E001C0
E001C0
E001C0
E001C0
E001C0
F001C0
F001C0
7003C0
7803C0
780780
3E0F00
1FFF00
0FFC00
1FFF00
3E0F00
780780
7803C0
7003C0
F001C0
F001C0
E001C0
E001C0
E001C0
E001C0
E001C0
E001C0
E001C0
E001C0
E001C0
E001C0
ENDCHAR
STARTCHAR 0079
ENCODING 121
SWIDTH 472 0
DWIDTH 21 0
BBX 18 31 2 0
BITMAP
E001C0
E001C0
E001C0
E001C0
E001C0
E001C0
E001C0
E001C0
E001C0
E001C0
E001C0
E001C0
E001C0
E001C0
E001C0
E003C0
E003C0
F00380
700780
780F00
3FFF00
1FFE00
0FF800
01C000
01C000
01C000
01C000
01C000
01C000
01C000
01C000
ENDCHAR
STARTCHAR 007A
ENCODING 122
SWIDTH 472 0
DWIDTH 21 0
BBX 20 31 1 0
BITMAP
FFFFF0
FFFFF0
FFFFE0
0001E0
0001C0
0003C0
000780
000700
000F00
000E00
001E00
003C00
003800
007800
007000
00F000
01E000
01C000
03C000
038000
078000
0F0000
0E0000
1E0000
1C0000
3C0000
780000
700000
FFFFE0
FFFFE0
FFFFE0
ENDCHAR
STARTCHAR 007B
ENCODING 123
SWIDTH 337 0
DWIDTH 15 0
BBX 11 42 2 -6
BITMAP
01E0
07E0
0FE0
0E00
0E00
0E00
0E00
0E00
0E00
0E00
0E00
0E00
0E00
0E00
0E00
0E00
0E00
1C00
1C00
F800
F800
F000
F800
1C00
1C00
0C00
0E00
0E00
0E00
0E00
0E00
0E00
0E00
0E00
0E00
0E00
0E00
0E00
0E00
0F80
07E0
03E0
ENDCHAR
STARTCHAR 007C
ENCODING 124
SWIDTH 135 0
DWIDTH 6 0
BBX 2 36 2 -5
BITMAP
C0
C0
C0
C0
C0
C0
C0
C0
C0
C0
C0
C0
C0
C0
C0
C0
C0
C0
C0
C0
C0
C0
C0
C0
C0
C0
C0
C0
C0
C0
C0
C0
C0
C0
C0
C0
ENDCHAR
STARTCHAR 007D
ENCODING 125
SWIDTH 337 0
DWIDTH 15 0
BBX 11 42 2 -6
BITMAP
F000
FC00
FE00
0E00
0E00
0E00
0E00
0E00
0E00
0E00
0E00
0E00
0E00
0E00
0E00
0E00
0E00
0700
0700
03E0
03E0
03E0
03E0
0700
0700
0E00
0E00
0E00
0E00
0E00
0E00
0E00
0E00
0E00
0E00
0E00
0E00
0E00
0E00
3E00
FC00
F800
ENDCHAR
STARTCHAR 007E
ENCODING 126
SWIDTH 517 0
DWIDTH 23 0
BBX 20 5 2 12
BITMAP
0C0000
FFE010
FFFFF0
E3FFF0
001FE0
ENDCHAR
STARTCHAR 00A1
ENCODING 161
SWIDTH 225 0
DWIDTH 10 0
BBX 6 32 2 -5
BITMAP
30
7C
FC
FC
7C
7C
00
00
00
00
00
00
38
38
38
38
38
38
38
38
38
38
38
38
38
38
38
38
38
38
38
38
ENDCHAR
STARTCHAR 00A2
ENCODING 162
SWIDTH 517 0
DWIDTH 23 0
BBX 19 27 2 2
BITMAP
007000
007000
007000
01FE00
07FF80
0FFFC0
1E73E0
3C70C0
787000
707000
707000
E07000
E07000
E07000
E07000
E07000
707000
707000
787000
3C70C0
1E73C0
0FFFC0
07FF00
01FC00
007000
007000
007000
ENDCHAR
STARTCHAR 00A3
ENCODING 163
SWIDTH 517 0
DWIDTH 23 0
BBX 19 32 2 0
BITMAP
000C00
00FFE0
03FFE0
07FFE0
0FC020
0F0000
1E0000
1E0000
1C0000
1C0000
1C0000
1C0000
1E0000
1E0000
0E0000
FFFF80
FFFF80
FFFF80
078000
038000
03C000
03C000
01C000
01C000
01C000
03C000
03C000
078000
7F0000
FFFFE0
FFFFE0
FFFFE0
ENDCHAR
STARTCHAR 00A4
ENCODING 164
SWIDTH 540 0
DWIDTH 24 0
BBX 20 20 2 4
BITMAP
600030
F1F870
7FFEE0
3FFFC0
1E0380
1C01C0
3800E0
3000E0
3000E0
300060
300060
3000E0
3800E0
3801C0
1C03C0
1F07C0
3FFFE0
73FCF0
600070
000020
ENDCHAR
STARTCHAR 00A5
ENCODING 165
SWIDTH 607 0
DWIDTH 27 0
BBX 22 31 3 0
BITMAP
E0003C
F0003C
780078
780078
3C00F0
3C00E0
1E01E0
1E01C0
0F03C0
0F0380
078780
078700
03CF00
03CE00
01FE00
01FC00
3FFFE0
3FFFE0
3FFFE0
007800
007800
007800
3FFFE0
3FFFE0
007800
007800
007800
007800
007800
007800
007800
ENDCHAR
STARTCHAR 00A6
ENCODING 166
SWIDTH 135 0
DWIDTH 6 0
BBX 2 36 2 -5
BITMAP
C0
C0
C0
C0
C0
C0
C0
C0
C0
C0
C0
C0
C0
00
00
00
00
00
00
00
00
00
C0
C0
C0
C0
C0
C0
C0
C0
C0
C0
C0
C0
C0
C0
ENDCHAR
STARTCHAR 00A7
ENCODING 167
SWIDTH 450 0
DWIDTH 20 0
BBX 16 37 2 -5
BITMAP
0080
0FF0
1FFC
3FFE
3C1E
380F
380F
3804
3C00
1E00
0F80
07C0
03F0
0FF8
3FFE
7C1E
700F
7007
F007
F007
7007
780F
3FFE
1FFC
07E0
03E0
00F8
003C
001C
001E
700E
780E
781E
3C3C
1FFC
0FF8
03E0
ENDCHAR
STARTCHAR 00A8
ENCODING 168
SWIDTH 337 0
DWIDTH 15 0
BBX 16 6 0 33
BITMAP
781E
FC3F
FC3F
FC3F
7C3E
381C
ENDCHAR
STARTCHAR 00A9
ENCODING 169
SWIDTH 832 0
DWIDTH 37 0
BBX 33 33 2 -1
BITMAP
0007F00000
003FFF0000
00FC1F8000
01E001E000
0780007000
0E00003800
0C00001C00
1800000E00
3807F00600
300FFC0700
701E1E0300
60380E0300
6070000380
6060000180
E0E0000180
E0E0000180
E0E0000180
E0E0000180
E0E0000180
6060000180
6070040380
60380E0300
701F3E0300
300FFC0700
3803F00600
1C00000E00
0E00001C00
0F00003800
078000F000
01E001E000
00FE3F8000
003FFE0000
0001E00000
ENDCHAR
STARTCHAR 00AB
ENCODING 171
SWIDTH 495 0
DWIDTH 22 0
BBX 17 19 3 4
BITMAP
03C380
078700
070F00
0E0E00
1E1C00
3C3800
387800
707000
F0E000
E1E000
F0E000
787000
387800
1C3C00
1E1C00
0F0E00
070F00
038780
03C380
ENDCHAR
STARTCHAR 00AC
ENCODING 172
SWIDTH 540 0
DWIDTH 24 0
BBX 20 11 2 5
BITMAP
FFFFF0
FFFFF0
FFFFF0
000070
000070
000070
000070
000070
000070
000070
000070
ENDCHAR
STARTCHAR 00AE
ENCODING 174
SWIDTH 472 0
DWIDTH 21 0
BBX 18 17 2 15
BITMAP
03F000
0FFC00
180600
300300
63F180
633180
431880
C310C0
C7F0C0
C7F0C0
433080
631180
631180
300300
180600
0F3C00
03F000
ENDCHAR
STARTCHAR 00AF
ENCODING 175
SWIDTH 270 0
DWIDTH 12 0
BBX 12 3 0 35
BITMAP
FFF0
FFF0
FFF0
ENDCHAR
STARTCHAR 00B0
ENCODING 176
SWIDTH 315 0
DWIDTH 14 0
BBX 10 10 2 22
BITMAP
0400
3F00
7B80
60C0
C0C0
C0C0
E0C0
61C0
7F80
1F00
ENDCHAR
STARTCHAR 00B1
ENCODING 177
SWIDTH 540 0
DWIDTH 24 0
BBX 20 18 2 5
BITMAP
007000
007000
007000
007000
007000
FFFFF0
FFFFF0
FFFFF0
007000
007000
007000
007000
007000
000000
000000
000000
FFFFF0
FFFFF0
ENDCHAR
STARTCHAR 00B4
ENCODING 180
SWIDTH 135 0
DWIDTH 6 0
BBX 7 6 0 34
BITMAP
0E
1C
38
30
70
E0
ENDCHAR
STARTCHAR 00B6
ENCODING 182
SWIDTH 450 0
DWIDTH 20 0
BBX 16 36 2 -5
BITMAP
07E3
0FE3
3FE3
3FE3
7FE3
7FE3
FFE3
FFE3
FFE3
FFE3
7FE3
7FE3
7FE3
3FE3
1FE3
07E3
01E3
0063
0063
0063
0063
0063
0063
0063
0063
0063
0063
0063
0063
0063
0063
0063
0063
0063
0063
0063
ENDCHAR
STARTCHAR 00B7
ENCODING 183
SWIDTH 225 0
DWIDTH 10 0
BBX 6 6 2 8
BITMAP
7C
FC
FC
FC
7C
30
ENDCHAR
STARTCHAR 00B8
ENCODING 184
SWIDTH 202 0
DWIDTH 9 0
BBX 9 9 0 -9
BITMAP
0E00
0C00
0F00
0180
0180
4180
E180
7F80
3F00
ENDCHAR
STARTCHAR 00BB
ENCODING 187
SWIDTH 495 0
DWIDTH 22 0
BBX 18 19 3 4
BITMAP
E1E000
70F000
787000
3C3800
1C1C00
0E1E00
0F0E00
078700
038380
01C3C0
038780
078700
0F0E00
0E1E00
1C3C00
383800
787000
70E000
E1E000
ENDCHAR
STARTCHAR 00BF
ENCODING 191
SWIDTH 405 0
DWIDTH 18 0
BBX 14 32 2 -5
BITMAP
03C0
07E0
07E0
07E0
07E0
03C0
0000
0000
0000
0000
01C0
01C0
03C0
0380
0380
0380
0700
0F00
0E00
1E00
3C00
3800
7000
7000
F000
F018
F01C
703C
7878
3FF0
1FE0
0FC0
ENDCHAR
STARTCHAR 00C0
ENCODING 192
SWIDTH 540 0
DWIDTH 24 0
BBX 22 40 2 0
BITMAP
070000
070000
038000
01C000
00C000
006000
000000
000000
01F000
07FC00
1FFE00
3F1F00
3C0780
7803C0
7003C0
7001C0
F001C0
F001E0
F001E0
F001E0
F001E0
F001E0
F001E0
F001E0
F001E0
F001E0
F001E0
F001E0
F001E0
F001E0
F001E0
F001E0
F001E0
F001E0
F001E0
F001E0
F001E0
FFFFFC
FFFFFC
FFFFFC
ENDCHAR
STARTCHAR 00C1
ENCODING 193
SWIDTH 540 0
DWIDTH 24 0
BBX 22 40 2 0
BITMAP
001C00
003800
003000
007000
00E000
00C000
000000
000000
01F000
07FC00
1FFE00
3F1F00
3C0780
7803C0
7003C0
7001C0
F001C0
F001E0
F001E0
F001E0
F001E0
F001E0
F001E0
F001E0
F001E0
F001E0
F001E0
F001E0
F001E0
F001E0
F001E0
F001E0
F001E0
F001E0
F001E0
F001E0
F001E0
FFFFFC
FFFFFC
FFFFFC
ENDCHAR
STARTCHAR 00C2
ENCODING 194
SWIDTH 540 0
DWIDTH 24 0
BBX 22 40 2 0
BITMAP
01E000
01F000
03B800
071C00
0E1E00
1C0E00
000000
000000
01F000
07FC00
1FFE00
3F1F00
3C0780
7803C0
7003C0
7001C0
F001C0
F001E0
F001E0
F001E0
F001E0
F001E0
F001E0
F001E0
F001E0
F001E0
F001E0
F001E0
F001E0
F001E0
F001E0
F001E0
F001E0
F001E0
F001E0
F001E0
F001E0
FFFFFC
FFFFFC
FFFFFC
ENDCHAR
STARTCHAR 00C3
ENCODING 195
SWIDTH 540 0
DWIDTH 24 0
BBX 22 39 2 0
BITMAP
0F8000
1FFC00
10FC00
000000
000000
000000
000000
01F000
07FC00
1FFE00
3F1F00
3C0780
7803C0
7003C0
7001C0
F001C0
F001E0
F001E0
F001E0
F001E0
F001E0
F001E0
F001E0
F001E0
F001E0
F001E0
F001E0
F001E0
F001E0
F001E0
F001E0
F001E0
F001E0
F001E0
F001E0
F001E0
FFFFFC
FFFFFC
FFFFFC
ENDCHAR
STARTCHAR 00C4
ENCODING 196
SWIDTH 540 0
DWIDTH 24 0
BBX 22 39 2 0
BITMAP
1E0F00
3F1F80
3F1F80
3F1F80
3E0F80
0C0700
000000
01F000
07FC00
1FFE00
3F1F00
3C0780
7803C0
7003C0
7001C0
F001C0
F001E0
F001E0
F001E0
F001E0
F001E0
F001E0
F001E0
F001E0
F001E0
F001E0
F001E0
F001E0
F001E0
F001E0
F001E0
F001E0
F001E0
F001E0
F001E0
F001E0
FFFFFC
FFFFFC
FFFFFC
ENDCHAR
STARTCHAR 00C5
ENCODING 197
SWIDTH 540 0
DWIDTH 24 0
BBX 22 43 2 0
BITMAP
004000
03F000
03B800
061C00
060C00
060C00
071800
03F800
01F000
000000
000000
01F000
07FC00
1FFE00
3F1F00
3C0780
7803C0
7003C0
7001C0
F001C0
F001E0
F001E0
F001E0
F001E0
F001E0
F001E0
F001E0
F001E0
F001E0
F001E0
F001E0
F001E0
F001E0
F001E0
F001E0
F001E0
F001E0
F001E0
F001E0
F001E0
FFFFFC
FFFFFC
FFFFFC
ENDCHAR
STARTCHAR 00C7
ENCODING 199
SWIDTH 675 0
DWIDTH 30 0
BBX 28 41 1 -9
BITMAP
0003E000
003FFE00
00FFFF80
01FE1FC0
07E003F0
078000F0
0F000070
1E000020
3C000000
3C000000
78000000
78000000
70000000
70000000
70000000
F0000000
F0000000
F0000000
70000000
70000000
70000000
78000000
38000000
3C000000
3C000000
1E000020
0F000070
07C001F0
03E003E0
01FF7FC0
00FFFF80
001FFE00
0003C000
00030000
0003C000
00006000
00003000
00103000
00386000
001FE000
000FC000
ENDCHAR
STARTCHAR 00C8
ENCODING 200
SWIDTH 472 0
DWIDTH 21 0
BBX 21 40 1 0
BITMAP
070000
070000
038000
01C000
00C000
00E000
000000
000000
000000
1FFE00
1FFE00
1FFE00
1C0000
1C0000
1C0000
1C0000
1C0000
1C0000
1C0000
1C0000
1C0000
1C0000
1C0000
FFFF80
FFFF80
FFFF80
1C0000
1C0000
1C0000
1C0000
1C0000
1C0000
1C0000
1C0000
1C0000
1C0000
1C0000
1FFFF8
1FFFF8
1FFFF8
ENDCHAR
STARTCHAR 00C9
ENCODING 201
SWIDTH 472 0
DWIDTH 21 0
BBX 21 40 1 0
BITMAP
001C00
003800
007000
007000
00E000
00C000
000000
000000
000000
1FFE00
1FFE00
1FFE00
1C0000
1C0000
1C0000
1C0000
1C0000
1C0000
1C0000
1C0000
1C0000
1C0000
1C0000
FFFF80
FFFF80
FFFF80
1C0000
1C0000
1C0000
1C0000
1C0000
1C0000
1C0000
1C0000
1C0000
1C0000
1C0000
1FFFF8
1FFFF8
1FFFF8
ENDCHAR
STARTCHAR 00CA
ENCODING 202
SWIDTH 472 0
DWIDTH 21 0
BBX 21 40 1 0
BITMAP
01E000
01F000
03B800
073C00
0E1C00
1C0E00
000000
000000
000000
1FFE00
1FFE00
1FFE00
1C0000
1C0000
1C0000
1C0000
1C0000
1C0000
1C0000
1C0000
1C0000
1C0000
1C0000
FFFF80
FFFF80
FFFF80
1C0000
1C0000
1C0000
1C0000
1C0000
1C0000
1C0000
1C0000
1C0000
1C0000
1C0000
1FFFF8
1FFFF8
1FFFF8
ENDCHAR
STARTCHAR 00CB
ENCODING 203
SWIDTH 472 0
DWIDTH 21 0
BBX 21 39 1 0
BITMAP
1E0F00
3F1F80
3F1F80
3F1F80
3E0F80
0C0600
000000
000000
1FFE00
1FFE00
1FFE00
1C0000
1C0000
1C0000
1C0000
1C0000
1C0000
1C0000
1C0000
1C0000
1C0000
1C0000
FFFF80
FFFF80
FFFF80
1C0000
1C0000
1C0000
1C0000
1C0000
1C0000
1C0000
1C0000
1C0000
1C0000
1C0000
1FFFF8
1FFFF8
1FFFF8
ENDCHAR
STARTCHAR 00CC
ENCODING 204
SWIDTH 157 0
DWIDTH 7 0
BBX 7 28 -1 0
BITMAP
E0
70
38
18
1C
0E
00
00
00
1E
1E
1E
1E
1E
1E
1E
1E
1E
1E
1E
1E
1E
1E
1E
1E
1E
1E
1E
ENDCHAR
STARTCHAR 00CD
ENCODING 205
SWIDTH 157 0
DWIDTH 7 0
BBX 7 28 2 0
BITMAP
1E
1C
38
30
60
E0
00
00
00
F0
F0
F0
F0
F0
F0
F0
F0
F0
F0
F0
F0
F0
F0
F0
F0
F0
F0
F0
ENDCHAR
STARTCHAR 00CE
ENCODING 206
SWIDTH 157 0
DWIDTH 7 0
BBX 12 28 -2 0
BITMAP
0F00
1F80
3FC0
39C0
70E0
E070
0000
0000
0000
0F00
0F00
0F00
0F00
0F00
0F00
0F00
0F00
0F00
0F00
0F00
0F00
0F00
0F00
0F00
0F00
0F00
0F00
0F00
ENDCHAR
STARTCHAR 00CF
ENCODING 207
SWIDTH 157 0
DWIDTH 7 0
BBX 16 27 -4 0
BITMAP
7C1E
7C3F
FE3F
FC3F
7C3E
380C
0000
0000
03C0
03C0
03C0
03C0
03C0
03C0
03C0
03C0
03C0
03C0
03C0
03C0
03C0
03C0
03C0
03C0
03C0
03C0
03C0
ENDCHAR
STARTCHAR 00D1
ENCODING 209
SWIDTH 495 0
DWIDTH 22 0
BBX 19 39 1 0
BITMAP
0FC000
0FFE00
087E00
000000
000000
000000
000000
400000
E000E0
F800E0
7C00E0
7E00E0
7F80E0
77C0E0
73E0E0
71F0E0
707CE0
703EE0
701FE0
700FE0
7003E0
7001E0
7000E0
7000E0
7000E0
7000E0
7000E0
7000E0
7000E0
7000E0
7000E0
7000E0
7000E0
7000E0
7000E0
7000E0
7000E0
7000E0
7000E0
ENDCHAR
STARTCHAR 00D2
ENCODING 210
SWIDTH 810 0
DWIDTH 36 0
BBX 34 41 1 -1
BITMAP
000E000000
0007000000
0003800000
0001800000
0001C00000
0000E00000
0000000000
0000000000
0003F00000
003FFF0000
00FFFFC000
01FE1FE000
03E001F000
07C0007800
0F00003C00
1E00001E00
3C00000F00
3C00000F00
7800000780
7800000780
7000000380
7000000380
70000003C0
F0000003C0
F0000003C0
F0000003C0
70000003C0
7000000380
7000000380
7800000780
3800000780
3C00000F00
3C00000F00
1E00001E00
0F00003C00
07C000F800
03F003F000
01FF3FE000
00FFFFC000
001FFE0000
0003E00000
ENDCHAR
STARTCHAR 00D3
ENCODING 211
SWIDTH 810 0
DWIDTH 36 0
BBX 34 41 1 -1
BITMAP
00003C0000
0000380000
0000700000
0000600000
0000E00000
0001C00000
0000000000
0000000000
0003F00000
003FFF0000
00FFFFC000
01FE1FE000
03E001F000
07C0007800
0F00003C00
1E00001E00
3C00000F00
3C00000F00
7800000780
7800000780
7000000380
7000000380
70000003C0
F0000003C0
F0000003C0
F0000003C0
70000003C0
7000000380
7000000380
7800000780
3800000780
3C00000F00
3C00000F00
1E00001E00
0F00003C00
07C000F800
03F003F000
01FF3FE000
00FFFFC000
001FFE0000
0003E00000
ENDCHAR
STARTCHAR 00D4
ENCODING 212
SWIDTH 810 0
DWIDTH 36 0
BBX 34 41 1 -1
BITMAP
0001E00000
0003F00000
0007F80000
0007380000
000E1C0000
001C0E0000
0000000000
0000000000
0003F00000
003FFF0000
00FFFFC000
01FE1FE000
03E001F000
07C0007800
0F00003C00
1E00001E00
3C00000F00
3C00000F00
7800000780
7800000780
7000000380
7000000380
70000003C0
F0000003C0
F0000003C0
F0000003C0
70000003C0
7000000380
7000000380
7800000780
3800000780
3C00000F00
3C00000F00
1E00001E00
0F00003C00
07C000F800
03F003F000
01FF3FE000
00FFFFC000
001FFE0000
0003E00000
ENDCHAR
STARTCHAR 00D5
ENCODING 213
SWIDTH 810 0
DWIDTH 36 0
BBX 34 40 1 -1
BITMAP
001F840000
001FFC0000
0010FC0000
0000000000
0000000000
0000000000
0000000000
0003F00000
003FFF0000
00FFFFC000
01FE1FE000
03E001F000
07C0007800
0F00003C00
1E00001E00
3C00000F00
3C00000F00
7800000780
7800000780
7000000380
7000000380
70000003C0
F0000003C0
F0000003C0
F0000003C0
70000003C0
7000000380
7000000380
7800000780
3800000780
3C00000F00
3C00000F00
1E00001E00
0F00003C00
07C000F800
03F003F000
01FF3FE000
00FFFFC000
001FFE0000
0003E00000
ENDCHAR
STARTCHAR 00D6
ENCODING 214
SWIDTH 810 0
DWIDTH 36 0
BBX 34 40 1 -1
BITMAP
003E0F0000
003E1F8000
007F1F8000
003F1F8000
003E1F0000
001C060000
0000000000
0003F00000
003FFF0000
00FFFFC000
01FE1FE000
03E001F000
07C0007800
0F00003C00
1E00001E00
3C00000F00
3C00000F00
7800000780
7800000780
7000000380
7000000380
70000003C0
F0000003C0
F0000003C0
F0000003C0
70000003C0
7000000380
7000000380
7800000780
3800000780
3C00000F00
3C00000F00
1E00001E00
0F00003C00
07C000F800
03F003F000
01FF3FE000
00FFFFC000
001FFE0000
0003E00000
ENDCHAR
STARTCHAR 00D7
ENCODING 215
SWIDTH 495 0
DWIDTH 22 0
BBX 17 18 3 6
BITMAP
400000
E00300
F00780
780F00
3C1E00
1E3C00
0F7800
07F000
03E000
03E000
07F000
0F7800
1E3C00
3C1E00
780F00
F00780
E00380
400100
ENDCHAR
STARTCHAR 00D8
ENCODING 216
SWIDTH 787 0
DWIDTH 35 0
BBX 33 33 1 0
BITMAP
0003F00C00
003FFE0E00
00FFFF9C00
03FE1FF800
07E003F000
0F8000F800
1F0001FC00
1E0003FE00
3C00079E00
7800070F00
78000E0F00
70001C0700
F000380780
F000780380
E000F00380
E001E00380
E001C00380
E003800380
E007000380
F00E000780
F01E000780
703C000700
7878000F00
38F0000F00
3CE0001E00
1FC0003C00
1F80007C00
0F8000F800
0FE003F000
1FFE3FE000
3CFFFF8000
783FFE0000
3003C00000
ENDCHAR
STARTCHAR 00D9
ENCODING 217
SWIDTH 495 0
DWIDTH 22 0
BBX 18 41 2 -1
BITMAP
0F0000
070000
038000
018000
01C000
00E000
000000
000000
000000
E001C0
E001C0
E001C0
E001C0
E001C0
E001C0
E001C0
E001C0
E001C0
E001C0
E001C0
E001C0
E001C0
E001C0
E001C0
E001C0
E001C0
E001C0
E001C0
E001C0
E001C0
E001C0
E001C0
E001C0
F003C0
7003C0
780780
7C0F80
3FFF00
1FFE00
0FFC00
01E000
ENDCHAR
STARTCHAR 00DA
ENCODING 218
SWIDTH 495 0
DWIDTH 22 0
BBX 18 41 2 -1
BITMAP
003C00
003800
007000
006000
00E000
01C000
000000
000000
000000
E001C0
E001C0
E001C0
E001C0
E001C0
E001C0
E001C0
E001C0
E001C0
E001C0
E001C0
E001C0
E001C0
E001C0
E001C0
E001C0
E001C0
E001C0
E001C0
E001C0
E001C0
E001C0
E001C0
E001C0
F003C0
7003C0
780780
7C0F80
3FFF00
1FFE00
0FFC00
01E000
ENDCHAR
STARTCHAR 00DB
ENCODING 219
SWIDTH 495 0
DWIDTH 22 0
BBX 18 41 2 -1
BITMAP
01E000
03F000
03F800
073800
0E1C00
1C0E00
000000
000000
000000
E001C0
E001C0
E001C0
E001C0
E001C0
E001C0
E001C0
E001C0
E001C0
E001C0
E001C0
E001C0
E001C0
E001C0
E001C0
E001C0
E001C0
E001C0
E001C0
E001C0
E001C0
E001C0
E001C0
E001C0
F003C0
7003C0
780780
7C0F80
3FFF00
1FFE00
0FFC00
01E000
ENDCHAR
STARTCHAR 00DC
ENCODING 220
SWIDTH 495 0
DWIDTH 22 0
BBX 18 40 2 -1
BITMAP
3E0F00
3E1F80
7F1F80
3F1F80
3E1F00
1C0600
000000
000000
E001C0
E001C0
E001C0
E001C0
E001C0
E001C0
E001C0
E001C0
E001C0
E001C0
E001C0
E001C0
E001C0
E001C0
E001C0
E001C0
E001C0
E001C0
E001C0
E001C0
E001C0
E001C0
E001C0
E001C0
F003C0
7003C0
780780
7C0F80
3FFF00
1FFE00
0FFC00
01E000
ENDCHAR
STARTCHAR 00DD
ENCODING 221
SWIDTH 472 0
DWIDTH 21 0
BBX 18 40 2 0
BITMAP
003800
003800
007000
00E000
00C000
01C000
000000
000000
000000
E001C0
E001C0
E001C0
E001C0
E001C0
E001C0
E001C0
E001C0
E001C0
E001C0
E001C0
E001C0
E001C0
E001C0
E001C0
E003C0
E003C0
F00380
700780
780F00
3FFF00
1FFE00
0FF800
01C000
01C000
01C000
01C000
01C000
01C000
01C000
01C000
ENDCHAR
STARTCHAR 00E0
ENCODING 224
SWIDTH 540 0
DWIDTH 24 0
BBX 22 40 2 0
BITMAP
070000
070000
038000
01C000
00C000
006000
000000
000000
01F000
07FC00
1FFE00
3F1F00
3C0780
7803C0
7003C0
7001C0
F001C0
F001E0
F001E0
F001E0
F001E0
F001E0
F001E0
F001E0
F001E0
F001E0
F001E0
F001E0
F001E0
F001E0
F001E0
F001E0
F001E0
F001E0
F001E0
F001E0
F001E0
FFFFFC
FFFFFC
FFFFFC
ENDCHAR
STARTCHAR 00E1
ENCODING 225
SWIDTH 540 0
DWIDTH 24 0
BBX 22 40 2 0
BITMAP
001C00
003800
003000
007000
00E000
00C000
000000
000000
01F000
07FC00
1FFE00
3F1F00
3C0780
7803C0
7003C0
7001C0
F001C0
F001E0
F001E0
F001E0
F001E0
F001E0
F001E0
F001E0
F001E0
F001E0
F001E0
F001E0
F001E0
F001E0
F001E0
F001E0
F001E0
F001E0
F001E0
F001E0
F001E0
FFFFFC
FFFFFC
FFFFFC
ENDCHAR
STARTCHAR 00E2
ENCODING 226
SWIDTH 540 0
DWIDTH 24 0
BBX 22 40 2 0
BITMAP
01E000
01F000
03B800
071C00
0E1E00
1C0E00
000000
000000
01F000
07FC00
1FFE00
3F1F00
3C0780
7803C0
7003C0
7001C0
F001C0
F001E0
F001E0
F001E0
F001E0
F001E0
F001E0
F001E0
F001E0
F001E0
F001E0
F001E0
F001E0
F001E0
F001E0
F001E0
F001E0
F001E0
F001E0
F001E0
F001E0
FFFFFC
FFFFFC
FFFFFC
ENDCHAR
STARTCHAR 00E3
ENCODING 227
SWIDTH 540 0
DWIDTH 24 0
BBX 22 39 2 0
BITMAP
0F8000
1FFC00
10FC00
000000
000000
000000
000000
01F000
07FC00
1FFE00
3F1F00
3C0780
7803C0
7003C0
7001C0
F001C0
F001E0
F001E0
F001E0
F001E0
F001E0
F001E0
F001E0
F001E0
F001E0
F001E0
F001E0
F001E0
F001E0
F001E0
F001E0
F001E0
F001E0
F001E0
F001E0
F001E0
FFFFFC
FFFFFC
FFFFFC
ENDCHAR
STARTCHAR 00E4
ENCODING 228
SWIDTH 540 0
DWIDTH 24 0
BBX 22 39 2 0
BITMAP
1E0F00
3F1F80
3F1F80
3F1F80
3E0F80
0C0700
000000
01F000
07FC00
1FFE00
3F1F00
3C0780
7803C0
7003C0
7001C0
F001C0
F001E0
F001E0
F001E0
F001E0
F001E0
F001E0
F001E0
F001E0
F001E0
F001E0
F001E0
F001E0
F001E0
F001E0
F001E0
F001E0
F001E0
F001E0
F001E0
F001E0
FFFFFC
FFFFFC
FFFFFC
ENDCHAR
STARTCHAR 00E5
ENCODING 229
SWIDTH 540 0
DWIDTH 24 0
BBX 22 43 2 0
BITMAP
004000
03F000
03B800
061C00
060C00
060C00
071800
03F800
01F000
000000
000000
01F000
07FC00
1FFE00
3F1F00
3C0780
7803C0
7003C0
7001C0
F001C0
F001E0
F001E0
F001E0
F001E0
F001E0
F001E0
F001E0
F001E0
F001E0
F001E0
F001E0
F001E0
F001E0
F001E0
F001E0
F001E0
F001E0
F001E0
F001E0
F001E0
FFFFFC
FFFFFC
FFFFFC
ENDCHAR
STARTCHAR 00E7
ENCODING 231
SWIDTH 675 0
DWIDTH 30 0
BBX 28 41 1 -9
BITMAP
0003E000
003FFE00
00FFFF80
01FE1FC0
07E003F0
078000F0
0F000070
1E000020
3C000000
3C000000
78000000
78000000
70000000
70000000
70000000
F0000000
F0000000
F0000000
70000000
70000000
70000000
78000000
38000000
3C000000
3C000000
1E000020
0F000070
07C001F0
03E003E0
01FF7FC0
00FFFF80
001FFE00
0003C000
00030000
0003C000
00006000
00003000
00103000
00386000
001FE000
000FC000
ENDCHAR
STARTCHAR 00E8
ENCODING 232
SWIDTH 472 0
DWIDTH 21 0
BBX 21 40 1 0
BITMAP
070000
070000
038000
01C000
00C000
00E000
000000
000000
000000
1FFE00
1FFE00
1FFE00
1C0000
1C0000
1C0000
1C0000
1C0000
1C0000
1C0000
1C0000
1C0000
1C0000
1C0000
FFFF80
FFFF80
FFFF80
1C0000
1C0000
1C0000
1C0000
1C0000
1C0000
1C0000
1C0000
1C0000
1C0000
1C0000
1FFFF8
1FFFF8
1FFFF8
ENDCHAR
STARTCHAR 00E9
ENCODING 233
SWIDTH 472 0
DWIDTH 21 0
BBX 21 40 1 0
BITMAP
001C00
003800
007000
007000
00E000
00C000
000000
000000
000000
1FFE00
1FFE00
1FFE00
1C0000
1C0000
1C0000
1C0000
1C0000
1C0000
1C0000
1C0000
1C0000
1C0000
1C0000
FFFF80
FFFF80
FFFF80
1C0000
1C0000
1C0000
1C0000
1C0000
1C0000
1C0000
1C0000
1C0000
1C0000
1C0000
1FFFF8
1FFFF8
1FFFF8
ENDCHAR
STARTCHAR 00EA
ENCODING 234
SWIDTH 472 0
DWIDTH 21 0
BBX 21 40 1 0
BITMAP
01E000
01F000
03B800
073C00
0E1C00
1C0E00
000000
000000
000000
1FFE00
1FFE00
1FFE00
1C0000
1C0000
1C0000
1C0000
1C0000
1C0000
1C0000
1C0000
1C0000
1C0000
1C0000
FFFF80
FFFF80
FFFF80
1C0000
1C0000
1C0000
1C0000
1C0000
1C0000
1C0000
1C0000
1C0000
1C0000
1C0000
1FFFF8
1FFFF8
1FFFF8
ENDCHAR
STARTCHAR 00EB
ENCODING 235
SWIDTH 472 0
DWIDTH 21 0
BBX 21 39 1 0
BITMAP
1E0F00
3F1F80
3F1F80
3F1F80
3E0F80
0C0600
000000
000000
1FFE00
1FFE00
1FFE00
1C0000
1C0000
1C0000
1C0000
1C0000
1C0000
1C0000
1C0000
1C0000
1C0000
1C0000
FFFF80
FFFF80
FFFF80
1C0000
1C0000
1C0000
1C0000
1C0000
1C0000
1C0000
1C0000
1C0000
1C0000
1C0000
1FFFF8
1FFFF8
1FFFF8
ENDCHAR
STARTCHAR 00EC
ENCODING 236
SWIDTH 157 0
DWIDTH 7 0
BBX 7 28 -1 0
BITMAP
E0
70
38
18
1C
0E
00
00
00
1E
1E
1E
1E
1E
1E
1E
1E
1E
1E
1E
1E
1E
1E
1E
1E
1E
1E
1E
ENDCHAR
STARTCHAR 00ED
ENCODING 237
SWIDTH 157 0
DWIDTH 7 0
BBX 7 28 2 0
BITMAP
1E
1C
38
30
60
E0
00
00
00
F0
F0
F0
F0
F0
F0
F0
F0
F0
F0
F0
F0
F0
F0
F0
F0
F0
F0
F0
ENDCHAR
STARTCHAR 00EE
ENCODING 238
SWIDTH 157 0
DWIDTH 7 0
BBX 12 28 -2 0
BITMAP
0F00
1F80
3FC0
39C0
70E0
E070
0000
0000
0000
0F00
0F00
0F00
0F00
0F00
0F00
0F00
0F00
0F00
0F00
0F00
0F00
0F00
0F00
0F00
0F00
0F00
0F00
0F00
ENDCHAR
STARTCHAR 00EF
ENCODING 239
SWIDTH 157 0
DWIDTH 7 0
BBX 16 27 -4 0
BITMAP
7C1E
7C3F
FE3F
FC3F
7C3E
380C
0000
0000
03C0
03C0
03C0
03C0
03C0
03C0
03C0
03C0
03C0
03C0
03C0
03C0
03C0
03C0
03C0
03C0
03C0
03C0
03C0
ENDCHAR
STARTCHAR 00F1
ENCODING 241
SWIDTH 495 0
DWIDTH 22 0
BBX 19 39 1 0
BITMAP
0FC000
0FFE00
087E00
000000
000000
000000
000000
400000
E000E0
F800E0
7C00E0
7E00E0
7F80E0
77C0E0
73E0E0
71F0E0
707CE0
703EE0
701FE0
700FE0
7003E0
7001E0
7000E0
7000E0
7000E0
7000E0
7000E0
7000E0
7000E0
7000E0
7000E0
7000E0
7000E0
7000E0
7000E0
7000E0
7000E0
7000E0
7000E0
ENDCHAR
STARTCHAR 00F2
ENCODING 242
SWIDTH 810 0
DWIDTH 36 0
BBX 34 41 1 -1
BITMAP
000E000000
0007000000
0003800000
0001800000
0001C00000
0000E00000
0000000000
0000000000
0003F00000
003FFF0000
00FFFFC000
01FE1FE000
03E001F000
07C0007800
0F00003C00
1E00001E00
3C00000F00
3C00000F00
7800000780
7800000780
7000000380
7000000380
70000003C0
F0000003C0
F0000003C0
F0000003C0
70000003C0
7000000380
7000000380
7800000780
3800000780
3C00000F00
3C00000F00
1E00001E00
0F00003C00
07C000F800
03F003F000
01FF3FE000
00FFFFC000
001FFE0000
0003E00000
ENDCHAR
STARTCHAR 00F3
ENCODING 243
SWIDTH 810 0
DWIDTH 36 0
BBX 34 41 1 -1
BITMAP
00003C0000
0000380000
0000700000
0000600000
0000E00000
0001C00000
0000000000
0000000000
0003F00000
003FFF0000
00FFFFC000
01FE1FE000
03E001F000
07C0007800
0F00003C00
1E00001E00
3C00000F00
3C00000F00
7800000780
7800000780
7000000380
7000000380
70000003C0
F0000003C0
F0000003C0
F0000003C0
70000003C0
7000000380
7000000380
7800000780
3800000780
3C00000F00
3C00000F00
1E00001E00
0F00003C00
07C000F800
03F003F000
01FF3FE000
00FFFFC000
001FFE0000
0003E00000
ENDCHAR
STARTCHAR 00F4
ENCODING 244
SWIDTH 810 0
DWIDTH 36 0
BBX 34 41 1 -1
BITMAP
0001E00000
0003F00000
0007F80000
0007380000
000E1C0000
001C0E0000
0000000000
0000000000
0003F00000
003FFF0000
00FFFFC000
01FE1FE000
03E001F000
07C0007800
0F00003C00
1E00001E00
3C00000F00
3C00000F00
7800000780
7800000780
7000000380
7000000380
70000003C0
F0000003C0
F0000003C0
F0000003C0
70000003C0
7000000380
7000000380
7800000780
3800000780
3C00000F00
3C00000F00
1E00001E00
0F00003C00
07C000F800
03F003F000
01FF3FE000
00FFFFC000
001FFE0000
0003E00000
ENDCHAR
STARTCHAR 00F5
ENCODING 245
SWIDTH 810 0
DWIDTH 36 0
BBX 34 40 1 -1
BITMAP
001F840000
001FFC0000
0010FC0000
0000000000
0000000000
0000000000
0000000000
0003F00000
003FFF0000
00FFFFC000
01FE1FE000
03E001F000
07C0007800
0F00003C00
1E00001E00
3C00000F00
3C00000F00
7800000780
7800000780
7000000380
7000000380
70000003C0
F0000003C0
F0000003C0
F0000003C0
70000003C0
7000000380
7000000380
7800000780
3800000780
3C00000F00
3C00000F00
1E00001E00
0F00003C00
07C000F800
03F003F000
01FF3FE000
00FFFFC000
001FFE0000
0003E00000
ENDCHAR
STARTCHAR 00F6
ENCODING 246
SWIDTH 810 0
DWIDTH 36 0
BBX 34 40 1 -1
BITMAP
003E0F0000
003E1F8000
007F1F8000
003F1F8000
003E1F0000
001C060000
0000000000
0003F00000
003FFF0000
00FFFFC000
01FE1FE000
03E001F000
07C0007800
0F00003C00
1E00001E00
3C00000F00
3C00000F00
7800000780
7800000780
7000000380
7000000380
70000003C0
F0000003C0
F0000003C0
F0000003C0
70000003C0
7000000380
7000000380
7800000780
3800000780
3C00000F00
3C00000F00
1E00001E00
0F00003C00
07C000F800
03F003F000
01FF3FE000
00FFFFC000
001FFE0000
0003E00000
ENDCHAR
STARTCHAR 00F7
ENCODING 247
SWIDTH 540 0
DWIDTH 24 0
BBX 20 19 2 5
BITMAP
006000
00F000
00F800
00F800
00F000
006000
000000
000000
FFFFF0
FFFFF0
FFFFF0
000000
000000
000000
00F000
00F800
00F800
00F800
00F000
ENDCHAR
STARTCHAR 00F8
ENCODING 248
SWIDTH 787 0
DWIDTH 35 0
BBX 33 33 1 0
BITMAP
0003F00C00
003FFE0E00
00FFFF9C00
03FE1FF800
07E003F000
0F8000F800
1F0001FC00
1E0003FE00
3C00079E00
7800070F00
78000E0F00
70001C0700
F000380780
F000780380
E000F00380
E001E00380
E001C00380
E003800380
E007000380
F00E000780
F01E000780
703C000700
7878000F00
38F0000F00
3CE0001E00
1FC0003C00
1F80007C00
0F8000F800
0FE003F000
1FFE3FE000
3CFFFF8000
783FFE0000
3003C00000
ENDCHAR
STARTCHAR 00F9
ENCODING 249
SWIDTH 495 0
DWIDTH 22 0
BBX 18 41 2 -1
BITMAP
0F0000
070000
038000
018000
01C000
00E000
000000
000000
000000
E001C0
E001C0
E001C0
E001C0
E001C0
E001C0
E001C0
E001C0
E001C0
E001C0
E001C0
E001C0
E001C0
E001C0
E001C0
E001C0
E001C0
E001C0
E001C0
E001C0
E001C0
E001C0
E001C0
E001C0
F003C0
7003C0
780780
7C0F80
3FFF00
1FFE00
0FFC00
01E000
ENDCHAR
STARTCHAR 00FA
ENCODING 250
SWIDTH 495 0
DWIDTH 22 0
BBX 18 41 2 -1
BITMAP
003C00
003800
007000
006000
00E000
01C000
000000
000000
000000
E001C0
E001C0
E001C0
E001C0
E001C0
E001C0
E001C0
E001C0
E001C0
E001C0
E001C0
E001C0
E001C0
E001C0
E001C0
E001C0
E001C0
E001C0
E001C0
E001C0
E001C0
E001C0
E001C0
E001C0
F003C0
7003C0
780780
7C0F80
3FFF00
1FFE00
0FFC00
01E000
ENDCHAR
STARTCHAR 00FB
ENCODING 251
SWIDTH 495 0
DWIDTH 22 0
BBX 18 41 2 -1
BITMAP
01E000
03F000
03F800
073800
0E1C00
1C0E00
000000
000000
000000
E001C0
E001C0
E001C0
E001C0
E001C0
E001C0
E001C0
E001C0
E001C0
E001C0
E001C0
E001C0
E001C0
E001C0
E001C0
E001C0
E001C0
E001C0
E001C0
E001C0
E001C0
E001C0
E001C0
E001C0
F003C0
7003C0
780780
7C0F80
3FFF00
1FFE00
0FFC00
01E000
ENDCHAR
STARTCHAR 00FC
ENCODING 252
SWIDTH 495 0
DWIDTH 22 0
BBX 18 40 2 -1
BITMAP
3E0F00
3E1F80
7F1F80
3F1F80
3E1F00
1C0600
000000
000000
E001C0
E001C0
E001C0
E001C0
E001C0
E001C0
E001C0
E001C0
E001C0
E001C0
E001C0
E001C0
E001C0
E001C0
E001C0
E001C0
E001C0
E001C0
E001C0
E001C0
E001C0
E001C0
E001C0
E001C0
F003C0
7003C0
780780
7C0F80
3FFF00
1FFE00
0FFC00
01E000
ENDCHAR
STARTCHAR 00FD
ENCODING 253
SWIDTH 472 0
DWIDTH 21 0
BBX 18 40 2 0
BITMAP
003800
003800
007000
00E000
00C000
01C000
000000
000000
000000
E001C0
E001C0
E001C0
E001C0
E001C0
E001C0
E001C0
E001C0
E001C0
E001C0
E001C0
E001C0
E001C0
E001C0
E001C0
E003C0
E003C0
F00380
700780
780F00
3FFF00
1FFE00
0FF800
01C000
01C000
01C000
01C000
01C000
01C000
01C000
01C000
ENDCHAR
STARTCHAR 00FF
ENCODING 255
SWIDTH 472 0
DWIDTH 21 0
BBX 18 39 2 0
BITMAP
3C0F00
7E1F80
7E1F80
7E1F80
3E1F00
1C0600
000000
000000
E001C0
E001C0
E001C0
E001C0
E001C0
E001C0
E001C0
E001C0
E001C0
E001C0
E001C0
E001C0
E001C0
E001C0
E001C0
E003C0
E003C0
F00380
700780
780F00
3FFF00
1FFE00
0FF800
01C000
01C000
01C000
01C000
01C000
01C000
01C000
01C000
ENDCHAR
STARTCHAR 0100
ENCODING 256
SWIDTH 540 0
DWIDTH 24 0
BBX 22 38 2 0
BITMAP
1FFF00
1FFF00
1FFF00
000000
000000
000000
01F000
07FC00
1FFE00
3F1F00
3C0780
7803C0
7003C0
7001C0
F001C0
F001E0
F001E0
F001E0
F001E0
F001E0
F001E0
F001E0
F001E0
F001E0
F001E0
F001E0
F001E0
F001E0
F001E0
F001E0
F001E0
F001E0
F001E0
F001E0
F001E0
FFFFFC
FFFFFC
FFFFFC
ENDCHAR
STARTCHAR 0101
ENCODING 257
SWIDTH 540 0
DWIDTH 24 0
BBX 22 38 2 0
BITMAP
1FFF00
1FFF00
1FFF00
000000
000000
000000
01F000
07FC00
1FFE00
3F1F00
3C0780
7803C0
7003C0
7001C0
F001C0
F001E0
F001E0
F001E0
F001E0
F001E0
F001E0
F001E0
F001E0
F001E0
F001E0
F001E0
F001E0
F001E0
F001E0
F001E0
F001E0
F001E0
F001E0
F001E0
F001E0
FFFFFC
FFFFFC
FFFFFC
ENDCHAR
STARTCHAR 0102
ENCODING 258
SWIDTH 540 0
DWIDTH 24 0
BBX 22 40 2 0
BITMAP
1C0600
0C0600
0C0E00
0E1C00
07FC00
03F000
000000
000000
01F000
07FC00
1FFE00
3F1F00
3C0780
7803C0
7003C0
7001C0
F001C0
F001E0
F001E0
F001E0
F001E0
F001E0
F001E0
F001E0
F001E0
F001E0
F001E0
F001E0
F001E0
F001E0
F001E0
F001E0
F001E0
F001E0
F001E0
F001E0
F001E0
FFFFFC
FFFFFC
FFFFFC
ENDCHAR
STARTCHAR 0103
ENCODING 259
SWIDTH 540 0
DWIDTH 24 0
BBX 22 40 2 0
BITMAP
1C0600
0C0600
0C0E00
0E1C00
07FC00
03F000
000000
000000
01F000
07FC00
1FFE00
3F1F00
3C0780
7803C0
7003C0
7001C0
F001C0
F001E0
F001E0
F001E0
F001E0
F001E0
F001E0
F001E0
F001E0
F001E0
F001E0
F001E0
F001E0
F001E0
F001E0
F001E0
F001E0
F001E0
F001E0
F001E0
F001E0
FFFFFC
FFFFFC
FFFFFC
ENDCHAR
STARTCHAR 0104
ENCODING 260
SWIDTH 540 0
DWIDTH 24 0
BBX 23 40 2 -8
BITMAP
01F000
07FC00
1FFE00
3F1F00
3C0780
7803C0
7003C0
7001C0
F001C0
F001E0
F001E0
F001E0
F001E0
F001E0
F001E0
F001E0
F001E0
F001E0
F001E0
F001E0
F001E0
F001E0
F001E0
F001E0
F001E0
F001E0
F001E0
F001E0
F001E0
FFFFFC
FFFFFC
FFFFFC
000070
0000E0
0000C0
000180
000180
0000C6
0000FE
000078
ENDCHAR
STARTCHAR 0105
ENCODING 261
SWIDTH 540 0
DWIDTH 24 0
BBX 23 40 2 -8
BITMAP
01F000
07FC00
1FFE00
3F1F00
3C0780
7803C0
7003C0
7001C0
F001C0
F001E0
F001E0
F001E0
F001E0
F001E0
F001E0
F001E0
F001E0
F001E0
F001E0
F001E0
F001E0
F001E0
F001E0
F001E0
F001E0
F001E0
F001E0
F001E0
F001E0
FFFFFC
FFFFFC
FFFFFC
000070
0000E0
0000C0
000180
000180
0000C6
0000FE
000078
ENDCHAR
STARTCHAR 0106
ENCODING 262
SWIDTH 675 0
DWIDTH 30 0
BBX 28 41 1 -1
BITMAP
00003800
00003800
00007000
0000E000
0000C000
00018000
00000000
00000000
0003E000
003FFE00
00FFFF80
01FE1FC0
07E003F0
078000F0
0F000070
1E000020
3C000000
3C000000
78000000
78000000
70000000
70000000
70000000
F0000000
F0000000
F0000000
70000000
70000000
70000000
78000000
78000000
3C000000
3C000000
1E000020
0F000070
07C001F0
03E003E0
01FF7FC0
00FFFF80
003FFE00
0001C000
ENDCHAR
STARTCHAR 0107
ENCODING 263
SWIDTH 675 0
DWIDTH 30 0
BBX 28 41 1 -1
BITMAP
00003800
00003800
00007000
0000E000
0000C000
00018000
00000000
00000000
0003E000
003FFE00
00FFFF80
01FE1FC0
07E003F0
078000F0
0F000070
1E000020
3C000000
3C000000
78000000
78000000
70000000
70000000
70000000
F0000000
F0000000
F0000000
70000000
70000000
70000000
78000000
78000000
3C000000
3C000000
1E000020
0F000070
07C001F0
03E003E0
01FF7FC0
00FFFF80
003FFE00
0001C000
ENDCHAR
STARTCHAR 010A
ENCODING 266
SWIDTH 675 0
DWIDTH 30 0
BBX 28 41 1 0
BITMAP
0001E000
0003F000
0003F000
0003F000
0001E000
00004000
00000000
00000000
0003E000
003FFE00
00FFFF80
01FE1FC0
07E003F0
078000F0
0F000070
1E000020
3C000000
3C000000
78000000
78000000
70000000
70000000
70000000
F0000000
F0000000
F0000000
70000000
70000000
70000000
78000000
78000000
3C000000
3C000000
1E000020
0F000070
07C001F0
03E003E0
01FF7FC0
00FFFF80
003FFE00
0001C000
ENDCHAR
STARTCHAR 010B
ENCODING 267
SWIDTH 675 0
DWIDTH 30 0
BBX 28 41 1 0
BITMAP
0001E000
0003F000
0003F000
0003F000
0001E000
00004000
00000000
00000000
0003E000
003FFE00
00FFFF80
01FE1FC0
07E003F0
078000F0
0F000070
1E000020
3C000000
3C000000
78000000
78000000
70000000
70000000
70000000
F0000000
F0000000
F0000000
70000000
70000000
70000000
78000000
78000000
3C000000
3C000000
1E000020
0F000070
07C001F0
03E003E0
01FF7FC0
00FFFF80
003FFE00
0001C000
ENDCHAR
STARTCHAR 010C
ENCODING 268
SWIDTH 675 0
DWIDTH 30 0
BBX 28 41 1 -1
BITMAP
001C0E00
000E1C00
000E3800
00077000
0003F000
0001E000
00000000
00000000
0003E000
003FFE00
00FFFF80
01FE1FC0
07E003F0
078000F0
0F000070
1E000020
3C000000
3C000000
78000000
78000000
70000000
70000000
70000000
F0000000
F0000000
F0000000
70000000
70000000
70000000
78000000
78000000
3C000000
3C000000
1E000020
0F000070
07C001F0
03E003E0
01FF7FC0
00FFFF80
003FFE00
0001C000
ENDCHAR
STARTCHAR 010D
ENCODING 269
SWIDTH 675 0
DWIDTH 30 0
BBX 28 41 1 -1
BITMAP
001C0E00
000E1C00
000E3800
00077000
0003F000
0001E000
00000000
00000000
0003E000
003FFE00
00FFFF80
01FE1FC0
07E003F0
078000F0
0F000070
1E000020
3C000000
3C000000
78000000
78000000
70000000
70000000
70000000
F0000000
F0000000
F0000000
70000000
70000000
70000000
78000000
78000000
3C000000
3C000000
1E000020
0F000070
07C001F0
03E003E0
01FF7FC0
00FFFF80
003FFE00
0001C000
ENDCHAR
STARTCHAR 010E
ENCODING 270
SWIDTH 630 0
DWIDTH 28 0
BBX 25 40 2 0
BITMAP
0E070000
070E0000
079C0000
03B80000
01F80000
00F00000
00000000
00000000
00000000
FFF80000
FFFF0000
FFFFC000
F00FE000
F001F800
F0007C00
F0003C00
F0001E00
F0000E00
F0000F00
F0000700
F0000700
F0000780
F0000780
F0000780
F0000780
F0000780
F0000780
F0000780
F0000700
F0000700
F0000F00
F0000E00
F0001E00
F0003C00
F0007C00
F001F800
F00FE000
FFFFC000
FFFF0000
FFF80000
ENDCHAR
STARTCHAR 010F
ENCODING 271
SWIDTH 630 0
DWIDTH 28 0
BBX 25 40 2 0
BITMAP
0E070000
070E0000
079C0000
03B80000
01F80000
00F00000
00000000
00000000
00000000
FFF80000
FFFF0000
FFFFC000
F00FE000
F001F800
F0007C00
F0003C00
F0001E00
F0000E00
F0000F00
F0000700
F0000700
F0000780
F0000780
F0000780
F0000780
F0000780
F0000780
F0000780
F0000700
F0000700
F0000F00
F0000E00
F0001E00
F0003C00
F0007C00
F001F800
F00FE000
FFFFC000
FFFF0000
FFF80000
ENDCHAR
STARTCHAR 0110
ENCODING 272
SWIDTH 675 0
DWIDTH 30 0
BBX 28 31 1 0
BITMAP
1FFF0000
1FFFE000
1FFFF800
1C01FC00
1C003E00
1C000F00
1C000780
1C0003C0
1C0003C0
1C0001E0
1C0001E0
1C0000E0
1C0000E0
1C0000E0
FFFE00F0
FFFE00F0
FFFE00F0
1C0000E0
1C0000E0
1C0000E0
1C0001E0
1C0001E0
1C0003C0
1C0003C0
1C000780
1C001F00
1C003E00
1C03FC00
1FFFF800
1FFFE000
1FFF0000
ENDCHAR
STARTCHAR 0111
ENCODING 273
SWIDTH 675 0
DWIDTH 30 0
BBX 28 31 1 0
BITMAP
1FFF0000
1FFFE000
1FFFF800
1C01FC00
1C003E00
1C000F00
1C000780
1C0003C0
1C0003C0
1C0001E0
1C0001E0
1C0000E0
1C0000E0
1C0000E0
FFFE00F0
FFFE00F0
FFFE00F0
1C0000E0
1C0000E0
1C0000E0
1C0001E0
1C0001E0
1C0003C0
1C0003C0
1C000780
1C001F00
1C003E00
1C03FC00
1FFFF800
1FFFE000
1FFF0000
ENDCHAR
STARTCHAR 0112
ENCODING 274
SWIDTH 472 0
DWIDTH 21 0
BBX 21 38 1 0
BITMAP
1FFF00
1FFF00
1FFF00
000000
000000
000000
000000
1FFE00
1FFE00
1FFE00
1C0000
1C0000
1C0000
1C0000
1C0000
1C0000
1C0000
1C0000
1C0000
1C0000
1C0000
FFFF80
FFFF80
FFFF80
1C0000
1C0000
1C0000
1C0000
1C0000
1C0000
1C0000
1C0000
1C0000
1C0000
1C0000
1FFFF8
1FFFF8
1FFFF8
ENDCHAR
STARTCHAR 0113
ENCODING 275
SWIDTH 472 0
DWIDTH 21 0
BBX 21 38 1 0
BITMAP
1FFF00
1FFF00
1FFF00
000000
000000
000000
000000
1FFE00
1FFE00
1FFE00
1C0000
1C0000
1C0000
1C0000
1C0000
1C0000
1C0000
1C0000
1C0000
1C0000
1C0000
FFFF80
FFFF80
FFFF80
1C0000
1C0000
1C0000
1C0000
1C0000
1C0000
1C0000
1C0000
1C0000
1C0000
1C0000
1FFFF8
1FFFF8
1FFFF8
ENDCHAR
STARTCHAR 0116
ENCODING 278
SWIDTH 472 0
DWIDTH 21 0
BBX 21 41 1 0
BITMAP
004000
01F000
01F000
03F800
01F000
01F000
004000
000000
000000
000000
1FFE00
1FFE00
1FFE00
1C0000
1C0000
1C0000
1C0000
1C0000
1C0000
1C0000
1C0000
1C0000
1C0000
1C0000
FFFF80
FFFF80
FFFF80
1C0000
1C0000
1C0000
1C0000
1C0000
1C0000
1C0000
1C0000
1C0000
1C0000
1C0000
1FFFF8
1FFFF8
1FFFF8
ENDCHAR
STARTCHAR 0117
ENCODING 279
SWIDTH 472 0
DWIDTH 21 0
BBX 21 41 1 0
BITMAP
004000
01F000
01F000
03F800
01F000
01F000
004000
000000
000000
000000
1FFE00
1FFE00
1FFE00
1C0000
1C0000
1C0000
1C0000
1C0000
1C0000
1C0000
1C0000
1C0000
1C0000
1C0000
FFFF80
FFFF80
FFFF80
1C0000
1C0000
1C0000
1C0000
1C0000
1C0000
1C0000
1C0000
1C0000
1C0000
1C0000
1FFFF8
1FFFF8
1FFFF8
ENDCHAR
STARTCHAR 0118
ENCODING 280
SWIDTH 472 0
DWIDTH 21 0
BBX 22 39 1 -8
BITMAP
1FFE00
1FFE00
1FFE00
1C0000
1C0000
1C0000
1C0000
1C0000
1C0000
1C0000
1C0000
1C0000
1C0000
1C0000
FFFF80
FFFF80
FFFF80
1C0000
1C0000
1C0000
1C0000
1C0000
1C0000
1C0000
1C0000
1C0000
1C0000
1C0000
1FFFF8
1FFFF8
1FFFF8
0000E0
000180
000380
000300
000300
00038C
0001FC
0000F0
ENDCHAR
STARTCHAR 0119
ENCODING 281
SWIDTH 472 0
DWIDTH 21 0
BBX 22 39 1 -8
BITMAP
1FFE00
1FFE00
1FFE00
1C0000
1C0000
1C0000
1C0000
1C0000
1C0000
1C0000
1C0000
1C0000
1C0000
1C0000
FFFF80
FFFF80
FFFF80
1C0000
1C0000
1C0000
1C0000
1C0000
1C0000
1C0000
1C0000
1C0000
1C0000
1C0000
1FFFF8
1FFFF8
1FFFF8
0000E0
000180
000380
000300
000300
00038C
0001FC
0000F0
ENDCHAR
STARTCHAR 011A
ENCODING 282
SWIDTH 472 0
DWIDTH 21 0
BBX 21 40 1 0
BITMAP
1C0E00
0E1C00
071C00
03B800
03F000
01E000
000000
000000
000000
1FFE00
1FFE00
1FFE00
1C0000
1C0000
1C0000
1C0000
1C0000
1C0000
1C0000
1C0000
1C0000
1C0000
1C0000
FFFF80
FFFF80
FFFF80
1C0000
1C0000
1C0000
1C0000
1C0000
1C0000
1C0000
1C0000
1C0000
1C0000
1C0000
1FFFF8
1FFFF8
1FFFF8
ENDCHAR
STARTCHAR 011B
ENCODING 283
SWIDTH 472 0
DWIDTH 21 0
BBX 21 40 1 0
BITMAP
1C0E00
0E1C00
071C00
03B800
03F000
01E000
000000
000000
000000
1FFE00
1FFE00
1FFE00
1C0000
1C0000
1C0000
1C0000
1C0000
1C0000
1C0000
1C0000
1C0000
1C0000
1C0000
FFFF80
FFFF80
FFFF80
1C0000
1C0000
1C0000
1C0000
1C0000
1C0000
1C0000
1C0000
1C0000
1C0000
1C0000
1FFFF8
1FFFF8
1FFFF8
ENDCHAR
STARTCHAR 011E
ENCODING 286
SWIDTH 832 0
DWIDTH 37 0
BBX 36 41 1 -1
BITMAP
00180E0000
00180E0000
001C0C0000
000E1C0000
0007F80000
0003F00000
0000000000
0000000000
0003E00000
003FFE0000
00FFFF8000
01FE1FE000
03E003F000
07C000F800
0F00007000
1E00002000
3C00000000
3C00000000
7800000000
7800000000
7000000000
7000000000
7000000000
F000FFFFF0
F000FFFFF0
F000FFFFF0
7000000780
7000000780
7000000780
7800000700
3800000F00
3C00000E00
3C00001E00
1E00003C00
0F00007C00
07C000F800
03F003F000
01FF3FE000
00FFFF8000
001FFE0000
0003E00000
ENDCHAR
STARTCHAR 011F
ENCODING 287
SWIDTH 832 0
DWIDTH 37 0
BBX 36 41 1 -1
BITMAP
00180E0000
00180E0000
001C0C0000
000E1C0000
0007F80000
0003F00000
0000000000
0000000000
0003E00000
003FFE0000
00FFFF8000
01FE1FE000
03E003F000
07C000F800
0F00007000
1E00002000
3C00000000
3C00000000
7800000000
7800000000
7000000000
7000000000
7000000000
F000FFFFF0
F000FFFFF0
F000FFFFF0
7000000780
7000000780
7000000780
7800000700
3800000F00
3C00000E00
3C00001E00
1E00003C00
0F00007C00
07C000F800
03F003F000
01FF3FE000
00FFFF8000
001FFE0000
0003E00000
ENDCHAR
STARTCHAR 0120
ENCODING 288
SWIDTH 832 0
DWIDTH 37 0
BBX 36 41 1 0
BITMAP
0001E00000
0003F00000
0003F00000
0003F00000
0001E00000
0000400000
0000000000
0000000000
0003E00000
003FFE0000
00FFFF8000
01FE1FE000
03E003F000
07C000F800
0F00007000
1E00002000
3C00000000
3C00000000
7800000000
7800000000
7000000000
7000000000
7000000000
F000FFFFF0
F000FFFFF0
F000FFFFF0
7000000780
7000000780
7000000780
7800000700
3800000F00
3C00000E00
3C00001E00
1E00003C00
0F00007C00
07C000F800
03F003F000
01FF3FE000
00FFFF8000
001FFE0000
0003E00000
ENDCHAR
STARTCHAR 0121
ENCODING 289
SWIDTH 832 0
DWIDTH 37 0
BBX 36 41 1 0
BITMAP
0001E00000
0003F00000
0003F00000
0003F00000
0001E00000
0000400000
0000000000
0000000000
0003E00000
003FFE0000
00FFFF8000
01FE1FE000
03E003F000
07C000F800
0F00007000
1E00002000
3C00000000
3C00000000
7800000000
7800000000
7000000000
7000000000
7000000000
F000FFFFF0
F000FFFFF0
F000FFFFF0
7000000780
7000000780
7000000780
7800000700
3800000F00
3C00000E00
3C00001E00
1E00003C00
0F00007C00
07C000F800
03F003F000
01FF3FE000
00FFFF8000
001FFE0000
0003E00000
ENDCHAR
STARTCHAR 0124
ENCODING 292
SWIDTH 540 0
DWIDTH 24 0
BBX 21 40 1 0
BITMAP
003C00
007E00
007F00
00E700
01C380
0381C0
000000
000000
000000
1C0038
1C0038
1C0038
1C0038
1C0038
1C0038
1C0038
1C0038
1C0038
1C0038
1C0038
1C0038
FFFFF8
FFFFF8
FFFFF8
1C0038
1C0038
1C0038
1C0038
1C0038
1C0038
1C0038
1C0038
1C0038
1C0038
1C0038
1C0038
1C0038
1C0038
1C0038
1C0038
ENDCHAR
STARTCHAR 0125
ENCODING 293
SWIDTH 540 0
DWIDTH 24 0
BBX 21 40 1 0
BITMAP
003C00
007E00
007F00
00E700
01C380
0381C0
000000
000000
000000
1C0038
1C0038
1C0038
1C0038
1C0038
1C0038
1C0038
1C0038
1C0038
1C0038
1C0038
1C0038
FFFFF8
FFFFF8
FFFFF8
1C0038
1C0038
1C0038
1C0038
1C0038
1C0038
1C0038
1C0038
1C0038
1C0038
1C0038
1C0038
1C0038
1C0038
1C0038
1C0038
ENDCHAR
STARTCHAR 0128
ENCODING 296
SWIDTH 157 0
DWIDTH 7 0
BBX 11 27 -2 0
BITMAP
F820
FFE0
87E0
0000
0000
0000
0000
0000
0F00
0F00
0F00
0F00
0F00
0F00
0F00
0F00
0F00
0F00
0F00
0F00
0F00
0F00
0F00
0F00
0F00
0F00
0F00
ENDCHAR
STARTCHAR 0129
ENCODING 297
SWIDTH 157 0
DWIDTH 7 0
BBX 11 27 -2 0
BITMAP
F820
FFE0
87E0
0000
0000
0000
0000
0000
0F00
0F00
0F00
0F00
0F00
0F00
0F00
0F00
0F00
0F00
0F00
0F00
0F00
0F00
0F00
0F00
0F00
0F00
0F00
ENDCHAR
STARTCHAR 012A
ENCODING 298
SWIDTH 157 0
DWIDTH 7 0
BBX 12 26 -2 0
BITMAP
FFF0
FFF0
FFF0
0000
0000
0000
0000
0F00
0F00
0F00
0F00
0F00
0F00
0F00
0F00
0F00
0F00
0F00
0F00
0F00
0F00
0F00
0F00
0F00
0F00
0F00
ENDCHAR
STARTCHAR 012B
ENCODING 299
SWIDTH 157 0
DWIDTH 7 0
BBX 12 26 -2 0
BITMAP
FFF0
FFF0
FFF0
0000
0000
0000
0000
0F00
0F00
0F00
0F00
0F00
0F00
0F00
0F00
0F00
0F00
0F00
0F00
0F00
0F00
0F00
0F00
0F00
0F00
0F00
ENDCHAR
STARTCHAR 012E
ENCODING 302
SWIDTH 157 0
DWIDTH 7 0
BBX 10 42 -1 -7
BITMAP
0800
0C00
0C00
FFC0
3F00
1E00
3E00
3300
4100
0000
0000
0000
0000
0000
0000
1C00
1C00
1C00
1C00
1C00
1C00
1C00
1C00
1C00
1C00
1C00
1C00
1C00
1C00
1C00
1C00
1C00
1C00
1C00
3800
6000
C000
C000
C000
E300
7F00
3C00
ENDCHAR
STARTCHAR 012F
ENCODING 303
SWIDTH 157 0
DWIDTH 7 0
BBX 10 42 -1 -7
BITMAP
0800
0C00
0C00
FFC0
3F00
1E00
3E00
3300
4100
0000
0000
0000
0000
0000
0000
1C00
1C00
1C00
1C00
1C00
1C00
1C00
1C00
1C00
1C00
1C00
1C00
1C00
1C00
1C00
1C00
1C00
1C00
1C00
3800
6000
C000
C000
C000
E300
7F00
3C00
ENDCHAR
STARTCHAR 0130
ENCODING 304
SWIDTH 157 0
DWIDTH 7 0
BBX 6 29 1 0
BITMAP
10
7C
FC
FC
FC
7C
00
00
00
00
78
78
78
78
78
78
78
78
78
78
78
78
78
78
78
78
78
78
78
ENDCHAR
STARTCHAR 0139
ENCODING 313
SWIDTH 405 0
DWIDTH 18 0
BBX 16 40 2 0
BITMAP
1E00
1C00
3800
3000
6000
E000
0000
0000
0000
F000
F000
F000
F000
F000
F000
F000
F000
F000
F000
F000
F000
F000
F000
F000
F000
F000
F000
F000
F000
F000
F000
F000
F000
F000
F000
F000
F000
FFFF
FFFF
FFFF
ENDCHAR
STARTCHAR 013A
ENCODING 314
SWIDTH 405 0
DWIDTH 18 0
BBX 16 40 2 0
BITMAP
1E00
1C00
3800
3000
6000
E000
0000
0000
0000
F000
F000
F000
F000
F000
F000
F000
F000
F000
F000
F000
F000
F000
F000
F000
F000
F000
F000
F000
F000
F000
F000
F000
F000
F000
F000
F000
F000
FFFF
FFFF
FFFF
ENDCHAR
STARTCHAR 013D
ENCODING 317
SWIDTH 405 0
DWIDTH 18 0
BBX 20 40 -2 0
BITMAP
E07000
70E000
39C000
3FC000
1F8000
0F0000
000000
000000
000000
0F0000
0F0000
0F0000
0F0000
0F0000
0F0000
0F0000
0F0000
0F0000
0F0000
0F0000
0F0000
0F0000
0F0000
0F0000
0F0000
0F0000
0F0000
0F0000
0F0000
0F0000
0F0000
0F0000
0F0000
0F0000
0F0000
0F0000
0F0000
0FFFF0
0FFFF0
0FFFF0
ENDCHAR
STARTCHAR 013E
ENCODING 318
SWIDTH 405 0
DWIDTH 18 0
BBX 20 40 -2 0
BITMAP
E07000
70E000
39C000
3FC000
1F8000
0F0000
000000
000000
000000
0F0000
0F0000
0F0000
0F0000
0F0000
0F0000
0F0000
0F0000
0F0000
0F0000
0F0000
0F0000
0F0000
0F0000
0F0000
0F0000
0F0000
0F0000
0F0000
0F0000
0F0000
0F0000
0F0000
0F0000
0F0000
0F0000
0F0000
0F0000
0FFFF0
0FFFF0
0FFFF0
ENDCHAR
STARTCHAR 0141
ENCODING 321
SWIDTH 450 0
DWIDTH 20 0
BBX 20 31 0 0
BITMAP
0F0000
0F0000
0F0000
0F0000
0F0000
0F0000
0F0000
0F0000
0F0000
0F0000
0F0000
0F1800
0F7800
0FF800
0FE000
0F8000
3F0000
FF0000
6F0000
0F0000
0F0000
0F0000
0F0000
0F0000
0F0000
0F0000
0F0000
0F0000
0FFFF0
0FFFF0
0FFFF0
ENDCHAR
STARTCHAR 0142
ENCODING 322
SWIDTH 450 0
DWIDTH 20 0
BBX 20 31 0 0
BITMAP
0F0000
0F0000
0F0000
0F0000
0F0000
0F0000
0F0000
0F0000
0F0000
0F0000
0F0000
0F1800
0F7800
0FF800
0FE000
0F8000
3F0000
FF0000
6F0000
0F0000
0F0000
0F0000
0F0000
0F0000
0F0000
0F0000
0F0000
0F0000
0FFFF0
0FFFF0
0FFFF0
ENDCHAR
STARTCHAR 0143
ENCODING 323
SWIDTH 495 0
DWIDTH 22 0
BBX 19 40 1 0
BITMAP
000E00
001C00
003800
003000
007000
00E000
000000
000000
400000
E000E0
F800E0
7C00E0
7E00E0
7F80E0
77C0E0
73E0E0
71F0E0
707CE0
703EE0
701FE0
700FE0
7003E0
7001E0
7000E0
7000E0
7000E0
7000E0
7000E0
7000E0
7000E0
7000E0
7000E0
7000E0
7000E0
7000E0
7000E0
7000E0
7000E0
7000E0
7000E0
ENDCHAR
STARTCHAR 0144
ENCODING 324
SWIDTH 495 0
DWIDTH 22 0
BBX 19 40 1 0
BITMAP
000E00
001C00
003800
003000
007000
00E000
000000
000000
400000
E000E0
F800E0
7C00E0
7E00E0
7F80E0
77C0E0
73E0E0
71F0E0
707CE0
703EE0
701FE0
700FE0
7003E0
7001E0
7000E0
7000E0
7000E0
7000E0
7000E0
7000E0
7000E0
7000E0
7000E0
7000E0
7000E0
7000E0
7000E0
7000E0
7000E0
7000E0
7000E0
ENDCHAR
STARTCHAR 0147
ENCODING 327
SWIDTH 495 0
DWIDTH 22 0
BBX 19 40 1 0
BITMAP
0E0700
070E00
039C00
03DC00
01F800
00F000
000000
000000
400000
E000E0
F800E0
7C00E0
7E00E0
7F80E0
77C0E0
73E0E0
71F0E0
707CE0
703EE0
701FE0
700FE0
7003E0
7001E0
7000E0
7000E0
7000E0
7000E0
7000E0
7000E0
7000E0
7000E0
7000E0
7000E0
7000E0
7000E0
7000E0
7000E0
7000E0
7000E0
7000E0
ENDCHAR
STARTCHAR 0148
ENCODING 328
SWIDTH 495 0
DWIDTH 22 0
BBX 19 40 1 0
BITMAP
0E0700
070E00
039C00
03DC00
01F800
00F000
000000
000000
400000
E000E0
F800E0
7C00E0
7E00E0
7F80E0
77C0E0
73E0E0
71F0E0
707CE0
703EE0
701FE0
700FE0
7003E0
7001E0
7000E0
7000E0
7000E0
7000E0
7000E0
7000E0
7000E0
7000E0
7000E0
7000E0
7000E0
7000E0
7000E0
7000E0
7000E0
7000E0
7000E0
ENDCHAR
STARTCHAR 014C
ENCODING 332
SWIDTH 810 0
DWIDTH 36 0
BBX 34 39 1 -1
BITMAP
001FFE0000
001FFE0000
001FFE0000
0000000000
0000000000
0000000000
0003F00000
003FFF0000
00FFFFC000
01FE1FE000
03E001F000
07C0007800
0F00003C00
1E00001E00
3C00000F00
3C00000F00
7800000780
7800000780
7000000380
7000000380
70000003C0
F0000003C0
F0000003C0
F0000003C0
70000003C0
7000000380
7000000380
7800000780
3800000780
3C00000F00
3C00000F00
1E00001E00
0F00003C00
07C000F800
03F003F000
01FF3FE000
00FFFFC000
001FFE0000
0003E00000
ENDCHAR
STARTCHAR 014D
ENCODING 333
SWIDTH 810 0
DWIDTH 36 0
BBX 34 39 1 -1
BITMAP
001FFE0000
001FFE0000
001FFE0000
0000000000
0000000000
0000000000
0003F00000
003FFF0000
00FFFFC000
01FE1FE000
03E001F000
07C0007800
0F00003C00
1E00001E00
3C00000F00
3C00000F00
7800000780
7800000780
7000000380
7000000380
70000003C0
F0000003C0
F0000003C0
F0000003C0
70000003C0
7000000380
7000000380
7800000780
3800000780
3C00000F00
3C00000F00
1E00001E00
0F00003C00
07C000F800
03F003F000
01FF3FE000
00FFFFC000
001FFE0000
0003E00000
ENDCHAR
STARTCHAR 0150
ENCODING 336
SWIDTH 810 0
DWIDTH 36 0
BBX 34 41 1 -1
BITMAP
0001C1C000
0003838000
0003870000
0007060000
00060E0000
000C1C0000
0000000000
0000000000
0003F00000
003FFF0000
00FFFFC000
01FE1FE000
03E001F000
07C0007800
0F00003C00
1E00001E00
3C00000F00
3C00000F00
7800000780
7800000780
7000000380
7000000380
70000003C0
F0000003C0
F0000003C0
F0000003C0
70000003C0
7000000380
7000000380
7800000780
3800000780
3C00000F00
3C00000F00
1E00001E00
0F00003C00
07C000F800
03F003F000
01FF3FE000
00FFFFC000
001FFE0000
0003E00000
ENDCHAR
STARTCHAR 0151
ENCODING 337
SWIDTH 810 0
DWIDTH 36 0
BBX 34 41 1 -1
BITMAP
0001C1C000
0003838000
0003870000
0007060000
00060E0000
000C1C0000
0000000000
0000000000
0003F00000
003FFF0000
00FFFFC000
01FE1FE000
03E001F000
07C0007800
0F00003C00
1E00001E00
3C00000F00
3C00000F00
7800000780
7800000780
7000000380
7000000380
70000003C0
F0000003C0
F0000003C0
F0000003C0
70000003C0
7000000380
7000000380
7800000780
3800000780
3C00000F00
3C00000F00
1E00001E00
0F00003C00
07C000F800
03F003F000
01FF3FE000
00FFFFC000
001FFE0000
0003E00000
ENDCHAR
STARTCHAR 0154
ENCODING 340
SWIDTH 562 0
DWIDTH 25 0
BBX 23 40 1 0
BITMAP
000700
000E00
000C00
001C00
003800
003000
000000
000000
000000
1FFF00
1FFFE0
1FFFF0
1C01F8
1C007C
1C003C
1C001E
1C001E
1C000E
1C000E
1C001E
1C001E
1C001C
1C003C
1C00F8
FFFFF0
FFFFE0
FFFF80
1C0FE0
1C01E0
1C00F0
1C0078
1C0078
1C0038
1C0038
1C003C
1C003C
1C003C
1C003C
1C003C
1C003C
ENDCHAR
STARTCHAR 0155
ENCODING 341
SWIDTH 562 0
DWIDTH 25 0
BBX 23 40 1 0
BITMAP
000700
000E00
000C00
001C00
003800
003000
000000
000000
000000
1FFF00
1FFFE0
1FFFF0
1C01F8
1C007C
1C003C
1C001E
1C001E
1C000E
1C000E
1C001E
1C001E
1C001C
1C003C
1C00F8
FFFFF0
FFFFE0
FFFF80
1C0FE0
1C01E0
1C00F0
1C0078
1C0078
1C0038
1C0038
1C003C
1C003C
1C003C
1C003C
1C003C
1C003C
ENDCHAR
STARTCHAR 0158
ENCODING 344
SWIDTH 562 0
DWIDTH 25 0
BBX 23 40 1 0
BITMAP
070380
038380
01C700
00EE00
007C00
007800
000000
000000
000000
1FFF00
1FFFE0
1FFFF0
1C01F8
1C007C
1C003C
1C001E
1C001E
1C000E
1C000E
1C001E
1C001E
1C001C
1C003C
1C00F8
FFFFF0
FFFFE0
FFFF80
1C0FE0
1C01E0
1C00F0
1C0078
1C0078
1C0038
1C0038
1C003C
1C003C
1C003C
1C003C
1C003C
1C003C
ENDCHAR
STARTCHAR 0159
ENCODING 345
SWIDTH 562 0
DWIDTH 25 0
BBX 23 40 1 0
BITMAP
070380
038380
01C700
00EE00
007C00
007800
000000
000000
000000
1FFF00
1FFFE0
1FFFF0
1C01F8
1C007C
1C003C
1C001E
1C001E
1C000E
1C000E
1C001E
1C001E
1C001C
1C003C
1C00F8
FFFFF0
FFFFE0
FFFF80
1C0FE0
1C01E0
1C00F0
1C0078
1C0078
1C0038
1C0038
1C003C
1C003C
1C003C
1C003C
1C003C
1C003C
ENDCHAR
STARTCHAR 015A
ENCODING 346
SWIDTH 472 0
DWIDTH 21 0
BBX 19 41 1 -1
BITMAP
001C00
003800
003800
007000
006000
00C000
000000
000000
01F000
07FE00
0FFF00
1F9F80
3C0780
3C03C0
3801C0
3801C0
380180
3C0000
3C0000
1E0000
0F8000
07C000
03F000
01FC00
007E00
001F00
000F80
0003C0
0001E0
0001E0
0000E0
0000E0
F000E0
F000E0
7801E0
7801E0
3C03C0
1FDF80
0FFF80
07FE00
00F000
ENDCHAR
STARTCHAR 015B
ENCODING 347
SWIDTH 472 0
DWIDTH 21 0
BBX 19 41 1 -1
BITMAP
001C00
003800
003800
007000
006000
00C000
000000
000000
01F000
07FE00
0FFF00
1F9F80
3C0780
3C03C0
3801C0
3801C0
380180
3C0000
3C0000
1E0000
0F8000
07C000
03F000
01FC00
007E00
001F00
000F80
0003C0
0001E0
0001E0
0000E0
0000E0
F000E0
F000E0
7801E0
7801E0
3C03C0
1FDF80
0FFF80
07FE00
00F000
ENDCHAR
STARTCHAR 015E
ENCODING 350
SWIDTH 472 0
DWIDTH 21 0
BBX 19 41 1 -9
BITMAP
01F000
07FE00
0FFF00
1F9F80
3C0780
3C03C0
3801C0
3801C0
380180
3C0000
3C0000
1E0000
0F8000
07C000
03F000
01FC00
007E00
001F00
000F80
0003C0
0001E0
0001E0
0000E0
0000E0
F000E0
F000E0
7801E0
7801E0
3C03C0
1FDF80
0FFF80
07FE00
00F000
006000
00F800
001800
000C00
000C00
060C00
07B800
03F000
ENDCHAR
STARTCHAR 015F
ENCODING 351
SWIDTH 472 0
DWIDTH 21 0
BBX 19 41 1 -9
BITMAP
01F000
07FE00
0FFF00
1F9F80
3C0780
3C03C0
3801C0
3801C0
380180
3C0000
3C0000
1E0000
0F8000
07C000
03F000
01FC00
007E00
001F00
000F80
0003C0
0001E0
0001E0
0000E0
0000E0
F000E0
F000E0
7801E0
7801E0
3C03C0
1FDF80
0FFF80
07FE00
00F000
006000
00F800
001800
000C00
000C00
060C00
07B800
03F000
ENDCHAR
STARTCHAR 0160
ENCODING 352
SWIDTH 472 0
DWIDTH 21 0
BBX 19 41 1 -1
BITMAP
0E0700
0E0E00
071C00
03B800
01F000
00F000
000000
000000
01F000
07FE00
0FFF00
1F9F80
3C0780
3C03C0
3801C0
3801C0
380180
3C0000
3C0000
1E0000
0F8000
07C000
03F000
01FC00
007E00
001F00
000F80
0003C0
0001E0
0001E0
0000E0
0000E0
F000E0
F000E0
7801E0
7801E0
3C03C0
1FDF80
0FFF80
07FE00
00F000
ENDCHAR
STARTCHAR 0161
ENCODING 353
SWIDTH 472 0
DWIDTH 21 0
BBX 19 41 1 -1
BITMAP
0E0700
0E0E00
071C00
03B800
01F000
00F000
000000
000000
01F000
07FE00
0FFF00
1F9F80
3C0780
3C03C0
3801C0
3801C0
380180
3C0000
3C0000
1E0000
0F8000
07C000
03F000
01FC00
007E00
001F00
000F80
0003C0
0001E0
0001E0
0000E0
0000E0
F000E0
F000E0
7801E0
7801E0
3C03C0
1FDF80
0FFF80
07FE00
00F000
ENDCHAR
STARTCHAR 0162
ENCODING 354
SWIDTH 472 0
DWIDTH 21 0
BBX 20 40 1 -9
BITMAP
FFFFF0
FFFFF0
FFFFF0
00F000
00F000
00F000
00F000
00F000
00F000
00F000
00F000
00F000
00F000
00F000
00F000
00F000
00F000
00F000
00F000
00F000
00F000
00F000
00F000
00F000
00F000
00F000
00F000
00F000
00F000
00F000
00F000
006000
00C000
00F000
001800
000C00
040C00
0E1800
07F800
03F000
ENDCHAR
STARTCHAR 0163
ENCODING 355
SWIDTH 472 0
DWIDTH 21 0
BBX 20 40 1 -9
BITMAP
FFFFF0
FFFFF0
FFFFF0
00F000
00F000
00F000
00F000
00F000
00F000
00F000
00F000
00F000
00F000
00F000
00F000
00F000
00F000
00F000
00F000
00F000
00F000
00F000
00F000
00F000
00F000
00F000
00F000
00F000
00F000
00F000
00F000
006000
00C000
00F000
001800
000C00
040C00
0E1800
07F800
03F000
ENDCHAR
STARTCHAR 0164
ENCODING 356
SWIDTH 472 0
DWIDTH 21 0
BBX 20 40 1 0
BITMAP
0E0700
070E00
039C00
03FC00
01F800
00F000
000000
000000
000000
FFFFF0
FFFFF0
FFFFF0
00F000
00F000
00F000
00F000
00F000
00F000
00F000
00F000
00F000
00F000
00F000
00F000
00F000
00F000
00F000
00F000
00F000
00F000
00F000
00F000
00F000
00F000
00F000
00F000
00F000
00F000
00F000
00F000
ENDCHAR
STARTCHAR 0165
ENCODING 357
SWIDTH 472 0
DWIDTH 21 0
BBX 20 40 1 0
BITMAP
0E0700
070E00
039C00
03FC00
01F800
00F000
000000
000000
000000
FFFFF0
FFFFF0
FFFFF0
00F000
00F000
00F000
00F000
00F000
00F000
00F000
00F000
00F000
00F000
00F000
00F000
00F000
00F000
00F000
00F000
00F000
00F000
00F000
00F000
00F000
00F000
00F000
00F000
00F000
00F000
00F000
00F000
ENDCHAR
STARTCHAR 0168
ENCODING 360
SWIDTH 495 0
DWIDTH 22 0
BBX 18 40 2 -1
BITMAP
1F8400
1FFC00
10FC00
000000
000000
000000
000000
000000
E001C0
E001C0
E001C0
E001C0
E001C0
E001C0
E001C0
E001C0
E001C0
E001C0
E001C0
E001C0
E001C0
E001C0
E001C0
E001C0
E001C0
E001C0
E001C0
E001C0
E001C0
E001C0
E001C0
E001C0
F003C0
7003C0
780780
7C0F80
3FFF00
1FFE00
0FFC00
01E000
ENDCHAR
STARTCHAR 0169
ENCODING 361
SWIDTH 495 0
DWIDTH 22 0
BBX 18 40 2 -1
BITMAP
1F8400
1FFC00
10FC00
000000
000000
000000
000000
000000
E001C0
E001C0
E001C0
E001C0
E001C0
E001C0
E001C0
E001C0
E001C0
E001C0
E001C0
E001C0
E001C0
E001C0
E001C0
E001C0
E001C0
E001C0
E001C0
E001C0
E001C0
E001C0
E001C0
E001C0
F003C0
7003C0
780780
7C0F80
3FFF00
1FFE00
0FFC00
01E000
ENDCHAR
STARTCHAR 016A
ENCODING 362
SWIDTH 495 0
DWIDTH 22 0
BBX 18 39 2 -1
BITMAP
1FFE00
1FFE00
1FFE00
000000
000000
000000
000000
E001C0
E001C0
E001C0
E001C0
E001C0
E001C0
E001C0
E001C0
E001C0
E001C0
E001C0
E001C0
E001C0
E001C0
E001C0
E001C0
E001C0
E001C0
E001C0
E001C0
E001C0
E001C0
E001C0
E001C0
F003C0
7003C0
780780
7C0F80
3FFF00
1FFE00
0FFC00
01E000
ENDCHAR
STARTCHAR 016B
ENCODING 363
SWIDTH 495 0
DWIDTH 22 0
BBX 18 39 2 -1
BITMAP
1FFE00
1FFE00
1FFE00
000000
000000
000000
000000
E001C0
E001C0
E001C0
E001C0
E001C0
E001C0
E001C0
E001C0
E001C0
E001C0
E001C0
E001C0
E001C0
E001C0
E001C0
E001C0
E001C0
E001C0
E001C0
E001C0
E001C0
E001C0
E001C0
E001C0
F003C0
7003C0
780780
7C0F80
3FFF00
1FFE00
0FFC00
01E000
ENDCHAR
STARTCHAR 016E
ENCODING 366
SWIDTH 495 0
DWIDTH 22 0
BBX 18 43 2 0
BITMAP
03F000
073800
061800
061800
061800
061800
07F800
03F000
000000
000000
000000
E001C0
E001C0
E001C0
E001C0
E001C0
E001C0
E001C0
E001C0
E001C0
E001C0
E001C0
E001C0
E001C0
E001C0
E001C0
E001C0
E001C0
E001C0
E001C0
E001C0
E001C0
E001C0
E001C0
E001C0
F003C0
7003C0
780780
7C0F80
3FFF00
1FFE00
0FFC00
01E000
ENDCHAR
STARTCHAR 016F
ENCODING 367
SWIDTH 495 0
DWIDTH 22 0
BBX 18 43 2 0
BITMAP
03F000
073800
061800
061800
061800
061800
07F800
03F000
000000
000000
000000
E001C0
E001C0
E001C0
E001C0
E001C0
E001C0
E001C0
E001C0
E001C0
E001C0
E001C0
E001C0
E001C0
E001C0
E001C0
E001C0
E001C0
E001C0
E001C0
E001C0
E001C0
E001C0
E001C0
E001C0
F003C0
7003C0
780780
7C0F80
3FFF00
1FFE00
0FFC00
01E000
ENDCHAR
STARTCHAR 0170
ENCODING 368
SWIDTH 495 0
DWIDTH 22 0
BBX 18 41 2 -1
BITMAP
01C1C0
018380
038700
070600
060E00
0C0C00
000000
000000
000000
E001C0
E001C0
E001C0
E001C0
E001C0
E001C0
E001C0
E001C0
E001C0
E001C0
E001C0
E001C0
E001C0
E001C0
E001C0
E001C0
E001C0
E001C0
E001C0
E001C0
E001C0
E001C0
E001C0
E001C0
F003C0
7003C0
780780
7C0F80
3FFF00
1FFE00
0FFC00
01E000
ENDCHAR
STARTCHAR 0171
ENCODING 369
SWIDTH 495 0
DWIDTH 22 0
BBX 18 41 2 -1
BITMAP
01C1C0
018380
038700
070600
060E00
0C0C00
000000
000000
000000
E001C0
E001C0
E001C0
E001C0
E001C0
E001C0
E001C0
E001C0
E001C0
E001C0
E001C0
E001C0
E001C0
E001C0
E001C0
E001C0
E001C0
E001C0
E001C0
E001C0
E001C0
E001C0
E001C0
E001C0
F003C0
7003C0
780780
7C0F80
3FFF00
1FFE00
0FFC00
01E000
ENDCHAR
STARTCHAR 0172
ENCODING 370
SWIDTH 495 0
DWIDTH 22 0
BBX 18 39 2 -8
BITMAP
E001C0
E001C0
E001C0
E001C0
E001C0
E001C0
E001C0
E001C0
E001C0
E001C0
E001C0
E001C0
E001C0
E001C0
E001C0
E001C0
E001C0
E001C0
E001C0
E001C0
E001C0
E001C0
E001C0
E001C0
F003C0
7003C0
780780
7C0F80
3FFF00
1FFE00
0FFC00
01E000
038000
030000
060000
060000
071800
03F800
01F000
ENDCHAR
STARTCHAR 0173
ENCODING 371
SWIDTH 495 0
DWIDTH 22 0
BBX 18 39 2 -8
BITMAP
E001C0
E001C0
E001C0
E001C0
E001C0
E001C0
E001C0
E001C0
E001C0
E001C0
E001C0
E001C0
E001C0
E001C0
E001C0
E001C0
E001C0
E001C0
E001C0
E001C0
E001C0
E001C0
E001C0
E001C0
F003C0
7003C0
780780
7C0F80
3FFF00
1FFE00
0FFC00
01E000
038000
030000
060000
060000
071800
03F800
01F000
ENDCHAR
STARTCHAR 0176
ENCODING 374
SWIDTH 472 0
DWIDTH 21 0
BBX 18 40 2 0
BITMAP
01E000
03F000
077000
073800
0E1C00
1C0E00
000000
000000
000000
E001C0
E001C0
E001C0
E001C0
E001C0
E001C0
E001C0
E001C0
E001C0
E001C0
E001C0
E001C0
E001C0
E001C0
E001C0
E003C0
E003C0
F00380
700780
780F00
3FFF00
1FFE00
0FF800
01C000
01C000
01C000
01C000
01C000
01C000
01C000
01C000
ENDCHAR
STARTCHAR 0177
ENCODING 375
SWIDTH 472 0
DWIDTH 21 0
BBX 18 40 2 0
BITMAP
01E000
03F000
077000
073800
0E1C00
1C0E00
000000
000000
000000
E001C0
E001C0
E001C0
E001C0
E001C0
E001C0
E001C0
E001C0
E001C0
E001C0
E001C0
E001C0
E001C0
E001C0
E001C0
E003C0
E003C0
F00380
700780
780F00
3FFF00
1FFE00
0FF800
01C000
01C000
01C000
01C000
01C000
01C000
01C000
01C000
ENDCHAR
STARTCHAR 0178
ENCODING 376
SWIDTH 472 0
DWIDTH 21 0
BBX 18 39 2 0
BITMAP
3C0F00
7E1F80
7E1F80
7E1F80
3E1F00
1C0600
000000
000000
E001C0
E001C0
E001C0
E001C0
E001C0
E001C0
E001C0
E001C0
E001C0
E001C0
E001C0
E001C0
E001C0
E001C0
E001C0
E003C0
E003C0
F00380
700780
780F00
3FFF00
1FFE00
0FF800
01C000
01C000
01C000
01C000
01C000
01C000
01C000
01C000
ENDCHAR
STARTCHAR 0179
ENCODING 377
SWIDTH 472 0
DWIDTH 21 0
BBX 20 40 1 0
BITMAP
000E00
001C00
003800
003000
007000
00E000
000000
000000
000000
FFFFF0
FFFFF0
FFFFE0
0001E0
0001C0
0003C0
000780
000700
000F00
000E00
001E00
003C00
003800
007800
007000
00F000
01E000
01C000
03C000
038000
078000
0F0000
0E0000
1E0000
1C0000
3C0000
780000
700000
FFFFE0
FFFFE0
FFFFE0
ENDCHAR
STARTCHAR 017A
ENCODING 378
SWIDTH 472 0
DWIDTH 21 0
BBX 20 40 1 0
BITMAP
000E00
001C00
003800
003000
007000
00E000
000000
000000
000000
FFFFF0
FFFFF0
FFFFE0
0001E0
0001C0
0003C0
000780
000700
000F00
000E00
001E00
003C00
003800
007800
007000
00F000
01E000
01C000
03C000
038000
078000
0F0000
0E0000
1E0000
1C0000
3C0000
780000
700000
FFFFE0
FFFFE0
FFFFE0
ENDCHAR
STARTCHAR 017B
ENCODING 379
SWIDTH 472 0
DWIDTH 21 0
BBX 20 41 1 0
BITMAP
002000
00F800
01F800
01F800
01F800
00F800
000000
000000
000000
000000
FFFFF0
FFFFF0
FFFFE0
0001E0
0001C0
0003C0
000780
000700
000F00
000E00
001E00
003C00
003800
007800
007000
00F000
01E000
01C000
03C000
038000
078000
0F0000
0E0000
1E0000
1C0000
3C0000
780000
700000
FFFFE0
FFFFE0
FFFFE0
ENDCHAR
STARTCHAR 017C
ENCODING 380
SWIDTH 472 0
DWIDTH 21 0
BBX 20 41 1 0
BITMAP
002000
00F800
01F800
01F800
01F800
00F800
000000
000000
000000
000000
FFFFF0
FFFFF0
FFFFE0
0001E0
0001C0
0003C0
000780
000700
000F00
000E00
001E00
003C00
003800
007800
007000
00F000
01E000
01C000
03C000
038000
078000
0F0000
0E0000
1E0000
1C0000
3C0000
780000
700000
FFFFE0
FFFFE0
FFFFE0
ENDCHAR
STARTCHAR 017D
ENCODING 381
SWIDTH 472 0
DWIDTH 21 0
BBX 20 40 1 0
BITMAP
0E0700
070E00
039E00
01DC00
01F800
00F000
000000
000000
000000
FFFFF0
FFFFF0
FFFFE0
0001E0
0001C0
0003C0
000780
000700
000F00
000E00
001E00
003C00
003800
007800
007000
00F000
01E000
01C000
03C000
038000
078000
0F0000
0E0000
1E0000
1C0000
3C0000
780000
700000
FFFFE0
FFFFE0
FFFFE0
ENDCHAR
STARTCHAR 017E
ENCODING 382
SWIDTH 472 0
DWIDTH 21 0
BBX 20 40 1 0
BITMAP
0E0700
070E00
039E00
01DC00
01F800
00F000
000000
000000
000000
FFFFF0
FFFFF0
FFFFE0
0001E0
0001C0
0003C0
000780
000700
000F00
000E00
001E00
003C00
003800
007800
007000
00F000
01E000
01C000
03C000
038000
078000
0F0000
0E0000
1E0000
1C0000
3C0000
780000
700000
FFFFE0
FFFFE0
FFFFE0
ENDCHAR
STARTCHAR 01A0
ENCODING 416
SWIDTH 810 0
DWIDTH 36 0
BBX 34 36 1 -1
BITMAP
0000001800
0000001800
0000003800
0003F03800
003FFFF000
00FFFFC000
01FE1FE000
03E001F000
07C0007800
0F00003C00
1E00001E00
3C00000F00
3C00000F00
7800000780
7800000780
7000000380
7000000380
70000003C0
F0000003C0
F0000003C0
F0000003C0
70000003C0
7000000380
7000000380
7800000780
3800000780
3C00000F00
3C00000F00
1E00001E00
0F00003C00
07C000F800
03F003F000
01FF3FE000
00FFFFC000
001FFE0000
0003E00000
ENDCHAR
STARTCHAR 01A1
ENCODING 417
SWIDTH 810 0
DWIDTH 36 0
BBX 34 36 1 -1
BITMAP
0000001800
0000001800
0000003800
0003F03800
003FFFF000
00FFFFC000
01FE1FE000
03E001F000
07C0007800
0F00003C00
1E00001E00
3C00000F00
3C00000F00
7800000780
7800000780
7000000380
7000000380
70000003C0
F0000003C0
F0000003C0
F0000003C0
70000003C0
7000000380
7000000380
7800000780
3800000780
3C00000F00
3C00000F00
1E00001E00
0F00003C00
07C000F800
03F003F000
01FF3FE000
00FFFFC000
001FFE0000
0003E00000
ENDCHAR
STARTCHAR 01AF
ENCODING 431
SWIDTH 495 0
DWIDTH 22 0
BBX 21 36 2 -1
BITMAP
000018
000018
000038
000038
E001F0
E001C0
E001C0
E001C0
E001C0
E001C0
E001C0
E001C0
E001C0
E001C0
E001C0
E001C0
E001C0
E001C0
E001C0
E001C0
E001C0
E001C0
E001C0
E001C0
E001C0
E001C0
E001C0
E001C0
F003C0
7003C0
780780
7C0F80
3FFF00
1FFE00
0FFC00
01E000
ENDCHAR
STARTCHAR 01B0
ENCODING 432
SWIDTH 495 0
DWIDTH 22 0
BBX 21 36 2 -1
BITMAP
000018
000018
000038
000038
E001F0
E001C0
E001C0
E001C0
E001C0
E001C0
E001C0
E001C0
E001C0
E001C0
E001C0
E001C0
E001C0
E001C0
E001C0
E001C0
E001C0
E001C0
E001C0
E001C0
E001C0
E001C0
E001C0
E001C0
F003C0
7003C0
780780
7C0F80
3FFF00
1FFE00
0FFC00
01E000
ENDCHAR
STARTCHAR 01CD
ENCODING 461
SWIDTH 540 0
DWIDTH 24 0
BBX 22 40 2 0
BITMAP
1C0E00
0E0E00
071C00
03B800
01F000
01E000
000000
000000
01F000
07FC00
1FFE00
3F1F00
3C0780
7803C0
7003C0
7001C0
F001C0
F001E0
F001E0
F001E0
F001E0
F001E0
F001E0
F001E0
F001E0
F001E0
F001E0
F001E0
F001E0
F001E0
F001E0
F001E0
F001E0
F001E0
F001E0
F001E0
F001E0
FFFFFC
FFFFFC
FFFFFC
ENDCHAR
STARTCHAR 01CE
ENCODING 462
SWIDTH 540 0
DWIDTH 24 0
BBX 22 40 2 0
BITMAP
1C0E00
0E0E00
071C00
03B800
01F000
01E000
000000
000000
01F000
07FC00
1FFE00
3F1F00
3C0780
7803C0
7003C0
7001C0
F001C0
F001E0
F001E0
F001E0
F001E0
F001E0
F001E0
F001E0
F001E0
F001E0
F001E0
F001E0
F001E0
F001E0
F001E0
F001E0
F001E0
F001E0
F001E0
F001E0
F001E0
FFFFFC
FFFFFC
FFFFFC
ENDCHAR
STARTCHAR 01CF
ENCODING 463
SWIDTH 157 0
DWIDTH 7 0
BBX 12 28 -2 0
BITMAP
E070
70E0
39C0
3FC0
1F80
0F00
0000
0000
0000
0F00
0F00
0F00
0F00
0F00
0F00
0F00
0F00
0F00
0F00
0F00
0F00
0F00
0F00
0F00
0F00
0F00
0F00
0F00
ENDCHAR
STARTCHAR 01D0
ENCODING 464
SWIDTH 157 0
DWIDTH 7 0
BBX 12 28 -2 0
BITMAP
E070
70E0
39C0
3FC0
1F80
0F00
0000
0000
0000
0F00
0F00
0F00
0F00
0F00
0F00
0F00
0F00
0F00
0F00
0F00
0F00
0F00
0F00
0F00
0F00
0F00
0F00
0F00
ENDCHAR
STARTCHAR 01D1
ENCODING 465
SWIDTH 810 0
DWIDTH 36 0
BBX 34 41 1 -1
BITMAP
001C0E0000
000E1C0000
0007380000
0007F80000
0003F00000
0001E00000
0000000000
0000000000
0003F00000
003FFF0000
00FFFFC000
01FE1FE000
03E001F000
07C0007800
0F00003C00
1E00001E00
3C00000F00
3C00000F00
7800000780
7800000780
7000000380
7000000380
70000003C0
F0000003C0
F0000003C0
F0000003C0
70000003C0
7000000380
7000000380
7800000780
3800000780
3C00000F00
3C00000F00
1E00001E00
0F00003C00
07C000F800
03F003F000
01FF3FE000
00FFFFC000
001FFE0000
0003E00000
ENDCHAR
STARTCHAR 01D2
ENCODING 466
SWIDTH 810 0
DWIDTH 36 0
BBX 34 41 1 -1
BITMAP
001C0E0000
000E1C0000
0007380000
0007F80000
0003F00000
0001E00000
0000000000
0000000000
0003F00000
003FFF0000
00FFFFC000
01FE1FE000
03E001F000
07C0007800
0F00003C00
1E00001E00
3C00000F00
3C00000F00
7800000780
7800000780
7000000380
7000000380
70000003C0
F0000003C0
F0000003C0
F0000003C0
70000003C0
7000000380
7000000380
7800000780
3800000780
3C00000F00
3C00000F00
1E00001E00
0F00003C00
07C000F800
03F003F000
01FF3FE000
00FFFFC000
001FFE0000
0003E00000
ENDCHAR
STARTCHAR 01D3
ENCODING 467
SWIDTH 495 0
DWIDTH 22 0
BBX 18 41 2 -1
BITMAP
1C0E00
0E1C00
073800
07F800
03F000
01E000
000000
000000
000000
E001C0
E001C0
E001C0
E001C0
E001C0
E001C0
E001C0
E001C0
E001C0
E001C0
E001C0
E001C0
E001C0
E001C0
E001C0
E001C0
E001C0
E001C0
E001C0
E001C0
E001C0
E001C0
E001C0
E001C0
F003C0
7003C0
780780
7C0F80
3FFF00
1FFE00
0FFC00
01E000
ENDCHAR
STARTCHAR 01D4
ENCODING 468
SWIDTH 495 0
DWIDTH 22 0
BBX 18 41 2 -1
BITMAP
1C0E00
0E1C00
073800
07F800
03F000
01E000
000000
000000
000000
E001C0
E001C0
E001C0
E001C0
E001C0
E001C0
E001C0
E001C0
E001C0
E001C0
E001C0
E001C0
E001C0
E001C0
E001C0
E001C0
E001C0
E001C0
E001C0
E001C0
E001C0
E001C0
E001C0
E001C0
F003C0
7003C0
780780
7C0F80
3FFF00
1FFE00
0FFC00
01E000
ENDCHAR
STARTCHAR 02C6
ENCODING 710
SWIDTH 292 0
DWIDTH 13 0
BBX 13 6 0 34
BITMAP
0700
0F80
1DC0
38E0
7070
F078
ENDCHAR
STARTCHAR 02C7
ENCODING 711
SWIDTH 292 0
DWIDTH 13 0
BBX 13 6 0 34
BITMAP
E038
7070
38E0
1DC0
0F80
0780
ENDCHAR
STARTCHAR 02D8
ENCODING 728
SWIDTH 247 0
DWIDTH 11 0
BBX 12 6 0 34
BITMAP
C030
C070
E060
70E0
3FC0
1F80
ENDCHAR
STARTCHAR 02D9
ENCODING 729
SWIDTH 135 0
DWIDTH 6 0
BBX 6 6 0 35
BITMAP
38
7C
FC
FC
7C
78
ENDCHAR
STARTCHAR 02DA
ENCODING 730
SWIDTH 180 0
DWIDTH 8 0
BBX 9 9 0 34
BITMAP
0800
7E00
7700
C380
C180
C180
E380
7F00
3E00
ENDCHAR
STARTCHAR 02DB
ENCODING 731
SWIDTH 180 0
DWIDTH 8 0
BBX 8 8 0 -8
BITMAP
3C
60
C0
C0
C0
E3
7F
3C
ENDCHAR
STARTCHAR 02DC
ENCODING 732
SWIDTH 225 0
DWIDTH 10 0
BBX 11 3 0 36
BITMAP
F820
FFE0
87E0
ENDCHAR
STARTCHAR 02DD
ENCODING 733
SWIDTH 315 0
DWIDTH 14 0
BBX 14 6 0 34
BITMAP
0E1C
1C18
3838
3070
7060
E0C0
ENDCHAR
STARTCHAR 0300
ENCODING 768
SWIDTH 0 0
DWIDTH 0 0
BBX 7 6 -7 34
BITMAP
E0
70
38
18
1C
0E
ENDCHAR
STARTCHAR 0301
ENCODING 769
SWIDTH 0 0
DWIDTH 0 0
BBX 6 6 -6 34
BITMAP
1C
38
30
70
E0
C0
ENDCHAR
STARTCHAR 0302
ENCODING 770
SWIDTH 0 0
DWIDTH 0 0
BBX 13 6 -13 34
BITMAP
0700
0F80
1DC0
38E0
7070
F078
ENDCHAR
STARTCHAR 0303
ENCODING 771
SWIDTH 0 0
DWIDTH 0 0
BBX 11 3 -11 36
BITMAP
7C00
FFE0
87E0
ENDCHAR
STARTCHAR 0304
ENCODING 772
SWIDTH 0 0
DWIDTH 0 0
BBX 12 3 -12 35
BITMAP
FFF0
FFF0
FFF0
ENDCHAR
STARTCHAR 0306
ENCODING 774
SWIDTH 0 0
DWIDTH 0 0
BBX 12 6 -12 34
BITMAP
C030
E070
6070
70E0
3FC0
1F80
ENDCHAR
STARTCHAR 0307
ENCODING 775
SWIDTH 0 0
DWIDTH 0 0
BBX 6 6 -6 35
BITMAP
38
FC
FC
FC
FC
78
ENDCHAR
STARTCHAR 0308
ENCODING 776
SWIDTH 0 0
DWIDTH 0 0
BBX 15 6 -15 33
BITMAP
783C
FC7E
FC7E
FC7E
F83E
7018
ENDCHAR
STARTCHAR 0309
ENCODING 777
SWIDTH 0 0
DWIDTH 0 0
BBX 3 8 -3 34
BITMAP
E0
60
60
E0
C0
C0
C0
C0
ENDCHAR
STARTCHAR 030A
ENCODING 778
SWIDTH 0 0
DWIDTH 0 0
BBX 9 9 -9 34
BITMAP
0800
3E00
7700
C180
C180
C180
E380
7F00
3E00
ENDCHAR
STARTCHAR 030B
ENCODING 779
SWIDTH 0 0
DWIDTH 0 0
BBX 14 6 -14 34
BITMAP
1C1C
1C38
3830
7070
60E0
E0C0
ENDCHAR
STARTCHAR 030C
ENCODING 780
SWIDTH 0 0
DWIDTH 0 0
BBX 13 6 -13 34
BITMAP
E038
7070
38E0
1DC0
0F80
0F00
ENDCHAR
STARTCHAR 031B
ENCODING 795
SWIDTH 0 0
DWIDTH 0 0
BBX 5 5 -5 30
BITMAP
38
38
38
70
E0
ENDCHAR
STARTCHAR 0323
ENCODING 803
SWIDTH 0 0
DWIDTH 0 0
BBX 6 6 -6 -12
BITMAP
78
FC
FC
FC
F8
30
ENDCHAR
STARTCHAR 0326
ENCODING 806
SWIDTH 0 0
DWIDTH 0 0
BBX 6 8 -6 -10
BITMAP
1C
1C
38
38
70
70
60
E0
ENDCHAR
STARTCHAR 0327
ENCODING 807
SWIDTH 0 0
DWIDTH 0 0
BBX 9 9 -9 -9
BITMAP
0C00
0C00
0F00
0380
0180
0180
C180
F700
3F00
ENDCHAR
STARTCHAR 0328
ENCODING 808
SWIDTH 0 0
DWIDTH 0 0
BBX 8 8 -8 -8
BITMAP
3C
60
C0
C0
C0
E3
7F
3C
ENDCHAR
STARTCHAR 0335
ENCODING 821
SWIDTH 0 0
DWIDTH 0 0
BBX 14 2 -14 9
BITMAP
FFFC
FFFC
ENDCHAR
STARTCHAR 1EA0
ENCODING 7840
SWIDTH 540 0
DWIDTH 24 0
BBX 22 44 2 -12
BITMAP
01F000
07FC00
1FFE00
3F1F00
3C0780
7803C0
7003C0
7001C0
F001C0
F001E0
F001E0
F001E0
F001E0
F001E0
F001E0
F001E0
F001E0
F001E0
F001E0
F001E0
F001E0
F001E0
F001E0
F001E0
F001E0
F001E0
F001E0
F001E0
F001E0
FFFFFC
FFFFFC
FFFFFC
000000
000000
000000
000000
000000
000000
01E000
01F000
03F800
03F000
01F000
00E000
ENDCHAR
STARTCHAR 1EA1
ENCODING 7841
SWIDTH 540 0
DWIDTH 24 0
BBX 22 44 2 -12
BITMAP
01F000
07FC00
1FFE00
3F1F00
3C0780
7803C0
7003C0
7001C0
F001C0
F001E0
F001E0
F001E0
F001E0
F001E0
F001E0
F001E0
F001E0
F001E0
F001E0
F001E0
F001E0
F001E0
F001E0
F001E0
F001E0
F001E0
F001E0
F001E0
F001E0
FFFFFC
FFFFFC
FFFFFC
000000
000000
000000
000000
000000
000000
01E000
01F000
03F800
03F000
01F000
00E000
ENDCHAR
STARTCHAR 1EA2
ENCODING 7842
SWIDTH 540 0
DWIDTH 24 0
BBX 22 42 2 0
BITMAP
00E000
006000
006000
00E000
00C000
00C000
00C000
00C000
000000
000000
01F000
07FC00
1FFE00
3F1F00
3C0780
7803C0
7003C0
7001C0
F001C0
F001E0
F001E0
F001E0
F001E0
F001E0
F001E0
F001E0
F001E0
F001E0
F001E0
F001E0
F001E0
F001E0
F001E0
F001E0
F001E0
F001E0
F001E0
F001E0
F001E0
FFFFFC
FFFFFC
FFFFFC
ENDCHAR
STARTCHAR 1EA3
ENCODING 7843
SWIDTH 540 0
DWIDTH 24 0
BBX 22 42 2 0
BITMAP
00E000
006000
006000
00E000
00C000
00C000
00C000
00C000
000000
000000
01F000
07FC00
1FFE00
3F1F00
3C0780
7803C0
7003C0
7001C0
F001C0
F001E0
F001E0
F001E0
F001E0
F001E0
F001E0
F001E0
F001E0
F001E0
F001E0
F001E0
F001E0
F001E0
F001E0
F001E0
F001E0
F001E0
F001E0
F001E0
F001E0
FFFFFC
FFFFFC
FFFFFC
ENDCHAR
STARTCHAR 1EA4
ENCODING 7844
SWIDTH 540 0
DWIDTH 24 0
BBX 22 44 2 0
BITMAP
000038
000030
000070
0000E0
01E0C0
01F180
03B800
071C00
0E1E00
1C0E00
000000
000000
01F000
07FC00
1FFE00
3F1F00
3C0780
7803C0
7003C0
7001C0
F001C0
F001E0
F001E0
F001E0
F001E0
F001E0
F001E0
F001E0
F001E0
F001E0
F001E0
F001E0
F001E0
F001E0
F001E0
F001E0
F001E0
F001E0
F001E0
F001E0
F001E0
FFFFFC
FFFFFC
FFFFFC
ENDCHAR
STARTCHAR 1EA5
ENCODING 7845
SWIDTH 540 0
DWIDTH 24 0
BBX 22 44 2 0
BITMAP
000038
000030
000070
0000E0
01E0C0
01F180
03B800
071C00
0E1E00
1C0E00
000000
000000
01F000
07FC00
1FFE00
3F1F00
3C0780
7803C0
7003C0
7001C0
F001C0
F001E0
F001E0
F001E0
F001E0
F001E0
F001E0
F001E0
F001E0
F001E0
F001E0
F001E0
F001E0
F001E0
F001E0
F001E0
F001E0
F001E0
F001E0
F001E0
F001E0
FFFFFC
FFFFFC
FFFFFC
ENDCHAR
STARTCHAR 1EA6
ENCODING 7846
SWIDTH 540 0
DWIDTH 24 0
BBX 25 44 -1 0
BITMAP
E0000000
70000000
70000000
38000000
183C0000
0C3E0000
00770000
00E38000
01C3C000
0381C000
00000000
00000000
003E0000
00FF8000
03FFC000
07E3E000
0780F000
0F007800
0E007800
0E003800
1E003800
1E003C00
1E003C00
1E003C00
1E003C00
1E003C00
1E003C00
1E003C00
1E003C00
1E003C00
1E003C00
1E003C00
1E003C00
1E003C00
1E003C00
1E003C00
1E003C00
1E003C00
1E003C00
1E003C00
1E003C00
1FFFFF80
1FFFFF80
1FFFFF80
ENDCHAR
STARTCHAR 1EA7
ENCODING 7847
SWIDTH 540 0
DWIDTH 24 0
BBX 25 44 -1 0
BITMAP
E0000000
70000000
70000000
38000000
183C0000
0C3E0000
00770000
00E38000
01C3C000
0381C000
00000000
00000000
003E0000
00FF8000
03FFC000
07E3E000
0780F000
0F007800
0E007800
0E003800
1E003800
1E003C00
1E003C00
1E003C00
1E003C00
1E003C00
1E003C00
1E003C00
1E003C00
1E003C00
1E003C00
1E003C00
1E003C00
1E003C00
1E003C00
1E003C00
1E003C00
1E003C00
1E003C00
1E003C00
1E003C00
1FFFFF80
1FFFFF80
1FFFFF80
ENDCHAR
STARTCHAR 1EA8
ENCODING 7848
SWIDTH 540 0
DWIDTH 24 0
BBX 22 46 2 0
BITMAP
0001C0
0000C0
0000C0
0001C0
000180
000180
01E380
01F180
03B980
071C00
0E1E00
1C0E00
000000
000000
01F000
07FC00
1FFE00
3F1F00
3C0780
7803C0
7003C0
7001C0
F001C0
F001E0
F001E0
F001E0
F001E0
F001E0
F001E0
F001E0
F001E0
F001E0
F001E0
F001E0
F001E0
F001E0
F001E0
F001E0
F001E0
F001E0
F001E0
F001E0
F001E0
FFFFFC
FFFFFC
FFFFFC
ENDCHAR
STARTCHAR 1EA9
ENCODING 7849
SWIDTH 540 0
DWIDTH 24 0
BBX 22 46 2 0
BITMAP
0001C0
0000C0
0000C0
0001C0
000180
000180
01E380
01F180
03B980
071C00
0E1E00
1C0E00
000000
000000
01F000
07FC00
1FFE00
3F1F00
3C0780
7803C0
7003C0
7001C0
F001C0
F001E0
F001E0
F001E0
F001E0
F001E0
F001E0
F001E0
F001E0
F001E0
F001E0
F001E0
F001E0
F001E0
F001E0
F001E0
F001E0
F001E0
F001E0
F001E0
F001E0
FFFFFC
FFFFFC
FFFFFC
ENDCHAR
STARTCHAR 1EAA
ENCODING 7850
SWIDTH 540 0
DWIDTH 24 0
BBX 22 44 2 0
BITMAP
003C00
007FF0
0043F0
000000
01E000
01F000
03B800
071C00
0E1E00
1C0E00
000000
000000
01F000
07FC00
1FFE00
3F1F00
3C0780
7803C0
7003C0
7001C0
F001C0
F001E0
F001E0
F001E0
F001E0
F001E0
F001E0
F001E0
F001E0
F001E0
F001E0
F001E0
F001E0
F001E0
F001E0
F001E0
F001E0
F001E0
F001E0
F001E0
F001E0
FFFFFC
FFFFFC
FFFFFC
ENDCHAR
STARTCHAR 1EAB
ENCODING 7851
SWIDTH 540 0
DWIDTH 24 0
BBX 22 44 2 0
BITMAP
003C00
007FF0
0043F0
000000
01E000
01F000
03B800
071C00
0E1E00
1C0E00
000000
000000
01F000
07FC00
1FFE00
3F1F00
3C0780
7803C0
7003C0
7001C0
F001C0
F001E0
F001E0
F001E0
F001E0
F001E0
F001E0
F001E0
F001E0
F001E0
F001E0
F001E0
F001E0
F001E0
F001E0
F001E0
F001E0
F001E0
F001E0
F001E0
F001E0
FFFFFC
FFFFFC
FFFFFC
ENDCHAR
STARTCHAR 1EAC
ENCODING 7852
SWIDTH 540 0
DWIDTH 24 0
BBX 22 52 2 -12
BITMAP
01E000
01F000
03B800
071C00
0E1E00
1C0E00
000000
000000
01F000
07FC00
1FFE00
3F1F00
3C0780
7803C0
7003C0
7001C0
F001C0
F001E0
F001E0
F001E0
F001E0
F001E0
F001E0
F001E0
F001E0
F001E0
F001E0
F001E0
F001E0
F001E0
F001E0
F001E0
F001E0
F001E0
F001E0
F001E0
F001E0
FFFFFC
FFFFFC
FFFFFC
000000
000000
000000
000000
000000
000000
01E000
01F000
03F800
03F000
01F000
00E000
ENDCHAR
STARTCHAR 1EAD
ENCODING 7853
SWIDTH 540 0
DWIDTH 24 0
BBX 22 52 2 -12
BITMAP
01E000
01F000
03B800
071C00
0E1E00
1C0E00
000000
000000
01F000
07FC00
1FFE00
3F1F00
3C0780
7803C0
7003C0
7001C0
F001C0
F001E0
F001E0
F001E0
F001E0
F001E0
F001E0
F001E0
F001E0
F001E0
F001E0
F001E0
F001E0
F001E0
F001E0
F001E0
F001E0
F001E0
F001E0
F001E0
F001E0
FFFFFC
FFFFFC
FFFFFC
000000
000000
000000
000000
000000
000000
01E000
01F000
03F800
03F000
01F000
00E000
ENDCHAR
STARTCHAR 1EAE
ENCODING 7854
SWIDTH 540 0
DWIDTH 24 0
BBX 22 45 2 0
BITMAP
001C00
001C00
003800
007000
006000
1CE600
0C0600
0C0E00
0E1C00
07FC00
03F000
000000
000000
01F000
07FC00
1FFE00
3F1F00
3C0780
7803C0
7003C0
7001C0
F001C0
F001E0
F001E0
F001E0
F001E0
F001E0
F001E0
F001E0
F001E0
F001E0
F001E0
F001E0
F001E0
F001E0
F001E0
F001E0
F001E0
F001E0
F001E0
F001E0
F001E0
FFFFFC
FFFFFC
FFFFFC
ENDCHAR
STARTCHAR 1EAF
ENCODING 7855
SWIDTH 540 0
DWIDTH 24 0
BBX 22 45 2 0
BITMAP
001C00
001C00
003800
007000
006000
1CE600
0C0600
0C0E00
0E1C00
07FC00
03F000
000000
000000
01F000
07FC00
1FFE00
3F1F00
3C0780
7803C0
7003C0
7001C0
F001C0
F001E0
F001E0
F001E0
F001E0
F001E0
F001E0
F001E0
F001E0
F001E0
F001E0
F001E0
F001E0
F001E0
F001E0
F001E0
F001E0
F001E0
F001E0
F001E0
F001E0
FFFFFC
FFFFFC
FFFFFC
ENDCHAR
STARTCHAR 1EB0
ENCODING 7856
SWIDTH 540 0
DWIDTH 24 0
BBX 22 45 2 0
BITMAP
0E0000
0E0000
070000
038000
018000
1DC600
0C0600
0C0E00
0E1C00
07FC00
03F000
000000
000000
01F000
07FC00
1FFE00
3F1F00
3C0780
7803C0
7003C0
7001C0
F001C0
F001E0
F001E0
F001E0
F001E0
F001E0
F001E0
F001E0
F001E0
F001E0
F001E0
F001E0
F001E0
F001E0
F001E0
F001E0
F001E0
F001E0
F001E0
F001E0
F001E0
FFFFFC
FFFFFC
FFFFFC
ENDCHAR
STARTCHAR 1EB1
ENCODING 7857
SWIDTH 540 0
DWIDTH 24 0
BBX 22 45 2 0
BITMAP
0E0000
0E0000
070000
038000
018000
1DC600
0C0600
0C0E00
0E1C00
07FC00
03F000
000000
000000
01F000
07FC00
1FFE00
3F1F00
3C0780
7803C0
7003C0
7001C0
F001C0
F001E0
F001E0
F001E0
F001E0
F001E0
F001E0
F001E0
F001E0
F001E0
F001E0
F001E0
F001E0
F001E0
F001E0
F001E0
F001E0
F001E0
F001E0
F001E0
F001E0
FFFFFC
FFFFFC
FFFFFC
ENDCHAR
STARTCHAR 1EB2
ENCODING 7858
SWIDTH 540 0
DWIDTH 24 0
BBX 22 46 2 0
BITMAP
006000
007000
007000
006000
00E000
00E000
1CE600
0C6600
0C0E00
0E1C00
07FC00
03F000
000000
000000
01F000
07FC00
1FFE00
3F1F00
3C0780
7803C0
7003C0
7001C0
F001C0
F001E0
F001E0
F001E0
F001E0
F001E0
F001E0
F001E0
F001E0
F001E0
F001E0
F001E0
F001E0
F001E0
F001E0
F001E0
F001E0
F001E0
F001E0
F001E0
F001E0
FFFFFC
FFFFFC
FFFFFC
ENDCHAR
STARTCHAR 1EB3
ENCODING 7859
SWIDTH 540 0
DWIDTH 24 0
BBX 22 46 2 0
BITMAP
006000
007000
007000
006000
00E000
00E000
1CE600
0C6600
0C0E00
0E1C00
07FC00
03F000
000000
000000
01F000
07FC00
1FFE00
3F1F00
3C0780
7803C0
7003C0
7001C0
F001C0
F001E0
F001E0
F001E0
F001E0
F001E0
F001E0
F001E0
F001E0
F001E0
F001E0
F001E0
F001E0
F001E0
F001E0
F001E0
F001E0
F001E0
F001E0
F001E0
F001E0
FFFFFC
FFFFFC
FFFFFC
ENDCHAR
STARTCHAR 1EB4
ENCODING 7860
SWIDTH 540 0
DWIDTH 24 0
BBX 22 44 2 0
BITMAP
0FC200
0FFE00
007C00
000000
1C0600
0C0600
0C0E00
0E1C00
07FC00
03F000
000000
000000
01F000
07FC00
1FFE00
3F1F00
3C0780
7803C0
7003C0
7001C0
F001C0
F001E0
F001E0
F001E0
F001E0
F001E0
F001E0
F001E0
F001E0
F001E0
F001E0
F001E0
F001E0
F001E0
F001E0
F001E0
F001E0
F001E0
F001E0
F001E0
F001E0
FFFFFC
FFFFFC
FFFFFC
ENDCHAR
STARTCHAR 1EB5
ENCODING 7861
SWIDTH 540 0
DWIDTH 24 0
BBX 22 44 2 0
BITMAP
0FC200
0FFE00
007C00
000000
1C0600
0C0600
0C0E00
0E1C00
07FC00
03F000
000000
000000
01F000
07FC00
1FFE00
3F1F00
3C0780
7803C0
7003C0
7001C0
F001C0
F001E0
F001E0
F001E0
F001E0
F001E0
F001E0
F001E0
F001E0
F001E0
F001E0
F001E0
F001E0
F001E0
F001E0
F001E0
F001E0
F001E0
F001E0
F001E0
F001E0
FFFFFC
FFFFFC
FFFFFC
ENDCHAR
STARTCHAR 1EB6
ENCODING 7862
SWIDTH 540 0
DWIDTH 24 0
BBX 22 52 2 -12
BITMAP
1C0600
0C0600
0C0E00
0E1C00
07FC00
03F000
000000
000000
01F000
07FC00
1FFE00
3F1F00
3C0780
7803C0
7003C0
7001C0
F001C0
F001E0
F001E0
F001E0
F001E0
F001E0
F001E0
F001E0
F001E0
F001E0
F001E0
F001E0
F001E0
F001E0
F001E0
F001E0
F001E0
F001E0
F001E0
F001E0
F001E0
FFFFFC
FFFFFC
FFFFFC
000000
000000
000000
000000
000000
000000
01E000
01F000
03F800
03F000
01F000
00E000
ENDCHAR
STARTCHAR 1EB7
ENCODING 7863
SWIDTH 540 0
DWIDTH 24 0
BBX 22 52 2 -12
BITMAP
1C0600
0C0600
0C0E00
0E1C00
07FC00
03F000
000000
000000
01F000
07FC00
1FFE00
3F1F00
3C0780
7803C0
7003C0
7001C0
F001C0
F001E0
F001E0
F001E0
F001E0
F001E0
F001E0
F001E0
F001E0
F001E0
F001E0
F001E0
F001E0
F001E0
F001E0
F001E0
F001E0
F001E0
F001E0
F001E0
F001E0
FFFFFC
FFFFFC
FFFFFC
000000
000000
000000
000000
000000
000000
01E000
01F000
03F800
03F000
01F000
00E000
ENDCHAR
STARTCHAR 1EB8
ENCODING 7864
SWIDTH 472 0
DWIDTH 21 0
BBX 21 43 1 -12
BITMAP
1FFE00
1FFE00
1FFE00
1C0000
1C0000
1C0000
1C0000
1C0000
1C0000
1C0000
1C0000
1C0000
1C0000
1C0000
FFFF80
FFFF80
FFFF80
1C0000
1C0000
1C0000
1C0000
1C0000
1C0000
1C0000
1C0000
1C0000
1C0000
1C0000
1FFFF8
1FFFF8
1FFFF8
000000
000000
000000
000000
000000
000000
003C00
003E00
007E00
007E00
003E00
001C00
ENDCHAR
STARTCHAR 1EB9
ENCODING 7865
SWIDTH 472 0
DWIDTH 21 0
BBX 21 43 1 -12
BITMAP
1FFE00
1FFE00
1FFE00
1C0000
1C0000
1C0000
1C0000
1C0000
1C0000
1C0000
1C0000
1C0000
1C0000
1C0000
FFFF80
FFFF80
FFFF80
1C0000
1C0000
1C0000
1C0000
1C0000
1C0000
1C0000
1C0000
1C0000
1C0000
1C0000
1FFFF8
1FFFF8
1FFFF8
000000
000000
000000
000000
000000
000000
003C00
003E00
007E00
007E00
003E00
001C00
ENDCHAR
STARTCHAR 1EBA
ENCODING 7866
SWIDTH 472 0
DWIDTH 21 0
BBX 21 42 1 0
BITMAP
00E000
006000
006000
00C000
00C000
01C000
01C000
00C000
000000
000000
000000
1FFE00
1FFE00
1FFE00
1C0000
1C0000
1C0000
1C0000
1C0000
1C0000
1C0000
1C0000
1C0000
1C0000
1C0000
FFFF80
FFFF80
FFFF80
1C0000
1C0000
1C0000
1C0000
1C0000
1C0000
1C0000
1C0000
1C0000
1C0000
1C0000
1FFFF8
1FFFF8
1FFFF8
ENDCHAR
STARTCHAR 1EBB
ENCODING 7867
SWIDTH 472 0
DWIDTH 21 0
BBX 21 42 1 0
BITMAP
00E000
006000
006000
00C000
00C000
01C000
01C000
00C000
000000
000000
000000
1FFE00
1FFE00
1FFE00
1C0000
1C0000
1C0000
1C0000
1C0000
1C0000
1C0000
1C0000
1C0000
1C0000
1C0000
FFFF80
FFFF80
FFFF80
1C0000
1C0000
1C0000
1C0000
1C0000
1C0000
1C0000
1C0000
1C0000
1C0000
1C0000
1FFFF8
1FFFF8
1FFFF8
ENDCHAR
STARTCHAR 1EBC
ENCODING 7868
SWIDTH 472 0
DWIDTH 21 0
BBX 21 39 1 0
BITMAP
0F8000
1FFC00
10FC00
000000
000000
000000
000000
000000
1FFE00
1FFE00
1FFE00
1C0000
1C0000
1C0000
1C0000
1C0000
1C0000
1C0000
1C0000
1C0000
1C0000
1C0000
FFFF80
FFFF80
FFFF80
1C0000
1C0000
1C0000
1C0000
1C0000
1C0000
1C0000
1C0000
1C0000
1C0000
1C0000
1FFFF8
1FFFF8
1FFFF8
ENDCHAR
STARTCHAR 1EBD
ENCODING 7869
SWIDTH 472 0
DWIDTH 21 0
BBX 21 39 1 0
BITMAP
0F8000
1FFC00
10FC00
000000
000000
000000
000000
000000
1FFE00
1FFE00
1FFE00
1C0000
1C0000
1C0000
1C0000
1C0000
1C0000
1C0000
1C0000
1C0000
1C0000
1C0000
FFFF80
FFFF80
FFFF80
1C0000
1C0000
1C0000
1C0000
1C0000
1C0000
1C0000
1C0000
1C0000
1C0000
1C0000
1FFFF8
1FFFF8
1FFFF8
ENDCHAR
STARTCHAR 1EBE
ENCODING 7870
SWIDTH 472 0
DWIDTH 21 0
BBX 21 44 1 0
BITMAP
000038
000070
000070
0000E0
01E0C0
01F180
03B800
073C00
0E1C00
1C0E00
000000
000000
000000
1FFE00
1FFE00
1FFE00
1C0000
1C0000
1C0000
1C0000
1C0000
1C0000
1C0000
1C0000
1C0000
1C0000
1C0000
FFFF80
FFFF80
FFFF80
1C0000
1C0000
1C0000
1C0000
1C0000
1C0000
1C0000
1C0000
1C0000
1C0000
1C0000
1FFFF8
1FFFF8
1FFFF8
ENDCHAR
STARTCHAR 1EBF
ENCODING 7871
SWIDTH 472 0
DWIDTH 21 0
BBX 21 44 1 0
BITMAP
000038
000070
000070
0000E0
01E0C0
01F180
03B800
073C00
0E1C00
1C0E00
000000
000000
000000
1FFE00
1FFE00
1FFE00
1C0000
1C0000
1C0000
1C0000
1C0000
1C0000
1C0000
1C0000
1C0000
1C0000
1C0000
FFFF80
FFFF80
FFFF80
1C0000
1C0000
1C0000
1C0000
1C0000
1C0000
1C0000
1C0000
1C0000
1C0000
1C0000
1FFFF8
1FFFF8
1FFFF8
ENDCHAR
STARTCHAR 1EC0
ENCODING 7872
SWIDTH 472 0
DWIDTH 21 0
BBX 24 44 -2 0
BITMAP
E00000
E00000
700000
380000
183C00
1C3E00
007700
00E780
01C380
0381C0
000000
000000
000000
03FFC0
03FFC0
03FFC0
038000
038000
038000
038000
038000
038000
038000
038000
038000
038000
038000
1FFFF0
1FFFF0
1FFFF0
038000
038000
038000
038000
038000
038000
038000
038000
038000
038000
038000
03FFFF
03FFFF
03FFFF
ENDCHAR
STARTCHAR 1EC1
ENCODING 7873
SWIDTH 472 0
DWIDTH 21 0
BBX 24 44 -2 0
BITMAP
E00000
E00000
700000
380000
183C00
1C3E00
007700
00E780
01C380
0381C0
000000
000000
000000
03FFC0
03FFC0
03FFC0
038000
038000
038000
038000
038000
038000
038000
038000
038000
038000
038000
1FFFF0
1FFFF0
1FFFF0
038000
038000
038000
038000
038000
038000
038000
038000
038000
038000
038000
03FFFF
03FFFF
03FFFF
ENDCHAR
STARTCHAR 1EC2
ENCODING 7874
SWIDTH 472 0
DWIDTH 21 0
BBX 21 46 1 0
BITMAP
000180
0001C0
0000C0
0001C0
000180
000380
01E380
01F180
03B980
073C00
0E1C00
1C0E00
000000
000000
000000
1FFE00
1FFE00
1FFE00
1C0000
1C0000
1C0000
1C0000
1C0000
1C0000
1C0000
1C0000
1C0000
1C0000
1C0000
FFFF80
FFFF80
FFFF80
1C0000
1C0000
1C0000
1C0000
1C0000
1C0000
1C0000
1C0000
1C0000
1C0000
1C0000
1FFFF8
1FFFF8
1FFFF8
ENDCHAR
STARTCHAR 1EC3
ENCODING 7875
SWIDTH 472 0
DWIDTH 21 0
BBX 21 46 1 0
BITMAP
000180
0001C0
0000C0
0001C0
000180
000380
01E380
01F180
03B980
073C00
0E1C00
1C0E00
000000
000000
000000
1FFE00
1FFE00
1FFE00
1C0000
1C0000
1C0000
1C0000
1C0000
1C0000
1C0000
1C0000
1C0000
1C0000
1C0000
FFFF80
FFFF80
FFFF80
1C0000
1C0000
1C0000
1C0000
1C0000
1C0000
1C0000
1C0000
1C0000
1C0000
1C0000
1FFFF8
1FFFF8
1FFFF8
ENDCHAR
STARTCHAR 1EC4
ENCODING 7876
SWIDTH 472 0
DWIDTH 21 0
BBX 21 44 1 0
BITMAP
003C00
007FF0
0047F0
000000
01E000
01F000
03B800
073C00
0E1C00
1C0E00
000000
000000
000000
1FFE00
1FFE00
1FFE00
1C0000
1C0000
1C0000
1C0000
1C0000
1C0000
1C0000
1C0000
1C0000
1C0000
1C0000
FFFF80
FFFF80
FFFF80
1C0000
1C0000
1C0000
1C0000
1C0000
1C0000
1C0000
1C0000
1C0000
1C0000
1C0000
1FFFF8
1FFFF8
1FFFF8
ENDCHAR
STARTCHAR 1EC5
ENCODING 7877
SWIDTH 472 0
DWIDTH 21 0
BBX 21 44 1 0
BITMAP
003C00
007FF0
0047F0
000000
01E000
01F000
03B800
073C00
0E1C00
1C0E00
000000
000000
000000
1FFE00
1FFE00
1FFE00
1C0000
1C0000
1C0000
1C0000
1C0000
1C0000
1C0000
1C0000
1C0000
1C0000
1C0000
FFFF80
FFFF80
FFFF80
1C0000
1C0000
1C0000
1C0000
1C0000
1C0000
1C0000
1C0000
1C0000
1C0000
1C0000
1FFFF8
1FFFF8
1FFFF8
ENDCHAR
STARTCHAR 1EC6
ENCODING 7878
SWIDTH 472 0
DWIDTH 21 0
BBX 21 52 1 -12
BITMAP
01E000
01F000
03B800
073C00
0E1C00
1C0E00
000000
000000
000000
1FFE00
1FFE00
1FFE00
1C0000
1C0000
1C0000
1C0000
1C0000
1C0000
1C0000
1C0000
1C0000
1C0000
1C0000
FFFF80
FFFF80
FFFF80
1C0000
1C0000
1C0000
1C0000
1C0000
1C0000
1C0000
1C0000
1C0000
1C0000
1C0000
1FFFF8
1FFFF8
1FFFF8
000000
000000
000000
000000
000000
000000
003C00
003E00
007E00
007E00
003E00
001C00
ENDCHAR
STARTCHAR 1EC7
ENCODING 7879
SWIDTH 472 0
DWIDTH 21 0
BBX 21 52 1 -12
BITMAP
01E000
01F000
03B800
073C00
0E1C00
1C0E00
000000
000000
000000
1FFE00
1FFE00
1FFE00
1C0000
1C0000
1C0000
1C0000
1C0000
1C0000
1C0000
1C0000
1C0000
1C0000
1C0000
FFFF80
FFFF80
FFFF80
1C0000
1C0000
1C0000
1C0000
1C0000
1C0000
1C0000
1C0000
1C0000
1C0000
1C0000
1FFFF8
1FFFF8
1FFFF8
000000
000000
000000
000000
000000
000000
003C00
003E00
007E00
007E00
003E00
001C00
ENDCHAR
STARTCHAR 1EC8
ENCODING 7880
SWIDTH 157 0
DWIDTH 7 0
BBX 4 30 2 0
BITMAP
60
70
70
60
E0
C0
E0
E0
00
00
00
F0
F0
F0
F0
F0
F0
F0
F0
F0
F0
F0
F0
F0
F0
F0
F0
F0
F0
F0
ENDCHAR
STARTCHAR 1EC9
ENCODING 7881
SWIDTH 157 0
DWIDTH 7 0
BBX 4 30 2 0
BITMAP
60
70
70
60
E0
C0
E0
E0
00
00
00
F0
F0
F0
F0
F0
F0
F0
F0
F0
F0
F0
F0
F0
F0
F0
F0
F0
F0
F0
ENDCHAR
STARTCHAR 1ECA
ENCODING 7882
SWIDTH 157 0
DWIDTH 7 0
BBX 10 46 -1 -11
BITMAP
0800
0C00
0C00
FFC0
3F00
1E00
3E00
3300
4100
0000
0000
0000
0000
0000
0000
1C00
1C00
1C00
1C00
1C00
1C00
1C00
1C00
1C00
1C00
1C00
1C00
1C00
1C00
1C00
1C00
1C00
1C00
1C00
0000
0000
0000
0000
0000
0000
1E00
3F00
3F00
3F00
3E00
1C00
ENDCHAR
STARTCHAR 1ECB
ENCODING 7883
SWIDTH 157 0
DWIDTH 7 0
BBX 10 46 -1 -11
BITMAP
0800
0C00
0C00
FFC0
3F00
1E00
3E00
3300
4100
0000
0000
0000
0000
0000
0000
1C00
1C00
1C00
1C00
1C00
1C00
1C00
1C00
1C00
1C00
1C00
1C00
1C00
1C00
1C00
1C00
1C00
1C00
1C00
0000
0000
0000
0000
0000
0000
1E00
3F00
3F00
3F00
3E00
1C00
ENDCHAR
STARTCHAR 1ECC
ENCODING 7884
SWIDTH 810 0
DWIDTH 36 0
BBX 34 44 1 -12
BITMAP
0003F00000
003FFF0000
00FFFFC000
01FE1FE000
03E001F000
07C0007800
0F00003C00
1E00001E00
3C00000F00
3C00000F00
7800000780
7800000780
7000000380
7000000380
70000003C0
F0000003C0
F0000003C0
F0000003C0
70000003C0
7000000380
7000000380
7800000780
3800000780
3C00000F00
3C00000F00
1E00001E00
0F00003C00
07C000F800
03F003F000
01FF3FE000
00FFFFC000
001FFE0000
0003E00000
0000000000
0000000000
0000000000
0000000000
0000000000
0001E00000
0003F00000
0003F00000
0003F00000
0003F00000
0000C00000
ENDCHAR
STARTCHAR 1ECD
ENCODING 7885
SWIDTH 810 0
DWIDTH 36 0
BBX 34 44 1 -12
BITMAP
0003F00000
003FFF0000
00FFFFC000
01FE1FE000
03E001F000
07C0007800
0F00003C00
1E00001E00
3C00000F00
3C00000F00
7800000780
7800000780
7000000380
7000000380
70000003C0
F0000003C0
F0000003C0
F0000003C0
70000003C0
7000000380
7000000380
7800000780
3800000780
3C00000F00
3C00000F00
1E00001E00
0F00003C00
07C000F800
03F003F000
01FF3FE000
00FFFFC000
001FFE0000
0003E00000
0000000000
0000000000
0000000000
0000000000
0000000000
0001E00000
0003F00000
0003F00000
0003F00000
0003F00000
0000C00000
ENDCHAR
STARTCHAR 1ECE
ENCODING 7886
SWIDTH 810 0
DWIDTH 36 0
BBX 34 43 1 -1
BITMAP
0000C00000
0000E00000
0000E00000
0000C00000
0001C00000
0001C00000
0001C00000
0000C00000
0000000000
0000000000
0003F00000
003FFF0000
00FFFFC000
01FE1FE000
03E001F000
07C0007800
0F00003C00
1E00001E00
3C00000F00
3C00000F00
7800000780
7800000780
7000000380
7000000380
70000003C0
F0000003C0
F0000003C0
F0000003C0
70000003C0
7000000380
7000000380
7800000780
3800000780
3C00000F00
3C00000F00
1E00001E00
0F00003C00
07C000F800
03F003F000
01FF3FE000
00FFFFC000
001FFE0000
0003E00000
ENDCHAR
STARTCHAR 1ECF
ENCODING 7887
SWIDTH 810 0
DWIDTH 36 0
BBX 34 43 1 -1
BITMAP
0000C00000
0000E00000
0000E00000
0000C00000
0001C00000
0001C00000
0001C00000
0000C00000
0000000000
0000000000
0003F00000
003FFF0000
00FFFFC000
01FE1FE000
03E001F000
07C0007800
0F00003C00
1E00001E00
3C00000F00
3C00000F00
7800000780
7800000780
7000000380
7000000380
70000003C0
F0000003C0
F0000003C0
F0000003C0
70000003C0
7000000380
7000000380
7800000780
3800000780
3C00000F00
3C00000F00
1E00001E00
0F00003C00
07C000F800
03F003F000
01FF3FE000
00FFFFC000
001FFE0000
0003E00000
ENDCHAR
STARTCHAR 1ED0
ENCODING 7888
SWIDTH 810 0
DWIDTH 36 0
BBX 34 45 1 -1
BITMAP
0000003800
0000007000
0000006000
000000E000
0001E1C000
0003F18000
0007F80000
0007380000
000E1C0000
001C0E0000
0000000000
0000000000
0003F00000
003FFF0000
00FFFFC000
01FE1FE000
03E001F000
07C0007800
0F00003C00
1E00001E00
3C00000F00
3C00000F00
7800000780
7800000780
7000000380
7000000380
70000003C0
F0000003C0
F0000003C0
F0000003C0
70000003C0
7000000380
7000000380
7800000780
3800000780
3C00000F00
3C00000F00
1E00001E00
0F00003C00
07C000F800
03F003F000
01FF3FE000
00FFFFC000
001FFE0000
0003E00000
ENDCHAR
STARTCHAR 1ED1
ENCODING 7889
SWIDTH 810 0
DWIDTH 36 0
BBX 34 45 1 -1
BITMAP
0000003800
0000007000
0000006000
000000E000
0001E1C000
0003F18000
0007F80000
0007380000
000E1C0000
001C0E0000
0000000000
0000000000
0003F00000
003FFF0000
00FFFFC000
01FE1FE000
03E001F000
07C0007800
0F00003C00
1E00001E00
3C00000F00
3C00000F00
7800000780
7800000780
7000000380
7000000380
70000003C0
F0000003C0
F0000003C0
F0000003C0
70000003C0
7000000380
7000000380
7800000780
3800000780
3C00000F00
3C00000F00
1E00001E00
0F00003C00
07C000F800
03F003F000
01FF3FE000
00FFFFC000
001FFE0000
0003E00000
ENDCHAR
STARTCHAR 1ED2
ENCODING 7890
SWIDTH 810 0
DWIDTH 36 0
BBX 34 45 1 -1
BITMAP
0F00000000
0700000000
0380000000
0180000000
01C1E00000
00E3F00000
0003F80000
0007380000
000E1C0000
001C0E0000
0000000000
0000000000
0003F00000
003FFF0000
00FFFFC000
01FE1FE000
03E001F000
07C0007800
0F00003C00
1E00001E00
3C00000F00
3C00000F00
7800000780
7800000780
7000000380
7000000380
70000003C0
F0000003C0
F0000003C0
F0000003C0
70000003C0
7000000380
7000000380
7800000780
3800000780
3C00000F00
3C00000F00
1E00001E00
0F00003C00
07C000F800
03F003F000
01FF3FE000
00FFFFC000
001FFE0000
0003E00000
ENDCHAR
STARTCHAR 1ED3
ENCODING 7891
SWIDTH 810 0
DWIDTH 36 0
BBX 34 45 1 -1
BITMAP
0F00000000
0700000000
0380000000
0180000000
01C1E00000
00E3F00000
0003F80000
0007380000
000E1C0000
001C0E0000
0000000000
0000000000
0003F00000
003FFF0000
00FFFFC000
01FE1FE000
03E001F000
07C0007800
0F00003C00
1E00001E00
3C00000F00
3C00000F00
7800000780
7800000780
7000000380
7000000380
70000003C0
F0000003C0
F0000003C0
F0000003C0
70000003C0
7000000380
7000000380
7800000780
3800000780
3C00000F00
3C00000F00
1E00001E00
0F00003C00
07C000F800
03F003F000
01FF3FE000
00FFFFC000
001FFE0000
0003E00000
ENDCHAR
STARTCHAR 1ED4
ENCODING 7892
SWIDTH 810 0
DWIDTH 36 0
BBX 34 47 1 -1
BITMAP
0000018000
0000018000
000001C000
0000018000
0000018000
0000030000
0001E30000
0003F38000
0007F98000
0007380000
000E1C0000
001C0E0000
0000000000
0000000000
0003F00000
003FFF0000
00FFFFC000
01FE1FE000
03E001F000
07C0007800
0F00003C00
1E00001E00
3C00000F00
3C00000F00
7800000780
7800000780
7000000380
7000000380
70000003C0
F0000003C0
F0000003C0
F0000003C0
70000003C0
7000000380
7000000380
7800000780
3800000780
3C00000F00
3C00000F00
1E00001E00
0F00003C00
07C000F800
03F003F000
01FF3FE000
00FFFFC000
001FFE0000
0003E00000
ENDCHAR
STARTCHAR 1ED5
ENCODING 7893
SWIDTH 810 0
DWIDTH 36 0
BBX 34 47 1 -1
BITMAP
0000018000
0000018000
000001C000
0000018000
0000018000
0000030000
0001E30000
0003F38000
0007F98000
0007380000
000E1C0000
001C0E0000
0000000000
0000000000
0003F00000
003FFF0000
00FFFFC000
01FE1FE000
03E001F000
07C0007800
0F00003C00
1E00001E00
3C00000F00
3C00000F00
7800000780
7800000780
7000000380
7000000380
70000003C0
F0000003C0
F0000003C0
F0000003C0
70000003C0
7000000380
7000000380
7800000780
3800000780
3C00000F00
3C00000F00
1E00001E00
0F00003C00
07C000F800
03F003F000
01FF3FE000
00FFFFC000
001FFE0000
0003E00000
ENDCHAR
STARTCHAR 1ED6
ENCODING 7894
SWIDTH 810 0
DWIDTH 36 0
BBX 34 45 1 -1
BITMAP
00007C0000
00007FE000
000047E000
0000000000
0001E00000
0003F00000
0007F80000
0007380000
000E1C0000
001C0E0000
0000000000
0000000000
0003F00000
003FFF0000
00FFFFC000
01FE1FE000
03E001F000
07C0007800
0F00003C00
1E00001E00
3C00000F00
3C00000F00
7800000780
7800000780
7000000380
7000000380
70000003C0
F0000003C0
F0000003C0
F0000003C0
70000003C0
7000000380
7000000380
7800000780
3800000780
3C00000F00
3C00000F00
1E00001E00
0F00003C00
07C000F800
03F003F000
01FF3FE000
00FFFFC000
001FFE0000
0003E00000
ENDCHAR
STARTCHAR 1ED7
ENCODING 7895
SWIDTH 810 0
DWIDTH 36 0
BBX 34 45 1 -1
BITMAP
00007C0000
00007FE000
000047E000
0000000000
0001E00000
0003F00000
0007F80000
0007380000
000E1C0000
001C0E0000
0000000000
0000000000
0003F00000
003FFF0000
00FFFFC000
01FE1FE000
03E001F000
07C0007800
0F00003C00
1E00001E00
3C00000F00
3C00000F00
7800000780
7800000780
7000000380
7000000380
70000003C0
F0000003C0
F0000003C0
F0000003C0
70000003C0
7000000380
7000000380
7800000780
3800000780
3C00000F00
3C00000F00
1E00001E00
0F00003C00
07C000F800
03F003F000
01FF3FE000
00FFFFC000
001FFE0000
0003E00000
ENDCHAR
STARTCHAR 1ED8
ENCODING 7896
SWIDTH 810 0
DWIDTH 36 0
BBX 34 52 1 -12
BITMAP
0001E00000
0003F00000
0007F80000
0007380000
000E1C0000
001C0E0000
0000000000
0000000000
0003F00000
003FFF0000
00FFFFC000
01FE1FE000
03E001F000
07C0007800
0F00003C00
1E00001E00
3C00000F00
3C00000F00
7800000780
7800000780
7000000380
7000000380
70000003C0
F0000003C0
F0000003C0
F0000003C0
70000003C0
7000000380
7000000380
7800000780
3800000780
3C00000F00
3C00000F00
1E00001E00
0F00003C00
07C000F800
03F003F000
01FF3FE000
00FFFFC000
001FFE0000
0003E00000
0000000000
0000000000
0000000000
0000000000
0000000000
0001E00000
0003F00000
0003F00000
0003F00000
0003F00000
0000C00000
ENDCHAR
STARTCHAR 1ED9
ENCODING 7897
SWIDTH 810 0
DWIDTH 36 0
BBX 34 52 1 -12
BITMAP
0001E00000
0003F00000
0007F80000
0007380000
000E1C0000
001C0E0000
0000000000
0000000000
0003F00000
003FFF0000
00FFFFC000
01FE1FE000
03E001F000
07C0007800
0F00003C00
1E00001E00
3C00000F00
3C00000F00
7800000780
7800000780
7000000380
7000000380
70000003C0
F0000003C0
F0000003C0
F0000003C0
70000003C0
7000000380
7000000380
7800000780
3800000780
3C00000F00
3C00000F00
1E00001E00
0F00003C00
07C000F800
03F003F000
01FF3FE000
00FFFFC000
001FFE0000
0003E00000
0000000000
0000000000
0000000000
0000000000
0000000000
0001E00000
0003F00000
0003F00000
0003F00000
0003F00000
0000C00000
ENDCHAR
STARTCHAR 1EDA
ENCODING 7898
SWIDTH 810 0
DWIDTH 36 0
BBX 34 41 1 -1
BITMAP
00003C0000
0000380000
0000700000
0000600000
0000E00000
0001C01800
0000001800
0000003800
0003F03800
003FFFF000
00FFFFC000
01FE1FE000
03E001F000
07C0007800
0F00003C00
1E00001E00
3C00000F00
3C00000F00
7800000780
7800000780
7000000380
7000000380
70000003C0
F0000003C0
F0000003C0
F0000003C0
70000003C0
7000000380
7000000380
7800000780
3800000780
3C00000F00
3C00000F00
1E00001E00
0F00003C00
07C000F800
03F003F000
01FF3FE000
00FFFFC000
001FFE0000
0003E00000
ENDCHAR
STARTCHAR 1EDB
ENCODING 7899
SWIDTH 810 0
DWIDTH 36 0
BBX 34 41 1 -1
BITMAP
00003C0000
0000380000
0000700000
0000600000
0000E00000
0001C01800
0000001800
0000003800
0003F03800
003FFFF000
00FFFFC000
01FE1FE000
03E001F000
07C0007800
0F00003C00
1E00001E00
3C00000F00
3C00000F00
7800000780
7800000780
7000000380
7000000380
70000003C0
F0000003C0
F0000003C0
F0000003C0
70000003C0
7000000380
7000000380
7800000780
3800000780
3C00000F00
3C00000F00
1E00001E00
0F00003C00
07C000F800
03F003F000
01FF3FE000
00FFFFC000
001FFE0000
0003E00000
ENDCHAR
STARTCHAR 1EDC
ENCODING 7900
SWIDTH 810 0
DWIDTH 36 0
BBX 34 41 1 -1
BITMAP
000E000000
0007000000
0003800000
0001800000
0001C00000
0000E01800
0000001800
0000003800
0003F03800
003FFFF000
00FFFFC000
01FE1FE000
03E001F000
07C0007800
0F00003C00
1E00001E00
3C00000F00
3C00000F00
7800000780
7800000780
7000000380
7000000380
70000003C0
F0000003C0
F0000003C0
F0000003C0
70000003C0
7000000380
7000000380
7800000780
3800000780
3C00000F00
3C00000F00
1E00001E00
0F00003C00
07C000F800
03F003F000
01FF3FE000
00FFFFC000
001FFE0000
0003E00000
ENDCHAR
STARTCHAR 1EDD
ENCODING 7901
SWIDTH 810 0
DWIDTH 36 0
BBX 34 41 1 -1
BITMAP
000E000000
0007000000
0003800000
0001800000
0001C00000
0000E01800
0000001800
0000003800
0003F03800
003FFFF000
00FFFFC000
01FE1FE000
03E001F000
07C0007800
0F00003C00
1E00001E00
3C00000F00
3C00000F00
7800000780
7800000780
7000000380
7000000380
70000003C0
F0000003C0
F0000003C0
F0000003C0
70000003C0
7000000380
7000000380
7800000780
3800000780
3C00000F00
3C00000F00
1E00001E00
0F00003C00
07C000F800
03F003F000
01FF3FE000
00FFFFC000
001FFE0000
0003E00000
ENDCHAR
STARTCHAR 1EDE
ENCODING 7902
SWIDTH 810 0
DWIDTH 36 0
BBX 34 43 1 -1
BITMAP
0000C00000
0000E00000
0000E00000
0000C00000
0001C00000
0001C00000
0001C00000
0000C01800
0000001800
0000003800
0003F03800
003FFFF000
00FFFFC000
01FE1FE000
03E001F000
07C0007800
0F00003C00
1E00001E00
3C00000F00
3C00000F00
7800000780
7800000780
7000000380
7000000380
70000003C0
F0000003C0
F0000003C0
F0000003C0
70000003C0
7000000380
7000000380
7800000780
3800000780
3C00000F00
3C00000F00
1E00001E00
0F00003C00
07C000F800
03F003F000
01FF3FE000
00FFFFC000
001FFE0000
0003E00000
ENDCHAR
STARTCHAR 1EDF
ENCODING 7903
SWIDTH 810 0
DWIDTH 36 0
BBX 34 43 1 -1
BITMAP
0000C00000
0000E00000
0000E00000
0000C00000
0001C00000
0001C00000
0001C00000
0000C01800
0000001800
0000003800
0003F03800
003FFFF000
00FFFFC000
01FE1FE000
03E001F000
07C0007800
0F00003C00
1E00001E00
3C00000F00
3C00000F00
7800000780
7800000780
7000000380
7000000380
70000003C0
F0000003C0
F0000003C0
F0000003C0
70000003C0
7000000380
7000000380
7800000780
3800000780
3C00000F00
3C00000F00
1E00001E00
0F00003C00
07C000F800
03F003F000
01FF3FE000
00FFFFC000
001FFE0000
0003E00000
ENDCHAR
STARTCHAR 1EE0
ENCODING 7904
SWIDTH 810 0
DWIDTH 36 0
BBX 34 40 1 -1
BITMAP
001F840000
001FFC0000
0010FC0000
0000000000
0000001800
0000001800
0000003800
0003F03800
003FFFF000
00FFFFC000
01FE1FE000
03E001F000
07C0007800
0F00003C00
1E00001E00
3C00000F00
3C00000F00
7800000780
7800000780
7000000380
7000000380
70000003C0
F0000003C0
F0000003C0
F0000003C0
70000003C0
7000000380
7000000380
7800000780
3800000780
3C00000F00
3C00000F00
1E00001E00
0F00003C00
07C000F800
03F003F000
01FF3FE000
00FFFFC000
001FFE0000
0003E00000
ENDCHAR
STARTCHAR 1EE1
ENCODING 7905
SWIDTH 810 0
DWIDTH 36 0
BBX 34 40 1 -1
BITMAP
001F840000
001FFC0000
0010FC0000
0000000000
0000001800
0000001800
0000003800
0003F03800
003FFFF000
00FFFFC000
01FE1FE000
03E001F000
07C0007800
0F00003C00
1E00001E00
3C00000F00
3C00000F00
7800000780
7800000780
7000000380
7000000380
70000003C0
F0000003C0
F0000003C0
F0000003C0
70000003C0
7000000380
7000000380
7800000780
3800000780
3C00000F00
3C00000F00
1E00001E00
0F00003C00
07C000F800
03F003F000
01FF3FE000
00FFFFC000
001FFE0000
0003E00000
ENDCHAR
STARTCHAR 1EE2
ENCODING 7906
SWIDTH 810 0
DWIDTH 36 0
BBX 34 47 1 -12
BITMAP
0000001800
0000001800
0000003800
0003F03800
003FFFF000
00FFFFC000
01FE1FE000
03E001F000
07C0007800
0F00003C00
1E00001E00
3C00000F00
3C00000F00
7800000780
7800000780
7000000380
7000000380
70000003C0
F0000003C0
F0000003C0
F0000003C0
70000003C0
7000000380
7000000380
7800000780
3800000780
3C00000F00
3C00000F00
1E00001E00
0F00003C00
07C000F800
03F003F000
01FF3FE000
00FFFFC000
001FFE0000
0003E00000
0000000000
0000000000
0000000000
0000000000
0000000000
0001E00000
0003F00000
0003F00000
0003F00000
0003F00000
0000C00000
ENDCHAR
STARTCHAR 1EE3
ENCODING 7907
SWIDTH 810 0
DWIDTH 36 0
BBX 34 47 1 -12
BITMAP
0000001800
0000001800
0000003800
0003F03800
003FFFF000
00FFFFC000
01FE1FE000
03E001F000
07C0007800
0F00003C00
1E00001E00
3C00000F00
3C00000F00
7800000780
7800000780
7000000380
7000000380
70000003C0
F0000003C0
F0000003C0
F0000003C0
70000003C0
7000000380
7000000380
7800000780
3800000780
3C00000F00
3C00000F00
1E00001E00
0F00003C00
07C000F800
03F003F000
01FF3FE000
00FFFFC000
001FFE0000
0003E00000
0000000000
0000000000
0000000000
0000000000
0000000000
0001E00000
0003F00000
0003F00000
0003F00000
0003F00000
0000C00000
ENDCHAR
STARTCHAR 1EE4
ENCODING 7908
SWIDTH 495 0
DWIDTH 22 0
BBX 18 43 2 -12
BITMAP
E001C0
E001C0
E001C0
E001C0
E001C0
E001C0
E001C0
E001C0
E001C0
E001C0
E001C0
E001C0
E001C0
E001C0
E001C0
E001C0
E001C0
E001C0
E001C0
E001C0
E001C0
E001C0
E001C0
E001C0
F003C0
7003C0
780780
7C0F80
3FFF00
1FFE00
0FFC00
01E000
000000
000000
000000
000000
000000
01E000
03F000
03F000
03F000
03F000
00E000
ENDCHAR
STARTCHAR 1EE5
ENCODING 7909
SWIDTH 495 0
DWIDTH 22 0
BBX 18 43 2 -12
BITMAP
E001C0
E001C0
E001C0
E001C0
E001C0
E001C0
E001C0
E001C0
E001C0
E001C0
E001C0
E001C0
E001C0
E001C0
E001C0
E001C0
E001C0
E001C0
E001C0
E001C0
E001C0
E001C0
E001C0
E001C0
F003C0
7003C0
780780
7C0F80
3FFF00
1FFE00
0FFC00
01E000
000000
000000
000000
000000
000000
01E000
03F000
03F000
03F000
03F000
00E000
ENDCHAR
STARTCHAR 1EE6
ENCODING 7910
SWIDTH 495 0
DWIDTH 22 0
BBX 18 43 2 -1
BITMAP
00C000
00E000
00E000
00C000
01C000
01C000
01C000
00C000
000000
000000
000000
E001C0
E001C0
E001C0
E001C0
E001C0
E001C0
E001C0
E001C0
E001C0
E001C0
E001C0
E001C0
E001C0
E001C0
E001C0
E001C0
E001C0
E001C0
E001C0
E001C0
E001C0
E001C0
E001C0
E001C0
F003C0
7003C0
780780
7C0F80
3FFF00
1FFE00
0FFC00
01E000
ENDCHAR
STARTCHAR 1EE7
ENCODING 7911
SWIDTH 495 0
DWIDTH 22 0
BBX 18 43 2 -1
BITMAP
00C000
00E000
00E000
00C000
01C000
01C000
01C000
00C000
000000
000000
000000
E001C0
E001C0
E001C0
E001C0
E001C0
E001C0
E001C0
E001C0
E001C0
E001C0
E001C0
E001C0
E001C0
E001C0
E001C0
E001C0
E001C0
E001C0
E001C0
E001C0
E001C0
E001C0
E001C0
E001C0
F003C0
7003C0
780780
7C0F80
3FFF00
1FFE00
0FFC00
01E000
ENDCHAR
STARTCHAR 1EE8
ENCODING 7912
SWIDTH 495 0
DWIDTH 22 0
BBX 21 41 2 -1
BITMAP
003C00
003800
007000
006000
00E000
01C018
000018
000038
000038
E001F0
E001C0
E001C0
E001C0
E001C0
E001C0
E001C0
E001C0
E001C0
E001C0
E001C0
E001C0
E001C0
E001C0
E001C0
E001C0
E001C0
E001C0
E001C0
E001C0
E001C0
E001C0
E001C0
E001C0
F003C0
7003C0
780780
7C0F80
3FFF00
1FFE00
0FFC00
01E000
ENDCHAR
STARTCHAR 1EE9
ENCODING 7913
SWIDTH 495 0
DWIDTH 22 0
BBX 21 41 2 -1
BITMAP
003C00
003800
007000
006000
00E000
01C018
000018
000038
000038
E001F0
E001C0
E001C0
E001C0
E001C0
E001C0
E001C0
E001C0
E001C0
E001C0
E001C0
E001C0
E001C0
E001C0
E001C0
E001C0
E001C0
E001C0
E001C0
E001C0
E001C0
E001C0
E001C0
E001C0
F003C0
7003C0
780780
7C0F80
3FFF00
1FFE00
0FFC00
01E000
ENDCHAR
STARTCHAR 1EEA
ENCODING 7914
SWIDTH 495 0
DWIDTH 22 0
BBX 21 41 2 -1
BITMAP
0F0000
070000
038000
018000
01C000
00E018
000018
000038
000038
E001F0
E001C0
E001C0
E001C0
E001C0
E001C0
E001C0
E001C0
E001C0
E001C0
E001C0
E001C0
E001C0
E001C0
E001C0
E001C0
E001C0
E001C0
E001C0
E001C0
E001C0
E001C0
E001C0
E001C0
F003C0
7003C0
780780
7C0F80
3FFF00
1FFE00
0FFC00
01E000
ENDCHAR
STARTCHAR 1EEB
ENCODING 7915
SWIDTH 495 0
DWIDTH 22 0
BBX 21 41 2 -1
BITMAP
0F0000
070000
038000
018000
01C000
00E018
000018
000038
000038
E001F0
E001C0
E001C0
E001C0
E001C0
E001C0
E001C0
E001C0
E001C0
E001C0
E001C0
E001C0
E001C0
E001C0
E001C0
E001C0
E001C0
E001C0
E001C0
E001C0
E001C0
E001C0
E001C0
E001C0
F003C0
7003C0
780780
7C0F80
3FFF00
1FFE00
0FFC00
01E000
ENDCHAR
STARTCHAR 1EEC
ENCODING 7916
SWIDTH 495 0
DWIDTH 22 0
BBX 21 43 2 -1
BITMAP
00C000
00E000
00E000
00C000
01C000
01C000
01C000
00C018
000018
000038
000038
E001F0
E001C0
E001C0
E001C0
E001C0
E001C0
E001C0
E001C0
E001C0
E001C0
E001C0
E001C0
E001C0
E001C0
E001C0
E001C0
E001C0
E001C0
E001C0
E001C0
E001C0
E001C0
E001C0
E001C0
F003C0
7003C0
780780
7C0F80
3FFF00
1FFE00
0FFC00
01E000
ENDCHAR
STARTCHAR 1EED
ENCODING 7917
SWIDTH 495 0
DWIDTH 22 0
BBX 21 43 2 -1
BITMAP
00C000
00E000
00E000
00C000
01C000
01C000
01C000
00C018
000018
000038
000038
E001F0
E001C0
E001C0
E001C0
E001C0
E001C0
E001C0
E001C0
E001C0
E001C0
E001C0
E001C0
E001C0
E001C0
E001C0
E001C0
E001C0
E001C0
E001C0
E001C0
E001C0
E001C0
E001C0
E001C0
F003C0
7003C0
780780
7C0F80
3FFF00
1FFE00
0FFC00
01E000
ENDCHAR
STARTCHAR 1EEE
ENCODING 7918
SWIDTH 495 0
DWIDTH 22 0
BBX 21 40 2 -1
BITMAP
1F8400
1FFC00
10FC00
000000
000018
000018
000038
000038
E001F0
E001C0
E001C0
E001C0
E001C0
E001C0
E001C0
E001C0
E001C0
E001C0
E001C0
E001C0
E001C0
E001C0
E001C0
E001C0
E001C0
E001C0
E001C0
E001C0
E001C0
E001C0
E001C0
E001C0
F003C0
7003C0
780780
7C0F80
3FFF00
1FFE00
0FFC00
01E000
ENDCHAR
STARTCHAR 1EEF
ENCODING 7919
SWIDTH 495 0
DWIDTH 22 0
BBX 21 40 2 -1
BITMAP
1F8400
1FFC00
10FC00
000000
000018
000018
000038
000038
E001F0
E001C0
E001C0
E001C0
E001C0
E001C0
E001C0
E001C0
E001C0
E001C0
E001C0
E001C0
E001C0
E001C0
E001C0
E001C0
E001C0
E001C0
E001C0
E001C0
E001C0
E001C0
E001C0
E001C0
F003C0
7003C0
780780
7C0F80
3FFF00
1FFE00
0FFC00
01E000
ENDCHAR
STARTCHAR 1EF0
ENCODING 7920
SWIDTH 495 0
DWIDTH 22 0
BBX 21 47 2 -12
BITMAP
000018
000018
000038
000038
E001F0
E001C0
E001C0
E001C0
E001C0
E001C0
E001C0
E001C0
E001C0
E001C0
E001C0
E001C0
E001C0
E001C0
E001C0
E001C0
E001C0
E001C0
E001C0
E001C0
E001C0
E001C0
E001C0
E001C0
F003C0
7003C0
780780
7C0F80
3FFF00
1FFE00
0FFC00
01E000
000000
000000
000000
000000
000000
01E000
03F000
03F000
03F000
03F000
00E000
ENDCHAR
STARTCHAR 1EF1
ENCODING 7921
SWIDTH 495 0
DWIDTH 22 0
BBX 21 47 2 -12
BITMAP
000018
000018
000038
000038
E001F0
E001C0
E001C0
E001C0
E001C0
E001C0
E001C0
E001C0
E001C0
E001C0
E001C0
E001C0
E001C0
E001C0
E001C0
E001C0
E001C0
E001C0
E001C0
E001C0
E001C0
E001C0
E001C0
E001C0
F003C0
7003C0
780780
7C0F80
3FFF00
1FFE00
0FFC00
01E000
000000
000000
000000
000000
000000
01E000
03F000
03F000
03F000
03F000
00E000
ENDCHAR
STARTCHAR 1EF2
ENCODING 7922
SWIDTH 472 0
DWIDTH 21 0
BBX 18 40 2 0
BITMAP
0E0000
070000
038000
038000
01C000
00C000
000000
000000
000000
E001C0
E001C0
E001C0
E001C0
E001C0
E001C0
E001C0
E001C0
E001C0
E001C0
E001C0
E001C0
E001C0
E001C0
E001C0
E003C0
E003C0
F00380
700780
780F00
3FFF00
1FFE00
0FF800
01C000
01C000
01C000
01C000
01C000
01C000
01C000
01C000
ENDCHAR
STARTCHAR 1EF3
ENCODING 7923
SWIDTH 472 0
DWIDTH 21 0
BBX 18 40 2 0
BITMAP
0E0000
070000
038000
038000
01C000
00C000
000000
000000
000000
E001C0
E001C0
E001C0
E001C0
E001C0
E001C0
E001C0
E001C0
E001C0
E001C0
E001C0
E001C0
E001C0
E001C0
E001C0
E003C0
E003C0
F00380
700780
780F00
3FFF00
1FFE00
0FF800
01C000
01C000
01C000
01C000
01C000
01C000
01C000
01C000
ENDCHAR
STARTCHAR 1EF4
ENCODING 7924
SWIDTH 472 0
DWIDTH 21 0
BBX 18 43 2 -12
BITMAP
E001C0
E001C0
E001C0
E001C0
E001C0
E001C0
E001C0
E001C0
E001C0
E001C0
E001C0
E001C0
E001C0
E001C0
E001C0
E003C0
E003C0
F00380
700780
780F00
3FFF00
1FFE00
0FF800
01C000
01C000
01C000
01C000
01C000
01C000
01C000
01C000
000000
000000
000000
000000
000000
000000
01E000
03F000
03F000
03F000
03E000
01C000
ENDCHAR
STARTCHAR 1EF5
ENCODING 7925
SWIDTH 472 0
DWIDTH 21 0
BBX 18 43 2 -12
BITMAP
E001C0
E001C0
E001C0
E001C0
E001C0
E001C0
E001C0
E001C0
E001C0
E001C0
E001C0
E001C0
E001C0
E001C0
E001C0
E003C0
E003C0
F00380
700780
780F00
3FFF00
1FFE00
0FF800
01C000
01C000
01C000
01C000
01C000
01C000
01C000
01C000
000000
000000
000000
000000
000000
000000
01E000
03F000
03F000
03F000
03E000
01C000
ENDCHAR
STARTCHAR 1EF6
ENCODING 7926
SWIDTH 472 0
DWIDTH 21 0
BBX 18 42 2 0
BITMAP
00C000
00C000
00C000
00C000
01C000
018000
018000
01C000
000000
000000
000000
E001C0
E001C0
E001C0
E001C0
E001C0
E001C0
E001C0
E001C0
E001C0
E001C0
E001C0
E001C0
E001C0
E001C0
E001C0
E003C0
E003C0
F00380
700780
780F00
3FFF00
1FFE00
0FF800
01C000
01C000
01C000
01C000
01C000
01C000
01C000
01C000
ENDCHAR
STARTCHAR 1EF7
ENCODING 7927
SWIDTH 472 0
DWIDTH 21 0
BBX 18 42 2 0
BITMAP
00C000
00C000
00C000
00C000
01C000
018000
018000
01C000
000000
000000
000000
E001C0
E001C0
E001C0
E001C0
E001C0
E001C0
E001C0
E001C0
E001C0
E001C0
E001C0
E001C0
E001C0
E001C0
E001C0
E003C0
E003C0
F00380
700780
780F00
3FFF00
1FFE00
0FF800
01C000
01C000
01C000
01C000
01C000
01C000
01C000
01C000
ENDCHAR
STARTCHAR 1EF8
ENCODING 7928
SWIDTH 472 0
DWIDTH 21 0
BBX 18 39 2 0
BITMAP
1F0000
1FF800
11F800
000000
000000
000000
000000
000000
E001C0
E001C0
E001C0
E001C0
E001C0
E001C0
E001C0
E001C0
E001C0
E001C0
E001C0
E001C0
E001C0
E001C0
E001C0
E003C0
E003C0
F00380
700780
780F00
3FFF00
1FFE00
0FF800
01C000
01C000
01C000
01C000
01C000
01C000
01C000
01C000
ENDCHAR
STARTCHAR 1EF9
ENCODING 7929
SWIDTH 472 0
DWIDTH 21 0
BBX 18 39 2 0
BITMAP
1F0000
1FF800
11F800
000000
000000
000000
000000
000000
E001C0
E001C0
E001C0
E001C0
E001C0
E001C0
E001C0
E001C0
E001C0
E001C0
E001C0
E001C0
E001C0
E001C0
E001C0
E003C0
E003C0
F00380
700780
780F00
3FFF00
1FFE00
0FF800
01C000
01C000
01C000
01C000
01C000
01C000
01C000
01C000
ENDCHAR
STARTCHAR 2013
ENCODING 8211
SWIDTH 562 0
DWIDTH 25 0
BBX 21 2 2 11
BITMAP
FFFFF8
FFFFF8
ENDCHAR
STARTCHAR 2014
ENCODING 8212
SWIDTH 787 0
DWIDTH 35 0
BBX 31 2 2 11
BITMAP
FFFFFFFE
FFFFFFFE
ENDCHAR
STARTCHAR 2018
ENCODING 8216
SWIDTH 202 0
DWIDTH 9 0
BBX 5 8 3 23
BITMAP
38
30
30
70
70
F0
E0
E0
ENDCHAR
STARTCHAR 2019
ENCODING 8217
SWIDTH 202 0
DWIDTH 9 0
BBX 4 8 3 23
BITMAP
70
70
70
E0
E0
E0
C0
C0
ENDCHAR
STARTCHAR 201A
ENCODING 8218
SWIDTH 202 0
DWIDTH 9 0
BBX 5 8 2 -5
BITMAP
38
38
78
70
70
60
60
E0
ENDCHAR
STARTCHAR 201C
ENCODING 8220
SWIDTH 360 0
DWIDTH 16 0
BBX 12 8 3 23
BITMAP
1830
3870
3870
3060
70E0
70E0
F1E0
F1E0
ENDCHAR
STARTCHAR 201D
ENCODING 8221
SWIDTH 360 0
DWIDTH 16 0
BBX 11 8 3 23
BITMAP
70E0
70E0
70E0
E1C0
E1C0
E1C0
C180
C180
ENDCHAR
STARTCHAR 201E
ENCODING 8222
SWIDTH 382 0
DWIDTH 17 0
BBX 13 8 2 -5
BITMAP
3838
3838
7878
7070
7070
6060
6060
E0E0
ENDCHAR
STARTCHAR 2020
ENCODING 8224
SWIDTH 405 0
DWIDTH 18 0
BBX 14 21 2 11
BITMAP
0300
0300
0300
0300
0300
FFFC
FFFC
0300
0300
0300
0300
0300
0300
0300
0300
0300
0300
0300
0300
0300
0300
ENDCHAR
STARTCHAR 2021
ENCODING 8225
SWIDTH 405 0
DWIDTH 18 0
BBX 14 21 2 11
BITMAP
0300
0300
0300
0300
0300
FFFC
FFFC
0300
0300
0300
0300
0300
0300
0300
FFFC
FFFC
0300
0300
0300
0300
0300
ENDCHAR
STARTCHAR 2022
ENCODING 8226
SWIDTH 292 0
DWIDTH 13 0
BBX 9 9 2 8
BITMAP
0C00
3F00
7F80
FF80
FF80
FF80
7F80
7F80
3F00
ENDCHAR
STARTCHAR 2026
ENCODING 8230
SWIDTH 630 0
DWIDTH 28 0
BBX 24 6 2 0
BITMAP
100800
7C3E1F
FC7E3F
FC7E3F
FC7E3F
7C3E1F
ENDCHAR
STARTCHAR 2030
ENCODING 8240
SWIDTH 1237 0
DWIDTH 55 0
BBX 51 32 2 0
BITMAP
01800000000000
0FF00038000000
1FF80070000000
3C3C00E0000000
781E00E0000000
700E01C0000000
E00E0380000000
E00E0380000000
E00E0700000000
E00E0E00000000
700E1C00000000
781C1C00000000
3E7C3800000000
1FF87000000000
0FE07000000000
0000E000000000
0001C000000000
0001C000000000
000383F800FE00
000707FE03FF80
000E0F1F07C7C0
000E1E070701C0
001C1C038F01E0
003838038E00E0
003838038E00E0
007038038E00E0
00E038038E00E0
00E01C038F01E0
01C01E070701C0
03800F1F07C7C0
070007FE03FF80
070003FC00FE00
ENDCHAR
STARTCHAR 2039
ENCODING 8249
SWIDTH 337 0
DWIDTH 15 0
BBX 11 19 2 4
BITMAP
01E0
03C0
0380
0700
0E00
1E00
1C00
3800
7000
F000
7800
3800
1C00
1E00
0F00
0700
0380
03C0
01E0
ENDCHAR
STARTCHAR 203A
ENCODING 8250
SWIDTH 337 0
DWIDTH 15 0
BBX 10 19 3 4
BITMAP
E000
7000
7800
3C00
1C00
0E00
0F00
0780
0380
01C0
0380
0780
0F00
0E00
1C00
3800
7800
7000
E000
ENDCHAR
STARTCHAR 2044
ENCODING 8260
SWIDTH 652 0
DWIDTH 29 0
BBX 24 31 3 0
BITMAP
000007
00000E
00001C
000038
000038
000070
0000E0
0000E0
0001C0
000380
000380
000700
000E00
001E00
001C00
003800
007000
007000
00E000
01C000
01C000
038000
070000
0F0000
0E0000
1C0000
380000
380000
700000
E00000
E00000
ENDCHAR
STARTCHAR 20AC
ENCODING 8364
SWIDTH 630 0
DWIDTH 28 0
BBX 24 32 2 0
BITMAP
000008
0003FF
000FFF
001FFF
007F00
00F800
00F000
01E000
03C000
038000
078000
070000
FFFFF0
FFFFF0
FFFFF0
0F0000
0F0000
0F0000
FFFFF0
FFFFF0
FFFFF0
070000
078000
038000
03C000
01E000
00F000
007C00
003F00
001FFF
0007FF
0001FF
ENDCHAR
STARTCHAR 2122
ENCODING 8482
SWIDTH 765 0
DWIDTH 34 0
BBX 30 17 2 15
BITMAP
FFE00800
FFF80C0C
FFFC0F0C
0E1F0F8C
0E0FCFEC
0E0FEEFC
0E0EFE7C
0E0E3E1C
0E0E1E0C
0E0E0E0C
0E0E0E0C
0E0E0E0C
0E0E0E0C
0E0E0E0C
0E0E0E0C
0E0E0E0C
0E0E0E0C
ENDCHAR
STARTCHAR 2190
ENCODING 8592
SWIDTH 810 0
DWIDTH 36 0
BBX 31 20 3 6
BITMAP
00400000
00E00000
01E00000
03C00000
07800000
0F000000
1E000000
3C000000
780003DE
FFFFFFFE
FFFFFFFE
78000000
3C000000
1E000000
0F000000
07800000
03C00000
01E00000
00E00000
00400000
ENDCHAR
STARTCHAR 2191
ENCODING 8593
SWIDTH 562 0
DWIDTH 25 0
BBX 19 32 3 0
BITMAP
004000
00E000
01F000
03F800
07FC00
0FFE00
1EEF00
3CE780
78E3C0
F0E1E0
E0E0E0
40E040
00E000
00E000
00E000
00E000
00E000
00E000
00E000
00E000
00E000
00E000
00E000
00E000
00E000
00E000
00E000
00E000
00E000
00E000
00E000
00E000
ENDCHAR
STARTCHAR 2192
ENCODING 8594
SWIDTH 810 0
DWIDTH 36 0
BBX 32 20 2 6
BITMAP
00000600
00000F00
00000780
000003C0
000001E0
000000F0
00000078
0000003C
F800001E
FFFFFFFF
FFFFFFFF
0000001E
0000003C
00000078
000000F0
000001E0
000003C0
00000780
00000F00
00000600
ENDCHAR
STARTCHAR 2193
ENCODING 8595
SWIDTH 562 0
DWIDTH 25 0
BBX 21 32 2 -1
BITMAP
007000
007000
007000
007000
007000
007000
007000
007000
007000
007000
007000
007000
007000
007000
007000
007000
007000
007000
007000
007000
607030
F07078
7870F0
3C71E0
1E73C0
0F7780
07FF00
03FE00
01FC00
00F800
007000
002000
ENDCHAR
STARTCHAR 2194
ENCODING 8596
SWIDTH 855 0
DWIDTH 38 0
BBX 33 20 3 6
BITMAP
0040010000
00E0038000
01E003C000
03C001E000
078000F000
0F00007800
1E00003C00
3C00001E00
7800000F00
FFFFFFFF80
FFFFFFFF80
7800000F00
3C00001E00
1E00003C00
0F00007800
078000F000
03C001E000
01E003C000
00E0038000
0040010000
ENDCHAR
STARTCHAR 2195
ENCODING 8597
SWIDTH 585 0
DWIDTH 26 0
BBX 22 33 2 -1
BITMAP
001000
007800
00FC00
01FE00
03FF00
07BBC0
0F39E0
1E38F0
783878
F0383C
603818
003800
003800
003800
003800
003800
003800
003800
003800
003800
003800
003808
603818
F0383C
7C3878
1E38F0
0F39E0
07BFC0
03FF00
01FE00
00FC00
003800
001000
ENDCHAR
STARTCHAR 2196
ENCODING 8598
SWIDTH 630 0
DWIDTH 28 0
BBX 24 23 2 4
BITMAP
FFFE00
FFFE00
F80000
FC0000
FE0000
EF0000
E78000
E3C000
E1E000
E0F000
E07800
E03C00
E01E00
E00F00
000780
0003C0
0001E0
0000F0
000078
00003C
00001E
00000F
000006
ENDCHAR
STARTCHAR 2197
ENCODING 8599
SWIDTH 630 0
DWIDTH 28 0
BBX 23 23 3 4
BITMAP
007FFE
007FFE
00003E
00007E
0000FE
0001EE
0003CE
00078E
000F0E
001E0E
003C0E
00780E
00F00E
01E00E
03C000
078000
0F0000
1E0000
3C0000
780000
F00000
E00000
400000
ENDCHAR
STARTCHAR 2198
ENCODING 8600
SWIDTH 630 0
DWIDTH 28 0
BBX 23 23 3 4
BITMAP
400000
E00000
F00000
780000
3C0000
1E0000
0F0000
078000
03C000
01E00E
00F00E
00780E
003C0E
001E0E
000F0E
00078E
0003CE
0001EE
0000FE
00007E
00003E
007FFE
007FFE
ENDCHAR
STARTCHAR 2199
ENCODING 8601
SWIDTH 630 0
DWIDTH 28 0
BBX 24 23 2 4
BITMAP
000006
00000F
00001E
00003C
000078
0000F0
0001E0
0003C0
000780
E00F00
E01E00
E03C00
E07800
E0F000
E1E000
E3C000
E78000
EF0000
FE0000
FC0000
F80000
FFFE00
FFFE00
ENDCHAR
STARTCHAR 2202
ENCODING 8706
SWIDTH 540 0
DWIDTH 24 0
BBX 20 33 2 -1
BITMAP
030000
07C000
07F000
01F800
00FC00
003E00
001F00
000F80
000780
0003C0
0001C0
0001E0
0060E0
03FCF0
0FFF70
1FFFF0
3E03F0
3C01F0
7800F0
780070
700070
F00070
F00070
F000F0
F000F0
7000E0
7001E0
7803C0
3C07C0
3FBF80
1FFF00
07FC00
01E000
ENDCHAR
STARTCHAR 2205
ENCODING 8709
SWIDTH 697 0
DWIDTH 31 0
BBX 27 26 2 3
BITMAP
007FE060
01FFF8E0
07C03DC0
0F000F80
1C000700
18000F80
38001DC0
300038C0
700070E0
6000E060
6001C060
E0038060
E0070060
E00E0060
E01C0060
60380060
60700060
70E000E0
31C000C0
3B8001C0
1F000380
1E000700
1F000F00
3BC03C00
71FFF800
607FE000
ENDCHAR
STARTCHAR 220F
ENCODING 8719
SWIDTH 585 0
DWIDTH 26 0
BBX 22 37 2 -5
BITMAP
FFFFFC
FFFFFC
FFFFFC
1C00E0
1C00E0
1C00E0
1C00E0
1C00E0
1C00E0
1C00E0
1C00E0
1C00E0
1C00E0
1C00E0
1C00E0
1C00E0
1C00E0
1C00E0
1C00E0
1C00E0
1C00E0
1C00E0
1C00E0
1C00E0
1C00E0
1C00E0
1C00E0
1C00E0
1C00E0
1C00E0
1C00E0
1C00E0
1C00E0
1C00E0
1C00E0
1C00E0
1C00E0
ENDCHAR
STARTCHAR 2211
ENCODING 8721
SWIDTH 472 0
DWIDTH 21 0
BBX 17 37 2 -5
BITMAP
FFFF80
FFFF80
FFFF80
700000
780000
380000
3C0000
1C0000
1E0000
0E0000
070000
070000
038000
03C000
01C000
01E000
00E000
00F000
007000
00E000
00E000
01C000
01C000
038000
078000
070000
0F0000
0E0000
1C0000
1C0000
380000
380000
700000
F00000
FFFF80
FFFF80
FFFF80
ENDCHAR
STARTCHAR 2212
ENCODING 8722
SWIDTH 540 0
DWIDTH 24 0
BBX 20 3 2 13
BITMAP
FFFFF0
FFFFF0
FFFFF0
ENDCHAR
STARTCHAR 221A
ENCODING 8730
SWIDTH 630 0
DWIDTH 28 0
BBX 24 37 2 -5
BITMAP
0000FF
0000FF
0001FF
0001C0
0001C0
0001C0
0003C0
000380
000380
000380
000700
000700
000700
000F00
000E00
000E00
000E00
001C00
F01C00
701C00
703C00
703800
383800
383800
387000
3C7000
1C7000
1C7000
1EE000
0EE000
0EE000
0FC000
07C000
07C000
07C000
078000
038000
ENDCHAR
STARTCHAR 221E
ENCODING 8734
SWIDTH 765 0
DWIDTH 34 0
BBX 31 14 2 9
BITMAP
07C007C0
1FF01FF0
3FF83FF8
781C703C
700EE01C
E007C00C
E007C00E
E003800E
E007C00C
700EE01C
701EF01C
3C7C7C78
1FF81FF0
0FE00FE0
ENDCHAR
STARTCHAR 222B
ENCODING 8747
SWIDTH 472 0
DWIDTH 21 0
BBX 17 37 2 -5
BITMAP
000380
000F80
001F80
003C00
003800
003800
007000
007000
007000
007000
007000
007000
00E000
00E000
00E000
00E000
00E000
01C000
01C000
01C000
01C000
01C000
018000
038000
038000
038000
038000
038000
070000
070000
070000
070000
0F0000
1E0000
FE0000
FC0000
F00000
ENDCHAR
STARTCHAR 2248
ENCODING 8776
SWIDTH 517 0
DWIDTH 23 0
BBX 20 13 2 8
BITMAP
7F8000
FFFFF0
FFFFF0
007FF0
000000
000000
000000
000000
000000
FFC000
FFFFF0
FFFFF0
003FE0
ENDCHAR
STARTCHAR 2260
ENCODING 8800
SWIDTH 540 0
DWIDTH 24 0
BBX 20 21 2 4
BITMAP
000E00
000C00
001C00
001C00
003800
FFFFF0
FFFFF0
FFFFF0
007000
007000
00E000
00E000
00C000
FFFFF0
FFFFF0
FFFFF0
038000
038000
070000
070000
070000
ENDCHAR
STARTCHAR 2264
ENCODING 8804
SWIDTH 540 0
DWIDTH 24 0
BBX 20 18 2 5
BITMAP
000010
0001F0
001FF0
01FF80
1FF800
FF8000
F80000
FF0000
7FF000
07FF00
007FF0
0007F0
000070
000000
000000
000000
FFFFF0
FFFFF0
ENDCHAR
STARTCHAR 2265
ENCODING 8805
SWIDTH 540 0
DWIDTH 24 0
BBX 20 18 2 5
BITMAP
C00000
F80000
FF8000
1FF800
01FF80
001FF0
0001F0
0007F0
007FE0
07FE00
7FE000
FE0000
E00000
000000
000000
000000
FFFFF0
FFFFF0
ENDCHAR
STARTCHAR 25CA
ENCODING 9674
SWIDTH 450 0
DWIDTH 20 0
BBX 15 24 3 4
BITMAP
07C0
07C0
0EE0
0EE0
1C70
1C70
3838
3838
701C
701C
E00E
E00E
E00E
E00E
701C
701C
3838
3838
1C70
1C70
0EE0
0EE0
07C0
07C0
ENDCHAR
ENDFONT
